STARTFONT 2.1
COMMENT
COMMENT Converted from OpenType font "texgyreadventor-regular.otf" by "otf2bdf 3.0".
COMMENT
FONT -FreeType-TeXGyreAdventor-Medium-R-Normal--24-240-72-72-P-118-ISO10646-1
SIZE 24 72 72
FONTBOUNDINGBOX 51 35 -14 -7
STARTPROPERTIES 19
FOUNDRY "FreeType"
FAMILY_NAME "TeXGyreAdventor"
WEIGHT_NAME "Medium"
SLANT "R"
SETWIDTH_NAME "Normal"
ADD_STYLE_NAME ""
PIXEL_SIZE 24
POINT_SIZE 240
RESOLUTION_X 72
RESOLUTION_Y 72
SPACING "P"
AVERAGE_WIDTH 118
CHARSET_REGISTRY "ISO10646"
CHARSET_ENCODING "1"
FONT_ASCENT 27
FONT_DESCENT 7
COPYRIGHT "Copyright 2006, 2009 for TeX Gyre extensions by B. Jackowski and J.M. Nowacki (on behalf of TeX users groups). This work is released under the GUST Font License --  see http://tug.org/fonts/licenses/GUST-FONT-LICENSE.txt for details."
_OTF_FONTFILE "texgyreadventor-regular.otf"
_OTF_PSNAME "TeXGyreAdventor-Regular"
ENDPROPERTIES
CHARS 1053
STARTCHAR 0020
ENCODING 32
SWIDTH 291 0
DWIDTH 7 0
BBX 0 0 0 0
BITMAP
ENDCHAR
STARTCHAR 0021
ENCODING 33
SWIDTH 291 0
DWIDTH 7 0
BBX 1 18 3 0
BITMAP
80
80
80
80
80
80
80
80
80
80
80
80
80
00
00
80
80
80
ENDCHAR
STARTCHAR 0022
ENCODING 34
SWIDTH 291 0
DWIDTH 7 0
BBX 4 5 2 13
BITMAP
B0
B0
B0
B0
B0
ENDCHAR
STARTCHAR 0023
ENCODING 35
SWIDTH 541 0
DWIDTH 13 0
BBX 13 18 0 0
BITMAP
0430
0C30
0C20
0C20
0860
0860
FFF8
1840
1840
18C0
10C0
FFF8
3080
3080
3080
2180
2180
6180
ENDCHAR
STARTCHAR 0024
ENCODING 36
SWIDTH 541 0
DWIDTH 13 0
BBX 9 21 2 -2
BITMAP
0800
0C00
3F00
6380
4180
C080
C000
6000
7000
3E00
0700
0180
0180
0080
C080
C180
E380
7F00
0800
0800
0800
ENDCHAR
STARTCHAR 0025
ENCODING 37
SWIDTH 791 0
DWIDTH 19 0
BBX 18 18 0 0
BITMAP
3E0C00
7F0C00
631800
C19800
C1B000
C1B000
636000
3E6000
084000
00C600
009F80
01B180
0130C0
0320C0
0320C0
0630C0
061F80
0C0F00
ENDCHAR
STARTCHAR 0026
ENCODING 38
SWIDTH 750 0
DWIDTH 18 0
BBX 16 18 1 0
BITMAP
0780
1FC0
1860
3060
1060
18E0
0DC6
0F86
1F0C
338C
60D8
C078
C030
C038
406C
60C6
3FC3
0F01
ENDCHAR
STARTCHAR 0027
ENCODING 39
SWIDTH 208 0
DWIDTH 5 0
BBX 1 6 2 12
BITMAP
80
80
80
80
80
80
ENDCHAR
STARTCHAR 0028
ENCODING 40
SWIDTH 375 0
DWIDTH 9 0
BBX 7 21 1 -3
BITMAP
02
0E
1C
18
30
60
60
60
C0
C0
C0
C0
40
60
60
60
30
18
1C
06
02
ENDCHAR
STARTCHAR 0029
ENCODING 41
SWIDTH 375 0
DWIDTH 9 0
BBX 6 21 1 -3
BITMAP
80
C0
60
30
18
18
0C
0C
0C
04
04
04
0C
0C
0C
18
18
30
60
C0
80
ENDCHAR
STARTCHAR 002A
ENCODING 42
SWIDTH 416 0
DWIDTH 10 0
BBX 7 7 2 11
BITMAP
48
68
30
FE
30
68
48
ENDCHAR
STARTCHAR 002B
ENCODING 43
SWIDTH 625 0
DWIDTH 15 0
BBX 12 12 1 0
BITMAP
0600
0600
0600
0600
0600
FFF0
FFF0
0600
0600
0600
0600
0600
ENDCHAR
STARTCHAR 002C
ENCODING 44
SWIDTH 291 0
DWIDTH 7 0
BBX 4 5 2 -2
BITMAP
30
20
60
60
C0
ENDCHAR
STARTCHAR 002D
ENCODING 45
SWIDTH 333 0
DWIDTH 8 0
BBX 6 2 1 5
BITMAP
FC
FC
ENDCHAR
STARTCHAR 002E
ENCODING 46
SWIDTH 291 0
DWIDTH 7 0
BBX 2 3 2 0
BITMAP
C0
C0
C0
ENDCHAR
STARTCHAR 002F
ENCODING 47
SWIDTH 416 0
DWIDTH 10 0
BBX 8 21 1 -3
BITMAP
01
03
03
02
06
06
04
0C
0C
08
18
18
10
30
30
20
60
60
40
C0
C0
ENDCHAR
STARTCHAR 0030
ENCODING 48
SWIDTH 541 0
DWIDTH 13 0
BBX 12 18 1 0
BITMAP
1F00
7FC0
60E0
C060
C020
C030
8030
8030
8030
8030
8030
8030
C030
C020
C060
60E0
7FC0
1F80
ENDCHAR
STARTCHAR 0031
ENCODING 49
SWIDTH 541 0
DWIDTH 13 0
BBX 4 18 4 0
BITMAP
F0
F0
10
10
10
10
10
10
10
10
10
10
10
10
10
10
10
10
ENDCHAR
STARTCHAR 0032
ENCODING 50
SWIDTH 541 0
DWIDTH 13 0
BBX 11 18 1 0
BITMAP
1F00
3FC0
60C0
C060
C060
C060
0060
0060
00C0
0180
0300
0600
0C00
1800
3000
6000
FFE0
FFE0
ENDCHAR
STARTCHAR 0033
ENCODING 51
SWIDTH 541 0
DWIDTH 13 0
BBX 11 18 1 0
BITMAP
1F00
3F80
6180
60C0
60C0
00C0
0180
0F80
0F80
00C0
0060
0060
C060
C060
C060
60C0
7F80
1F00
ENDCHAR
STARTCHAR 0034
ENCODING 52
SWIDTH 541 0
DWIDTH 13 0
BBX 13 18 0 0
BITMAP
0060
00E0
01E0
01E0
0360
0660
0660
0C60
1860
1860
3060
6060
6060
FFF8
FFF8
0060
0060
0060
ENDCHAR
STARTCHAR 0035
ENCODING 53
SWIDTH 541 0
DWIDTH 13 0
BBX 12 18 1 0
BITMAP
3FC0
3FC0
2000
2000
6000
6600
7F80
70C0
4060
0060
0030
0030
8030
C020
C060
60E0
3FC0
1F00
ENDCHAR
STARTCHAR 0036
ENCODING 54
SWIDTH 541 0
DWIDTH 13 0
BBX 12 18 1 0
BITMAP
0300
0600
0C00
0C00
1800
3600
3F80
70C0
C060
C060
C030
8030
8030
C020
C060
60E0
3FC0
1F00
ENDCHAR
STARTCHAR 0037
ENCODING 55
SWIDTH 541 0
DWIDTH 13 0
BBX 10 18 2 0
BITMAP
FFC0
FFC0
0080
0180
0100
0300
0300
0600
0600
0C00
0C00
0800
1800
1000
3000
3000
6000
6000
ENDCHAR
STARTCHAR 0038
ENCODING 56
SWIDTH 541 0
DWIDTH 13 0
BBX 11 18 1 0
BITMAP
1F00
3F80
60C0
60C0
6040
60C0
70C0
3F80
3F80
70C0
C060
C060
C060
C060
C060
60C0
3FC0
1F00
ENDCHAR
STARTCHAR 0039
ENCODING 57
SWIDTH 541 0
DWIDTH 13 0
BBX 12 18 1 0
BITMAP
1F00
3FC0
60E0
C060
C020
8030
8030
8030
C060
C060
70C0
3FC0
0D80
0300
0300
0600
0C00
1C00
ENDCHAR
STARTCHAR 003A
ENCODING 58
SWIDTH 291 0
DWIDTH 7 0
BBX 2 12 2 0
BITMAP
C0
C0
C0
00
00
00
00
00
00
C0
C0
C0
ENDCHAR
STARTCHAR 003B
ENCODING 59
SWIDTH 291 0
DWIDTH 7 0
BBX 4 14 1 -2
BITMAP
30
30
30
00
00
00
00
00
00
30
20
60
40
C0
ENDCHAR
STARTCHAR 003C
ENCODING 60
SWIDTH 625 0
DWIDTH 15 0
BBX 10 16 2 -2
BITMAP
0040
00C0
0380
0700
0E00
1C00
7000
E000
E000
7000
1800
0E00
0700
0380
00C0
0040
ENDCHAR
STARTCHAR 003D
ENCODING 61
SWIDTH 625 0
DWIDTH 15 0
BBX 12 6 1 3
BITMAP
FFF0
FFF0
0000
0000
FFF0
FFF0
ENDCHAR
STARTCHAR 003E
ENCODING 62
SWIDTH 625 0
DWIDTH 15 0
BBX 10 16 2 -2
BITMAP
8000
C000
7000
3800
1C00
0E00
0300
01C0
01C0
0300
0E00
1C00
3800
7000
C000
8000
ENDCHAR
STARTCHAR 003F
ENCODING 63
SWIDTH 583 0
DWIDTH 14 0
BBX 11 18 2 0
BITMAP
1F00
7F80
E0C0
C0C0
8060
8060
00C0
00C0
0180
0300
0600
0400
0C00
0000
0000
0C00
0C00
0C00
ENDCHAR
STARTCHAR 0040
ENCODING 64
SWIDTH 875 0
DWIDTH 21 0
BBX 17 18 2 0
BITMAP
03F000
0E1C00
380600
200300
41ED00
C73880
861880
8C1880
881080
983180
983100
986300
CCE600
47BC00
200200
100600
0E1C00
03F000
ENDCHAR
STARTCHAR 0041
ENCODING 65
SWIDTH 750 0
DWIDTH 18 0
BBX 17 18 0 0
BITMAP
00C000
01E000
01E000
036000
033000
023000
061800
061800
0C1800
0C0C00
1FFC00
1FFE00
180600
300300
300300
600300
600180
C00180
ENDCHAR
STARTCHAR 0042
ENCODING 66
SWIDTH 583 0
DWIDTH 14 0
BBX 11 18 2 0
BITMAP
FE00
FF80
C1C0
C0C0
C0C0
C0C0
C0C0
C180
FF00
FFC0
C0C0
C060
C060
C060
C060
C0E0
FFC0
FF00
ENDCHAR
STARTCHAR 0043
ENCODING 67
SWIDTH 833 0
DWIDTH 20 0
BBX 17 18 1 0
BITMAP
03F000
0FFE00
1C0700
300380
600180
600000
C00000
C00000
C00000
C00000
C00000
C00000
600000
600180
300380
1C0700
0FFE00
03F800
ENDCHAR
STARTCHAR 0044
ENCODING 68
SWIDTH 750 0
DWIDTH 18 0
BBX 15 18 2 0
BITMAP
FF80
FFE0
C070
C018
C00C
C00C
C004
C006
C006
C006
C006
C006
C00C
C00C
C018
C070
FFE0
FF80
ENDCHAR
STARTCHAR 0045
ENCODING 69
SWIDTH 541 0
DWIDTH 13 0
BBX 10 18 2 0
BITMAP
FFC0
FFC0
C000
C000
C000
C000
C000
C000
FF80
FF80
C000
C000
C000
C000
C000
C000
FFC0
FFC0
ENDCHAR
STARTCHAR 0046
ENCODING 70
SWIDTH 500 0
DWIDTH 12 0
BBX 9 18 2 0
BITMAP
FF80
FF80
C000
C000
C000
C000
C000
C000
FF80
FF80
C000
C000
C000
C000
C000
C000
C000
C000
ENDCHAR
STARTCHAR 0047
ENCODING 71
SWIDTH 875 0
DWIDTH 21 0
BBX 19 18 1 0
BITMAP
03F800
0FFE00
1C0700
300180
6000C0
600000
C00000
C00000
C00000
C1FFE0
C1FFE0
C00060
6000C0
6000C0
300180
1C0700
0FFE00
01F800
ENDCHAR
STARTCHAR 0048
ENCODING 72
SWIDTH 666 0
DWIDTH 16 0
BBX 13 18 2 0
BITMAP
C018
C018
C018
C018
C018
C018
C018
C018
FFF8
FFF8
C018
C018
C018
C018
C018
C018
C018
C018
ENDCHAR
STARTCHAR 0049
ENCODING 73
SWIDTH 208 0
DWIDTH 5 0
BBX 2 18 2 0
BITMAP
C0
C0
C0
C0
C0
C0
C0
C0
C0
C0
C0
C0
C0
C0
C0
C0
C0
C0
ENDCHAR
STARTCHAR 004A
ENCODING 74
SWIDTH 500 0
DWIDTH 12 0
BBX 10 18 0 0
BITMAP
00C0
00C0
00C0
00C0
00C0
00C0
00C0
00C0
00C0
00C0
00C0
00C0
00C0
C0C0
C080
6180
7F80
1E00
ENDCHAR
STARTCHAR 004B
ENCODING 75
SWIDTH 583 0
DWIDTH 14 0
BBX 12 18 2 0
BITMAP
C070
C060
C0C0
C180
C300
C700
C600
CC00
D800
FC00
FC00
E600
C300
C380
C180
C0C0
C060
C070
ENDCHAR
STARTCHAR 004C
ENCODING 76
SWIDTH 458 0
DWIDTH 11 0
BBX 9 18 2 0
BITMAP
C000
C000
C000
C000
C000
C000
C000
C000
C000
C000
C000
C000
C000
C000
C000
C000
FF80
FF80
ENDCHAR
STARTCHAR 004D
ENCODING 77
SWIDTH 916 0
DWIDTH 22 0
BBX 18 18 2 0
BITMAP
E001C0
E001C0
F003C0
F003C0
D002C0
D806C0
D806C0
CC0CC0
CC0CC0
C618C0
C618C0
C210C0
C330C0
C330C0
C1E0C0
C1E0C0
C0C0C0
C0C0C0
ENDCHAR
STARTCHAR 004E
ENCODING 78
SWIDTH 750 0
DWIDTH 18 0
BBX 14 18 2 0
BITMAP
E00C
E00C
F00C
F80C
D80C
CC0C
CE0C
C60C
C30C
C38C
C18C
C0CC
C0EC
C06C
C03C
C03C
C01C
C00C
ENDCHAR
STARTCHAR 004F
ENCODING 79
SWIDTH 875 0
DWIDTH 21 0
BBX 19 18 1 0
BITMAP
03F000
0FFE00
1C0700
300380
600180
6000C0
C00040
C00060
C00060
C00060
C00060
C00040
6000C0
6001C0
300380
1C0700
0FFE00
03F800
ENDCHAR
STARTCHAR 0050
ENCODING 80
SWIDTH 583 0
DWIDTH 14 0
BBX 12 18 2 0
BITMAP
FF00
FFC0
C060
C060
C020
C030
C020
C060
C0E0
FFC0
FE00
C000
C000
C000
C000
C000
C000
C000
ENDCHAR
STARTCHAR 0051
ENCODING 81
SWIDTH 875 0
DWIDTH 21 0
BBX 19 18 1 0
BITMAP
03F800
0FFE00
1C0700
300180
6000C0
6000C0
C00060
C00060
C00060
C00060
CE0060
FFE060
6078C0
601CC0
300780
1C0700
0FFFE0
01F8E0
ENDCHAR
STARTCHAR 0052
ENCODING 82
SWIDTH 625 0
DWIDTH 15 0
BBX 12 18 2 0
BITMAP
FF00
FFC0
C060
C020
C030
C030
C030
C030
C060
C1E0
CF80
C600
C700
C300
C180
C0C0
C0C0
C060
ENDCHAR
STARTCHAR 0053
ENCODING 83
SWIDTH 500 0
DWIDTH 12 0
BBX 10 18 1 0
BITMAP
1E00
7F80
6180
C0C0
C0C0
C000
C000
7000
3E00
0780
00C0
00C0
0040
C040
C0C0
E1C0
7F80
1E00
ENDCHAR
STARTCHAR 0054
ENCODING 84
SWIDTH 416 0
DWIDTH 10 0
BBX 10 18 0 0
BITMAP
FFC0
FFC0
0C00
0C00
0C00
0C00
0C00
0C00
0C00
0C00
0C00
0C00
0C00
0C00
0C00
0C00
0C00
0C00
ENDCHAR
STARTCHAR 0055
ENCODING 85
SWIDTH 666 0
DWIDTH 16 0
BBX 12 18 2 0
BITMAP
C030
C030
C030
C030
C030
C030
C030
C030
C030
C030
C030
C030
C030
C030
C060
6060
3FC0
1F80
ENDCHAR
STARTCHAR 0056
ENCODING 86
SWIDTH 708 0
DWIDTH 17 0
BBX 16 18 0 0
BITMAP
C003
6003
6003
3006
3006
300C
180C
180C
0C18
0C18
0C10
0630
0630
0360
0360
0140
01C0
0180
ENDCHAR
STARTCHAR 0057
ENCODING 87
SWIDTH 958 0
DWIDTH 23 0
BBX 23 18 0 0
BITMAP
C01806
403804
60380C
60280C
606C0C
306C18
306C18
304418
10C610
18C630
18C630
188230
0D8360
0D8360
0D8360
0701C0
0701C0
0701C0
ENDCHAR
STARTCHAR 0058
ENCODING 88
SWIDTH 625 0
DWIDTH 15 0
BBX 13 18 1 0
BITMAP
C018
E030
6060
3060
38C0
19C0
0D80
0F00
0700
0700
0F80
1D80
18C0
30C0
7060
6030
C030
C018
ENDCHAR
STARTCHAR 0059
ENCODING 89
SWIDTH 583 0
DWIDTH 14 0
BBX 14 18 0 0
BITMAP
C00C
6018
6018
3030
3030
1860
1860
0CC0
0CC0
0780
0780
0300
0300
0300
0300
0300
0300
0300
ENDCHAR
STARTCHAR 005A
ENCODING 90
SWIDTH 500 0
DWIDTH 12 0
BBX 11 18 0 0
BITMAP
7FE0
7FE0
0060
00C0
0180
0180
0300
0300
0600
0C00
0C00
1800
1800
3000
3000
6000
FFE0
FFE0
ENDCHAR
STARTCHAR 005B
ENCODING 91
SWIDTH 333 0
DWIDTH 8 0
BBX 5 21 3 -3
BITMAP
18
38
60
C0
C0
80
80
80
80
80
80
80
80
80
80
80
C0
C0
60
38
18
ENDCHAR
STARTCHAR 005C
ENCODING 92
SWIDTH 625 0
DWIDTH 15 0
BBX 9 18 2 0
BITMAP
C000
4000
6000
6000
3000
3000
1000
1800
0800
0C00
0C00
0400
0600
0200
0300
0300
0180
0180
ENDCHAR
STARTCHAR 005D
ENCODING 93
SWIDTH 333 0
DWIDTH 8 0
BBX 5 21 1 -3
BITMAP
80
E0
70
30
10
18
18
18
18
18
18
18
18
18
18
18
10
30
70
E0
80
ENDCHAR
STARTCHAR 005E
ENCODING 94
SWIDTH 625 0
DWIDTH 15 0
BBX 13 14 1 4
BITMAP
0700
0700
0F00
0D80
1980
18C0
10C0
3040
3060
6060
6030
C030
C018
C018
ENDCHAR
STARTCHAR 005F
ENCODING 95
SWIDTH 500 0
DWIDTH 12 0
BBX 12 1 0 -3
BITMAP
FFF0
ENDCHAR
STARTCHAR 0060
ENCODING 96
SWIDTH 375 0
DWIDTH 9 0
BBX 5 4 1 14
BITMAP
C0
E0
38
18
ENDCHAR
STARTCHAR 0061
ENCODING 97
SWIDTH 666 0
DWIDTH 16 0
BBX 14 13 1 0
BITMAP
0F8C
3FEC
703C
601C
C00C
C00C
C00C
C00C
C00C
601C
703C
3CEC
0FCC
ENDCHAR
STARTCHAR 0062
ENCODING 98
SWIDTH 666 0
DWIDTH 16 0
BBX 14 18 1 0
BITMAP
C000
C000
C000
C000
C000
C7C0
DFF0
F038
E00C
E00C
C00C
C004
C00C
E00C
E01C
F038
DFF0
C7C0
ENDCHAR
STARTCHAR 0063
ENCODING 99
SWIDTH 666 0
DWIDTH 16 0
BBX 13 13 1 0
BITMAP
0FC0
3FE0
7038
6018
C000
C000
C000
C000
C000
6018
7038
1FF0
0FC0
ENDCHAR
STARTCHAR 0064
ENCODING 100
SWIDTH 666 0
DWIDTH 16 0
BBX 14 18 1 0
BITMAP
000C
000C
000C
000C
000C
0FCC
3FEC
703C
601C
C00C
C00C
C00C
C00C
C00C
601C
703C
1CEC
0FCC
ENDCHAR
STARTCHAR 0065
ENCODING 101
SWIDTH 666 0
DWIDTH 16 0
BBX 14 13 1 0
BITMAP
0FC0
3FE0
7030
6018
C008
FFFC
FFFC
C000
C000
6018
7030
1FE0
0F80
ENDCHAR
STARTCHAR 0066
ENCODING 102
SWIDTH 333 0
DWIDTH 8 0
BBX 7 18 0 0
BITMAP
06
1E
18
30
30
FE
FE
30
30
30
30
30
30
30
30
30
30
30
ENDCHAR
STARTCHAR 0067
ENCODING 103
SWIDTH 666 0
DWIDTH 16 0
BBX 14 18 1 -5
BITMAP
0F8C
3FEC
703C
601C
C01C
C00C
C00C
C00C
C01C
601C
703C
3FEC
0F8C
4018
6018
3038
1FF0
0FC0
ENDCHAR
STARTCHAR 0068
ENCODING 104
SWIDTH 625 0
DWIDTH 15 0
BBX 12 18 1 0
BITMAP
C000
C000
C000
C000
C000
CF80
DFE0
F060
E030
C030
C030
C030
C030
C030
C030
C030
C030
C030
ENDCHAR
STARTCHAR 0069
ENCODING 105
SWIDTH 208 0
DWIDTH 5 0
BBX 2 17 1 0
BITMAP
C0
C0
C0
00
C0
C0
C0
C0
C0
C0
C0
C0
C0
C0
C0
C0
C0
ENDCHAR
STARTCHAR 006A
ENCODING 106
SWIDTH 208 0
DWIDTH 5 0
BBX 4 22 -1 -5
BITMAP
10
10
10
00
10
10
10
10
10
10
10
10
10
10
10
10
10
30
30
30
E0
C0
ENDCHAR
STARTCHAR 006B
ENCODING 107
SWIDTH 500 0
DWIDTH 12 0
BBX 11 18 1 0
BITMAP
C000
C000
C000
C000
C000
C0C0
C180
C380
C300
C600
CC00
DC00
DC00
F600
E300
C180
C1C0
C0E0
ENDCHAR
STARTCHAR 006C
ENCODING 108
SWIDTH 208 0
DWIDTH 5 0
BBX 2 18 1 0
BITMAP
C0
C0
C0
C0
C0
C0
C0
C0
C0
C0
C0
C0
C0
C0
C0
C0
C0
C0
ENDCHAR
STARTCHAR 006D
ENCODING 109
SWIDTH 958 0
DWIDTH 23 0
BBX 20 13 1 0
BITMAP
CF0F80
D998E0
E07060
E06030
C06030
C06030
C06030
C06030
C06030
C06030
C06030
C06030
C06030
ENDCHAR
STARTCHAR 006E
ENCODING 110
SWIDTH 625 0
DWIDTH 15 0
BBX 12 13 1 0
BITMAP
CF80
D9E0
E060
E030
C030
C030
C030
C030
C030
C030
C030
C030
C030
ENDCHAR
STARTCHAR 006F
ENCODING 111
SWIDTH 666 0
DWIDTH 16 0
BBX 14 13 1 0
BITMAP
0FC0
3FE0
7030
6018
C018
C00C
C00C
C00C
C008
6018
7030
3FE0
0FC0
ENDCHAR
STARTCHAR 0070
ENCODING 112
SWIDTH 666 0
DWIDTH 16 0
BBX 14 17 1 -4
BITMAP
C7C0
DC70
F018
E008
E00C
C00C
C004
C00C
C00C
E01C
F038
DFF0
C7C0
C000
C000
C000
C000
ENDCHAR
STARTCHAR 0071
ENCODING 113
SWIDTH 666 0
DWIDTH 16 0
BBX 14 17 1 -4
BITMAP
0F8C
3FEC
703C
601C
C00C
C00C
C00C
C00C
C00C
601C
703C
3FEC
0FCC
000C
000C
000C
000C
ENDCHAR
STARTCHAR 0072
ENCODING 114
SWIDTH 291 0
DWIDTH 7 0
BBX 6 13 1 0
BITMAP
CC
DC
E0
E0
C0
C0
C0
C0
C0
C0
C0
C0
C0
ENDCHAR
STARTCHAR 0073
ENCODING 115
SWIDTH 375 0
DWIDTH 9 0
BBX 9 13 0 0
BITMAP
1E00
3F00
6300
6100
6000
7000
3E00
0300
0100
C180
6300
7F00
1E00
ENDCHAR
STARTCHAR 0074
ENCODING 116
SWIDTH 333 0
DWIDTH 8 0
BBX 8 18 0 0
BITMAP
18
18
18
18
18
FF
FF
18
18
18
18
18
18
18
18
18
18
18
ENDCHAR
STARTCHAR 0075
ENCODING 117
SWIDTH 625 0
DWIDTH 15 0
BBX 12 13 1 0
BITMAP
C030
C030
C030
C030
C030
C030
C030
4030
4030
6030
6070
39F0
1FB0
ENDCHAR
STARTCHAR 0076
ENCODING 118
SWIDTH 541 0
DWIDTH 13 0
BBX 13 13 0 0
BITMAP
C018
6010
6030
2030
3060
1060
18C0
18C0
0C80
0D80
0580
0700
0700
ENDCHAR
STARTCHAR 0077
ENCODING 119
SWIDTH 833 0
DWIDTH 20 0
BBX 20 13 0 0
BITMAP
C00030
600060
606060
606040
30F0C0
30F0C0
109180
199980
199900
0D0B00
0F0F00
070E00
060600
ENDCHAR
STARTCHAR 0078
ENCODING 120
SWIDTH 500 0
DWIDTH 12 0
BBX 10 13 1 0
BITMAP
C0C0
C180
6180
3300
3600
1C00
0C00
1E00
3600
3300
6180
C180
C0C0
ENDCHAR
STARTCHAR 0079
ENCODING 121
SWIDTH 541 0
DWIDTH 13 0
BBX 12 18 0 -5
BITMAP
C010
6030
6030
3060
3060
30C0
18C0
1880
0980
0D80
0F00
0700
0600
0600
0600
0C00
0C00
1800
ENDCHAR
STARTCHAR 007A
ENCODING 122
SWIDTH 416 0
DWIDTH 10 0
BBX 10 13 0 0
BITMAP
FFC0
FFC0
0180
0300
0600
0600
0C00
1800
3000
3000
6000
FFC0
FFC0
ENDCHAR
STARTCHAR 007B
ENCODING 123
SWIDTH 333 0
DWIDTH 8 0
BBX 6 21 1 -3
BITMAP
1C
3C
30
30
30
30
30
30
30
60
C0
60
30
30
30
30
30
30
30
3C
1C
ENDCHAR
STARTCHAR 007C
ENCODING 124
SWIDTH 666 0
DWIDTH 16 0
BBX 2 21 7 -3
BITMAP
C0
C0
C0
C0
C0
C0
C0
C0
C0
C0
C0
C0
C0
C0
C0
C0
C0
C0
C0
C0
C0
ENDCHAR
STARTCHAR 007D
ENCODING 125
SWIDTH 333 0
DWIDTH 8 0
BBX 5 21 1 -3
BITMAP
E0
E0
30
30
30
30
30
30
30
38
08
38
30
30
30
30
30
30
30
E0
E0
ENDCHAR
STARTCHAR 007E
ENCODING 126
SWIDTH 625 0
DWIDTH 15 0
BBX 12 4 1 5
BITMAP
3810
7E30
C3E0
40C0
ENDCHAR
STARTCHAR 00A0
ENCODING 160
SWIDTH 291 0
DWIDTH 7 0
BBX 0 0 0 0
BITMAP
ENDCHAR
STARTCHAR 00A1
ENCODING 161
SWIDTH 291 0
DWIDTH 7 0
BBX 1 18 3 -5
BITMAP
80
80
80
00
00
80
80
80
80
80
80
80
80
80
80
80
80
80
ENDCHAR
STARTCHAR 00A2
ENCODING 162
SWIDTH 541 0
DWIDTH 13 0
BBX 11 16 1 1
BITMAP
0600
0600
0F00
3FC0
70E0
6060
C000
C000
C000
C000
6060
70C0
3F80
0E00
0600
0600
ENDCHAR
STARTCHAR 00A3
ENCODING 163
SWIDTH 541 0
DWIDTH 13 0
BBX 14 18 0 0
BITMAP
07C0
1FE0
1830
3018
3018
2000
3000
3000
FFE0
FFE0
0C00
0600
020C
030C
020C
061C
7FF8
7FE0
ENDCHAR
STARTCHAR 00A4
ENCODING 164
SWIDTH 541 0
DWIDTH 13 0
BBX 12 12 1 1
BITMAP
1F20
FFE0
60E0
C060
C030
8030
8030
C020
C060
E0E0
FFE0
0E00
ENDCHAR
STARTCHAR 00A5
ENCODING 165
SWIDTH 541 0
DWIDTH 13 0
BBX 14 18 0 0
BITMAP
C00C
6008
6018
3030
3030
1860
1860
7CF8
7CF8
0780
7FF8
7FF8
0300
0300
0300
0300
0300
0300
ENDCHAR
STARTCHAR 00A6
ENCODING 166
SWIDTH 666 0
DWIDTH 16 0
BBX 2 21 7 -3
BITMAP
C0
C0
C0
C0
C0
C0
C0
C0
00
00
00
00
00
C0
C0
C0
C0
C0
C0
C0
C0
ENDCHAR
STARTCHAR 00A7
ENCODING 167
SWIDTH 625 0
DWIDTH 15 0
BBX 11 22 2 -4
BITMAP
1E00
3F80
6180
60C0
6000
3000
3800
6F00
C380
C0C0
C060
E060
7840
1EC0
0780
0180
00C0
40C0
60C0
7180
3F80
0E00
ENDCHAR
STARTCHAR 00A8
ENCODING 168
SWIDTH 375 0
DWIDTH 9 0
BBX 5 3 2 15
BITMAP
D8
D8
D8
ENDCHAR
STARTCHAR 00A9
ENCODING 169
SWIDTH 750 0
DWIDTH 18 0
BBX 17 17 0 0
BITMAP
03F000
0C0C00
100200
20E100
67F900
440C80
4C0080
880080
880080
880080
480080
4C0C80
67F900
20E100
100200
0C0C00
03F000
ENDCHAR
STARTCHAR 00AA
ENCODING 170
SWIDTH 375 0
DWIDTH 9 0
BBX 7 10 1 8
BITMAP
7A
C6
86
82
82
C6
7A
00
00
FE
ENDCHAR
STARTCHAR 00AB
ENCODING 171
SWIDTH 416 0
DWIDTH 10 0
BBX 8 10 1 2
BITMAP
31
33
66
66
CC
CC
66
66
33
31
ENDCHAR
STARTCHAR 00AC
ENCODING 172
SWIDTH 625 0
DWIDTH 15 0
BBX 12 5 1 4
BITMAP
FFF0
FFF0
0030
0030
0030
ENDCHAR
STARTCHAR 00AD
ENCODING 173
SWIDTH 333 0
DWIDTH 8 0
BBX 6 2 1 5
BITMAP
FC
FC
ENDCHAR
STARTCHAR 00AE
ENCODING 174
SWIDTH 750 0
DWIDTH 18 0
BBX 17 17 0 0
BITMAP
03F000
0C0C00
100200
200100
67F100
461080
461880
861880
863080
86E080
464080
466080
663100
261900
100200
0C0C00
03F000
ENDCHAR
STARTCHAR 00AF
ENCODING 175
SWIDTH 500 0
DWIDTH 12 0
BBX 8 2 2 15
BITMAP
FF
FF
ENDCHAR
STARTCHAR 00B0
ENCODING 176
SWIDTH 416 0
DWIDTH 10 0
BBX 7 7 1 9
BITMAP
7C
46
C2
C2
C2
6E
3C
ENDCHAR
STARTCHAR 00B1
ENCODING 177
SWIDTH 625 0
DWIDTH 15 0
BBX 12 13 1 0
BITMAP
0600
0600
0600
0600
FFF0
FFF0
0600
0600
0600
0600
0000
FFF0
FFF0
ENDCHAR
STARTCHAR 00B2
ENCODING 178
SWIDTH 333 0
DWIDTH 8 0
BBX 8 11 0 7
BITMAP
3C
66
43
C3
02
06
0C
18
30
60
FF
ENDCHAR
STARTCHAR 00B3
ENCODING 179
SWIDTH 333 0
DWIDTH 8 0
BBX 8 11 0 7
BITMAP
3C
66
66
06
1C
0E
03
03
C3
66
3C
ENDCHAR
STARTCHAR 00B4
ENCODING 180
SWIDTH 375 0
DWIDTH 9 0
BBX 5 4 3 14
BITMAP
18
38
E0
80
ENDCHAR
STARTCHAR 00B5
ENCODING 181
SWIDTH 625 0
DWIDTH 15 0
BBX 12 17 1 -4
BITMAP
C030
C030
C030
C030
C030
C030
C030
C030
C030
E030
E070
D8F0
CFB0
C000
C000
C000
C000
ENDCHAR
STARTCHAR 00B6
ENCODING 182
SWIDTH 583 0
DWIDTH 14 0
BBX 11 21 1 -3
BITMAP
3FE0
7FE0
FC60
FC60
FC60
FC60
FC60
7C60
3C60
0C60
0C60
0C60
0C60
0C60
0C60
0C60
0C60
0C60
0C60
0C60
0C60
ENDCHAR
STARTCHAR 00B7
ENCODING 183
SWIDTH 291 0
DWIDTH 7 0
BBX 3 3 2 5
BITMAP
C0
E0
C0
ENDCHAR
STARTCHAR 00B8
ENCODING 184
SWIDTH 333 0
DWIDTH 8 0
BBX 5 6 2 -6
BITMAP
40
70
18
18
D8
70
ENDCHAR
STARTCHAR 00B9
ENCODING 185
SWIDTH 333 0
DWIDTH 8 0
BBX 4 11 2 7
BITMAP
F0
30
30
30
30
30
30
30
30
30
30
ENDCHAR
STARTCHAR 00BA
ENCODING 186
SWIDTH 375 0
DWIDTH 9 0
BBX 7 10 1 8
BITMAP
38
C4
82
82
82
C4
7C
00
00
FE
ENDCHAR
STARTCHAR 00BB
ENCODING 187
SWIDTH 416 0
DWIDTH 10 0
BBX 8 10 1 2
BITMAP
C4
CC
66
62
33
33
62
66
CC
C4
ENDCHAR
STARTCHAR 00BC
ENCODING 188
SWIDTH 833 0
DWIDTH 20 0
BBX 17 18 2 0
BITMAP
F01000
301000
302000
302000
306000
304000
30C000
308300
318300
310700
330D00
020900
021900
043100
046100
0C7F80
080100
180100
ENDCHAR
STARTCHAR 00BD
ENCODING 189
SWIDTH 833 0
DWIDTH 20 0
BBX 18 18 2 0
BITMAP
F01000
303000
302000
302000
304000
304000
308000
309F00
319980
313080
3330C0
020080
060180
040300
040600
081C00
083000
103F80
ENDCHAR
STARTCHAR 00BE
ENCODING 190
SWIDTH 833 0
DWIDTH 20 0
BBX 19 18 0 0
BITMAP
3C0200
660600
660400
060C00
1C0800
0E1800
021000
0310C0
C320C0
6621C0
3C4340
004240
00C640
008C40
019840
011FE0
030040
020040
ENDCHAR
STARTCHAR 00BF
ENCODING 191
SWIDTH 583 0
DWIDTH 14 0
BBX 11 18 2 -5
BITMAP
0C00
0C00
0C00
0000
0000
0C00
0C00
1800
3000
6000
C000
C000
8060
8060
C0C0
E0C0
7F80
3F00
ENDCHAR
STARTCHAR 00C0
ENCODING 192
SWIDTH 750 0
DWIDTH 18 0
BBX 17 23 0 0
BITMAP
020000
078000
01C000
004000
000000
00C000
01E000
01E000
036000
033000
023000
061800
061800
0C1800
0C0C00
1FFC00
1FFE00
180600
300300
300300
600300
600180
C00180
ENDCHAR
STARTCHAR 00C1
ENCODING 193
SWIDTH 750 0
DWIDTH 18 0
BBX 17 23 0 0
BITMAP
001000
007000
01E000
008000
000000
00C000
01E000
01E000
036000
033000
023000
061800
061800
0C1800
0C0C00
1FFC00
1FFE00
180600
300300
300300
600300
600180
C00180
ENDCHAR
STARTCHAR 00C2
ENCODING 194
SWIDTH 750 0
DWIDTH 18 0
BBX 17 22 0 0
BITMAP
00C000
03E000
063800
000000
00C000
01E000
01E000
036000
033000
023000
061800
061800
0C1800
0C0C00
1FFC00
1FFE00
180600
300300
300300
600300
600180
C00180
ENDCHAR
STARTCHAR 00C3
ENCODING 195
SWIDTH 750 0
DWIDTH 18 0
BBX 17 22 0 0
BITMAP
039000
03F000
002000
000000
00C000
01E000
01E000
036000
033000
023000
061800
061800
0C1800
0C0C00
1FFC00
1FFE00
180600
300300
300300
600300
600180
C00180
ENDCHAR
STARTCHAR 00C4
ENCODING 196
SWIDTH 750 0
DWIDTH 18 0
BBX 17 22 0 0
BITMAP
033000
033000
033000
000000
00C000
01E000
01E000
036000
033000
023000
061800
061800
0C1800
0C0C00
1FFC00
1FFE00
180600
300300
300300
600300
600180
C00180
ENDCHAR
STARTCHAR 00C5
ENCODING 197
SWIDTH 750 0
DWIDTH 18 0
BBX 17 23 0 0
BITMAP
01E000
012000
032000
016000
00C000
00C000
01E000
01E000
036000
033000
023000
061800
061800
0C1800
0C0C00
1FFC00
1FFE00
180600
300300
300300
600300
600180
C00180
ENDCHAR
STARTCHAR 00C6
ENCODING 198
SWIDTH 1000 0
DWIDTH 24 0
BBX 21 18 1 0
BITMAP
001FF8
003FF8
003C00
006C00
00EC00
00CC00
018C00
038C00
030FF8
060FF8
0FFC00
0FFC00
180C00
300C00
300C00
600C00
C00FF8
C00FF8
ENDCHAR
STARTCHAR 00C7
ENCODING 199
SWIDTH 833 0
DWIDTH 20 0
BBX 17 24 1 -6
BITMAP
03F000
0FFE00
1C0700
300380
600180
600000
C00000
C00000
C00000
C00000
C00000
C00000
600000
600180
300380
1C0700
0FFE00
03F800
008000
00F000
001000
001000
00B000
00E000
ENDCHAR
STARTCHAR 00C8
ENCODING 200
SWIDTH 541 0
DWIDTH 13 0
BBX 10 23 2 0
BITMAP
2000
7000
1C00
0400
0000
FFC0
FFC0
C000
C000
C000
C000
C000
C000
FF80
FF80
C000
C000
C000
C000
C000
C000
FFC0
FFC0
ENDCHAR
STARTCHAR 00C9
ENCODING 201
SWIDTH 541 0
DWIDTH 13 0
BBX 10 23 2 0
BITMAP
0100
0700
1C00
1800
0000
FFC0
FFC0
C000
C000
C000
C000
C000
C000
FF80
FF80
C000
C000
C000
C000
C000
C000
FFC0
FFC0
ENDCHAR
STARTCHAR 00CA
ENCODING 202
SWIDTH 541 0
DWIDTH 13 0
BBX 10 22 2 0
BITMAP
1C00
3600
6300
0000
FFC0
FFC0
C000
C000
C000
C000
C000
C000
FF80
FF80
C000
C000
C000
C000
C000
C000
FFC0
FFC0
ENDCHAR
STARTCHAR 00CB
ENCODING 203
SWIDTH 541 0
DWIDTH 13 0
BBX 10 22 2 0
BITMAP
3200
3200
3200
0000
FFC0
FFC0
C000
C000
C000
C000
C000
C000
FF80
FF80
C000
C000
C000
C000
C000
C000
FFC0
FFC0
ENDCHAR
STARTCHAR 00CC
ENCODING 204
SWIDTH 208 0
DWIDTH 5 0
BBX 5 23 -1 0
BITMAP
C0
E0
38
08
00
18
18
18
18
18
18
18
18
18
18
18
18
18
18
18
18
18
18
ENDCHAR
STARTCHAR 00CD
ENCODING 205
SWIDTH 208 0
DWIDTH 5 0
BBX 5 23 1 0
BITMAP
08
38
E0
C0
00
60
60
60
60
60
60
60
60
60
60
60
60
60
60
60
60
60
60
ENDCHAR
STARTCHAR 00CE
ENCODING 206
SWIDTH 208 0
DWIDTH 5 0
BBX 7 22 -1 0
BITMAP
38
6C
C6
00
18
18
18
18
18
18
18
18
18
18
18
18
18
18
18
18
18
18
ENDCHAR
STARTCHAR 00CF
ENCODING 207
SWIDTH 208 0
DWIDTH 5 0
BBX 5 22 0 0
BITMAP
C8
C8
C8
00
30
30
30
30
30
30
30
30
30
30
30
30
30
30
30
30
30
30
ENDCHAR
STARTCHAR 00D0
ENCODING 208
SWIDTH 791 0
DWIDTH 19 0
BBX 17 18 1 0
BITMAP
3FE000
3FF800
301C00
300600
300300
300300
300180
300180
FF8180
FF8180
300180
300180
300300
300300
300600
301C00
3FF800
3FE000
ENDCHAR
STARTCHAR 00D1
ENCODING 209
SWIDTH 750 0
DWIDTH 18 0
BBX 14 22 2 0
BITMAP
0E40
0FC0
0080
0000
E00C
E00C
F00C
F80C
D80C
CC0C
CE0C
C60C
C30C
C38C
C18C
C0CC
C0EC
C06C
C03C
C03C
C01C
C00C
ENDCHAR
STARTCHAR 00D2
ENCODING 210
SWIDTH 875 0
DWIDTH 21 0
BBX 19 23 1 0
BITMAP
020000
038000
00E000
002000
000000
03F000
0FFE00
1C0700
300380
600180
6000C0
C00040
C00060
C00060
C00060
C00060
C00040
6000C0
6001C0
300380
1C0700
0FFE00
03F800
ENDCHAR
STARTCHAR 00D3
ENCODING 211
SWIDTH 875 0
DWIDTH 21 0
BBX 19 23 1 0
BITMAP
001800
003800
00E000
008000
000000
03F000
0FFE00
1C0700
300380
600180
6000C0
C00040
C00060
C00060
C00060
C00060
C00040
6000C0
6001C0
300380
1C0700
0FFE00
03F800
ENDCHAR
STARTCHAR 00D4
ENCODING 212
SWIDTH 875 0
DWIDTH 21 0
BBX 19 22 1 0
BITMAP
00E000
01B000
031800
000000
03F000
0FFE00
1C0700
300380
600180
6000C0
C00040
C00060
C00060
C00060
C00060
C00040
6000C0
6001C0
300380
1C0700
0FFE00
03F800
ENDCHAR
STARTCHAR 00D5
ENCODING 213
SWIDTH 875 0
DWIDTH 21 0
BBX 19 21 1 1
BITMAP
03F800
002000
000000
03F000
0FFE00
1C0700
300380
600180
6000C0
C00040
C00060
C00060
C00060
C00060
C00040
6000C0
6001C0
300380
1C0700
0FFE00
03F800
ENDCHAR
STARTCHAR 00D6
ENCODING 214
SWIDTH 875 0
DWIDTH 21 0
BBX 19 22 1 0
BITMAP
01B000
01B000
01B000
000000
03F000
0FFE00
1C0700
300380
600180
6000C0
C00040
C00060
C00060
C00060
C00060
C00040
6000C0
6001C0
300380
1C0700
0FFE00
03F800
ENDCHAR
STARTCHAR 00D7
ENCODING 215
SWIDTH 625 0
DWIDTH 15 0
BBX 9 10 3 1
BITMAP
8100
C380
6700
3E00
1C00
1C00
3E00
6700
C380
8100
ENDCHAR
STARTCHAR 00D8
ENCODING 216
SWIDTH 875 0
DWIDTH 21 0
BBX 19 22 1 -2
BITMAP
000080
0001C0
03F180
0FFF00
1C0700
300780
600DC0
6018C0
C03040
C03060
C06060
C0C060
C18060
C380C0
6300C0
6601C0
3C0380
1C0700
1FFE00
33F800
600000
200000
ENDCHAR
STARTCHAR 00D9
ENCODING 217
SWIDTH 666 0
DWIDTH 16 0
BBX 12 23 2 0
BITMAP
1000
3C00
0E00
0200
0000
C030
C030
C030
C030
C030
C030
C030
C030
C030
C030
C030
C030
C030
C030
C060
6060
3FC0
1F80
ENDCHAR
STARTCHAR 00DA
ENCODING 218
SWIDTH 666 0
DWIDTH 16 0
BBX 12 23 2 0
BITMAP
0080
0380
0F00
0400
0000
C030
C030
C030
C030
C030
C030
C030
C030
C030
C030
C030
C030
C030
C030
C060
6060
3FC0
1F80
ENDCHAR
STARTCHAR 00DB
ENCODING 219
SWIDTH 666 0
DWIDTH 16 0
BBX 12 22 2 0
BITMAP
0E00
1F00
31C0
0000
C030
C030
C030
C030
C030
C030
C030
C030
C030
C030
C030
C030
C030
C030
C060
6060
3FC0
1F80
ENDCHAR
STARTCHAR 00DC
ENCODING 220
SWIDTH 666 0
DWIDTH 16 0
BBX 12 22 2 0
BITMAP
1980
1980
1980
0000
C030
C030
C030
C030
C030
C030
C030
C030
C030
C030
C030
C030
C030
C030
C060
6060
3FC0
1F80
ENDCHAR
STARTCHAR 00DD
ENCODING 221
SWIDTH 583 0
DWIDTH 14 0
BBX 14 23 0 0
BITMAP
0040
01C0
0380
0200
0000
C00C
6018
6018
3030
3030
1860
1860
0CC0
0CC0
0780
0780
0300
0300
0300
0300
0300
0300
0300
ENDCHAR
STARTCHAR 00DE
ENCODING 222
SWIDTH 583 0
DWIDTH 14 0
BBX 12 18 2 0
BITMAP
8000
8000
8000
FE00
FFC0
C0E0
C060
C020
C030
C030
C060
C060
FFC0
FF80
C000
C000
C000
C000
ENDCHAR
STARTCHAR 00DF
ENCODING 223
SWIDTH 541 0
DWIDTH 13 0
BBX 12 18 1 0
BITMAP
1F00
3F80
60C0
60C0
C040
C0C0
C0C0
C1C0
CF00
CFC0
C060
C060
C030
E030
F060
F060
DFC0
CF80
ENDCHAR
STARTCHAR 00E0
ENCODING 224
SWIDTH 666 0
DWIDTH 16 0
BBX 14 18 1 0
BITMAP
0800
1E00
0700
0100
0000
0F8C
3FEC
703C
601C
C00C
C00C
C00C
C00C
C00C
601C
703C
3CEC
0FCC
ENDCHAR
STARTCHAR 00E1
ENCODING 225
SWIDTH 666 0
DWIDTH 16 0
BBX 14 18 1 0
BITMAP
0040
01C0
0780
0200
0000
0F8C
3FEC
703C
601C
C00C
C00C
C00C
C00C
C00C
601C
703C
3CEC
0FCC
ENDCHAR
STARTCHAR 00E2
ENCODING 226
SWIDTH 666 0
DWIDTH 16 0
BBX 14 17 1 0
BITMAP
0300
0F80
18E0
0000
0F8C
3FEC
703C
601C
C00C
C00C
C00C
C00C
C00C
601C
703C
3CEC
0FCC
ENDCHAR
STARTCHAR 00E3
ENCODING 227
SWIDTH 666 0
DWIDTH 16 0
BBX 14 17 1 0
BITMAP
0E40
0FC0
0080
0000
0F8C
3FEC
703C
601C
C00C
C00C
C00C
C00C
C00C
601C
703C
3CEC
0FCC
ENDCHAR
STARTCHAR 00E4
ENCODING 228
SWIDTH 666 0
DWIDTH 16 0
BBX 14 17 1 0
BITMAP
0CC0
0CC0
0CC0
0000
0F8C
3FEC
703C
601C
C00C
C00C
C00C
C00C
C00C
601C
703C
3CEC
0FCC
ENDCHAR
STARTCHAR 00E5
ENCODING 229
SWIDTH 666 0
DWIDTH 16 0
BBX 14 18 1 0
BITMAP
0700
0480
0C80
0480
0700
0F8C
3FEC
703C
601C
C00C
C00C
C00C
C00C
C00C
601C
703C
3CEC
0FCC
ENDCHAR
STARTCHAR 00E6
ENCODING 230
SWIDTH 1166 0
DWIDTH 28 0
BBX 26 13 1 0
BITMAP
0FCCFC00
3CEDC600
703F0300
601E0180
C00C0080
C00FFFC0
C00FFFC0
C00C0040
C00C0000
601E0180
703F0300
3FEDFE00
0FCCFC00
ENDCHAR
STARTCHAR 00E7
ENCODING 231
SWIDTH 666 0
DWIDTH 16 0
BBX 13 19 1 -6
BITMAP
0FC0
3FE0
7038
6018
C000
C000
C000
C000
C000
6018
7038
3FF0
0FC0
0200
03C0
0040
0040
06C0
0380
ENDCHAR
STARTCHAR 00E8
ENCODING 232
SWIDTH 666 0
DWIDTH 16 0
BBX 14 18 1 0
BITMAP
0800
1E00
0700
0100
0000
0FC0
3FE0
7030
6018
C008
FFFC
FFFC
C000
C000
6018
7030
1FE0
0F80
ENDCHAR
STARTCHAR 00E9
ENCODING 233
SWIDTH 666 0
DWIDTH 16 0
BBX 14 18 1 0
BITMAP
0040
01C0
0700
0600
0000
0FC0
3FE0
7030
6018
C008
FFFC
FFFC
C000
C000
6018
7030
1FE0
0F80
ENDCHAR
STARTCHAR 00EA
ENCODING 234
SWIDTH 666 0
DWIDTH 16 0
BBX 14 17 1 0
BITMAP
0700
0F80
18E0
0000
0FC0
3FE0
7030
6018
C008
FFFC
FFFC
C000
C000
6018
7030
1FE0
0F80
ENDCHAR
STARTCHAR 00EB
ENCODING 235
SWIDTH 666 0
DWIDTH 16 0
BBX 14 17 1 0
BITMAP
0C80
0C80
0C80
0000
0FC0
3FE0
7030
6018
C008
FFFC
FFFC
C000
C000
6018
7030
1FE0
0F80
ENDCHAR
STARTCHAR 00EC
ENCODING 236
SWIDTH 208 0
DWIDTH 5 0
BBX 5 18 -1 0
BITMAP
80
E0
78
18
00
30
30
30
30
30
30
30
30
30
30
30
30
30
ENDCHAR
STARTCHAR 00ED
ENCODING 237
SWIDTH 208 0
DWIDTH 5 0
BBX 5 18 1 0
BITMAP
18
38
E0
80
00
C0
C0
C0
C0
C0
C0
C0
C0
C0
C0
C0
C0
C0
ENDCHAR
STARTCHAR 00EE
ENCODING 238
SWIDTH 208 0
DWIDTH 5 0
BBX 7 17 -1 0
BITMAP
38
6C
C6
00
30
30
30
30
30
30
30
30
30
30
30
30
30
ENDCHAR
STARTCHAR 00EF
ENCODING 239
SWIDTH 208 0
DWIDTH 5 0
BBX 5 17 0 0
BITMAP
D8
D8
D8
00
60
60
60
60
60
60
60
60
60
60
60
60
60
ENDCHAR
STARTCHAR 00F0
ENCODING 240
SWIDTH 666 0
DWIDTH 16 0
BBX 14 18 1 0
BITMAP
0C00
07C0
0700
0D80
00C0
0FE0
3FF0
7038
6018
C008
C00C
C00C
C00C
C018
6018
7030
3FE0
0FC0
ENDCHAR
STARTCHAR 00F1
ENCODING 241
SWIDTH 625 0
DWIDTH 15 0
BBX 12 17 1 0
BITMAP
0F80
1F80
0000
0000
CF80
D9E0
E060
E030
C030
C030
C030
C030
C030
C030
C030
C030
C030
ENDCHAR
STARTCHAR 00F2
ENCODING 242
SWIDTH 666 0
DWIDTH 16 0
BBX 14 18 1 0
BITMAP
0800
1E00
0700
0100
0000
0FC0
3FE0
7030
6018
C018
C00C
C00C
C00C
C008
6018
7030
3FE0
0FC0
ENDCHAR
STARTCHAR 00F3
ENCODING 243
SWIDTH 666 0
DWIDTH 16 0
BBX 14 18 1 0
BITMAP
0040
01C0
0780
0200
0000
0FC0
3FE0
7030
6018
C018
C00C
C00C
C00C
C008
6018
7030
3FE0
0FC0
ENDCHAR
STARTCHAR 00F4
ENCODING 244
SWIDTH 666 0
DWIDTH 16 0
BBX 14 17 1 0
BITMAP
0300
0F80
18E0
0000
0FC0
3FE0
7030
6018
C018
C00C
C00C
C00C
C008
6018
7030
3FE0
0FC0
ENDCHAR
STARTCHAR 00F5
ENCODING 245
SWIDTH 666 0
DWIDTH 16 0
BBX 14 17 1 0
BITMAP
0E40
0FC0
0080
0000
0FC0
3FE0
7030
6018
C018
C00C
C00C
C00C
C008
6018
7030
3FE0
0FC0
ENDCHAR
STARTCHAR 00F6
ENCODING 246
SWIDTH 666 0
DWIDTH 16 0
BBX 14 17 1 0
BITMAP
0CC0
0CC0
0CC0
0000
0FC0
3FE0
7030
6018
C018
C00C
C00C
C00C
C008
6018
7030
3FE0
0FC0
ENDCHAR
STARTCHAR 00F7
ENCODING 247
SWIDTH 625 0
DWIDTH 15 0
BBX 12 12 1 0
BITMAP
0600
0700
0600
0000
0000
FFF0
FFF0
0000
0000
0600
0700
0600
ENDCHAR
STARTCHAR 00F8
ENCODING 248
SWIDTH 666 0
DWIDTH 16 0
BBX 14 15 1 -1
BITMAP
0010
0F98
3FF0
7070
60D8
C1C8
C18C
C30C
C60C
CC18
7818
7830
3FE0
6FC0
4000
ENDCHAR
STARTCHAR 00F9
ENCODING 249
SWIDTH 625 0
DWIDTH 15 0
BBX 12 18 1 0
BITMAP
1000
1C00
0700
0300
0000
C030
C030
C030
C030
C030
C030
C030
4030
4030
6030
6070
39F0
1FB0
ENDCHAR
STARTCHAR 00FA
ENCODING 250
SWIDTH 625 0
DWIDTH 15 0
BBX 12 18 1 0
BITMAP
0080
01C0
0700
0400
0000
C030
C030
C030
C030
C030
C030
C030
4030
4030
6030
6070
39F0
1FB0
ENDCHAR
STARTCHAR 00FB
ENCODING 251
SWIDTH 625 0
DWIDTH 15 0
BBX 12 17 1 0
BITMAP
0700
0D80
18C0
0000
C030
C030
C030
C030
C030
C030
C030
4030
4030
6030
6070
39F0
1FB0
ENDCHAR
STARTCHAR 00FC
ENCODING 252
SWIDTH 625 0
DWIDTH 15 0
BBX 12 17 1 0
BITMAP
0980
0980
0980
0000
C030
C030
C030
C030
C030
C030
C030
4030
4030
6030
6070
39F0
1FB0
ENDCHAR
STARTCHAR 00FD
ENCODING 253
SWIDTH 541 0
DWIDTH 13 0
BBX 12 23 0 -5
BITMAP
00C0
01C0
0700
0400
0000
C010
6030
6030
3060
3060
30C0
18C0
1880
0980
0D80
0F00
0700
0600
0600
0600
0C00
0C00
1800
ENDCHAR
STARTCHAR 00FE
ENCODING 254
SWIDTH 666 0
DWIDTH 16 0
BBX 14 22 1 -4
BITMAP
C000
C000
C000
C000
C000
C7C0
DFF0
F838
E01C
E00C
C00C
C004
C00C
C00C
E01C
F038
DDF0
C7C0
C000
C000
C000
C000
ENDCHAR
STARTCHAR 00FF
ENCODING 255
SWIDTH 541 0
DWIDTH 13 0
BBX 12 22 0 -5
BITMAP
0D80
0D80
0D80
0000
C010
6030
6030
3060
3060
30C0
18C0
1880
0980
0D80
0F00
0700
0600
0600
0600
0C00
0C00
1800
ENDCHAR
STARTCHAR 0100
ENCODING 256
SWIDTH 750 0
DWIDTH 18 0
BBX 17 22 0 0
BITMAP
07F800
07F800
000000
000000
00C000
01E000
01E000
036000
033000
023000
061800
061800
0C1800
0C0C00
1FFC00
1FFE00
180600
300300
300300
600300
600180
C00180
ENDCHAR
STARTCHAR 0101
ENCODING 257
SWIDTH 666 0
DWIDTH 16 0
BBX 14 17 1 0
BITMAP
1FE0
1FE0
0000
0000
0F8C
3FEC
703C
601C
C00C
C00C
C00C
C00C
C00C
601C
703C
3CEC
0FCC
ENDCHAR
STARTCHAR 0102
ENCODING 258
SWIDTH 750 0
DWIDTH 18 0
BBX 17 22 0 0
BITMAP
061000
033000
01E000
000000
00C000
01E000
01E000
036000
033000
023000
061800
061800
0C1800
0C0C00
1FFC00
1FFE00
180600
300300
300300
600300
600180
C00180
ENDCHAR
STARTCHAR 0103
ENCODING 259
SWIDTH 666 0
DWIDTH 16 0
BBX 14 17 1 0
BITMAP
1840
0CC0
0780
0000
0F8C
3FEC
703C
601C
C00C
C00C
C00C
C00C
C00C
601C
703C
3CEC
0FCC
ENDCHAR
STARTCHAR 0104
ENCODING 260
SWIDTH 750 0
DWIDTH 18 0
BBX 18 24 0 -6
BITMAP
00C000
01E000
01E000
036000
033000
023000
061800
061800
0C1800
0C0C00
1FFC00
1FFE00
180600
300300
300300
600300
600180
C00180
000180
000300
000300
000300
0003C0
0001C0
ENDCHAR
STARTCHAR 0105
ENCODING 261
SWIDTH 666 0
DWIDTH 16 0
BBX 14 19 1 -6
BITMAP
0F8C
3FEC
703C
601C
C00C
C00C
C00C
C00C
C00C
601C
703C
3CEC
0FCC
0018
0030
0030
0030
001C
000C
ENDCHAR
STARTCHAR 0106
ENCODING 262
SWIDTH 833 0
DWIDTH 20 0
BBX 17 23 1 0
BITMAP
001000
007800
00E000
008000
000000
03F000
0FFE00
1C0700
300380
600180
600000
C00000
C00000
C00000
C00000
C00000
C00000
600000
600180
300380
1C0700
0FFE00
03F800
ENDCHAR
STARTCHAR 0107
ENCODING 263
SWIDTH 666 0
DWIDTH 16 0
BBX 13 18 1 0
BITMAP
0040
01C0
0380
0200
0000
0FC0
3FE0
7038
6018
C000
C000
C000
C000
C000
6018
7038
1FF0
0FC0
ENDCHAR
STARTCHAR 0108
ENCODING 264
SWIDTH 833 0
DWIDTH 20 0
BBX 17 22 1 0
BITMAP
00E000
01B000
031800
000000
03F000
0FFE00
1C0700
300380
600180
600000
C00000
C00000
C00000
C00000
C00000
C00000
600000
600180
300380
1C0700
0FFE00
03F800
ENDCHAR
STARTCHAR 0109
ENCODING 265
SWIDTH 666 0
DWIDTH 16 0
BBX 13 17 1 0
BITMAP
0300
07C0
1C60
0000
0FC0
3FE0
7038
6018
C000
C000
C000
C000
C000
6018
7038
1FF0
0FC0
ENDCHAR
STARTCHAR 010A
ENCODING 266
SWIDTH 833 0
DWIDTH 20 0
BBX 17 22 1 0
BITMAP
00C000
00C000
00C000
000000
03F000
0FFE00
1C0700
300380
600180
600000
C00000
C00000
C00000
C00000
C00000
C00000
600000
600180
300380
1C0700
0FFE00
03F800
ENDCHAR
STARTCHAR 010B
ENCODING 267
SWIDTH 666 0
DWIDTH 16 0
BBX 13 17 1 0
BITMAP
0300
0300
0300
0000
0FC0
3FE0
7038
6018
C000
C000
C000
C000
C000
6018
7038
1FF0
0FC0
ENDCHAR
STARTCHAR 010C
ENCODING 268
SWIDTH 833 0
DWIDTH 20 0
BBX 17 22 1 0
BITMAP
031800
01F000
00E000
000000
03F000
0FFE00
1C0700
300380
600180
600000
C00000
C00000
C00000
C00000
C00000
C00000
600000
600180
300380
1C0700
0FFE00
03F800
ENDCHAR
STARTCHAR 010D
ENCODING 269
SWIDTH 666 0
DWIDTH 16 0
BBX 13 17 1 0
BITMAP
1CE0
0FC0
0300
0000
0FC0
3FE0
7038
6018
C000
C000
C000
C000
C000
6018
7038
1FF0
0FC0
ENDCHAR
STARTCHAR 010E
ENCODING 270
SWIDTH 750 0
DWIDTH 18 0
BBX 15 22 2 0
BITMAP
7180
1F00
0E00
0000
FF80
FFE0
C070
C018
C00C
C00C
C004
C006
C006
C006
C006
C006
C00C
C00C
C018
C070
FFE0
FF80
ENDCHAR
STARTCHAR 010F
ENCODING 271
SWIDTH 666 0
DWIDTH 16 0
BBX 18 18 1 0
BITMAP
000CC0
000CC0
000CC0
000C80
000C00
0FCC00
3FEC00
701C00
601C00
C00C00
C00C00
C00C00
C00C00
C00C00
601C00
703C00
1CEC00
0FCC00
ENDCHAR
STARTCHAR 0110
ENCODING 272
SWIDTH 791 0
DWIDTH 19 0
BBX 17 18 1 0
BITMAP
3FE000
3FF800
301C00
300600
300300
300300
300180
300180
FF8180
FF8180
300180
300180
300300
300300
300600
301C00
3FF800
3FE000
ENDCHAR
STARTCHAR 0111
ENCODING 273
SWIDTH 666 0
DWIDTH 16 0
BBX 15 18 1 0
BITMAP
000C
000C
00FE
00FE
000C
0FCC
3FEC
703C
601C
C00C
C00C
C00C
C00C
C00C
601C
703C
1FEC
0FCC
ENDCHAR
STARTCHAR 0112
ENCODING 274
SWIDTH 541 0
DWIDTH 13 0
BBX 10 22 2 0
BITMAP
7F80
7F80
0000
0000
FFC0
FFC0
C000
C000
C000
C000
C000
C000
FF80
FF80
C000
C000
C000
C000
C000
C000
FFC0
FFC0
ENDCHAR
STARTCHAR 0113
ENCODING 275
SWIDTH 666 0
DWIDTH 16 0
BBX 14 17 1 0
BITMAP
1FE0
1FE0
0000
0000
0FC0
3FE0
7030
6018
C008
FFFC
FFFC
C000
C000
6018
7030
1FE0
0F80
ENDCHAR
STARTCHAR 0114
ENCODING 276
SWIDTH 541 0
DWIDTH 13 0
BBX 10 22 2 0
BITMAP
6100
3700
1E00
0000
FFC0
FFC0
C000
C000
C000
C000
C000
C000
FF80
FF80
C000
C000
C000
C000
C000
C000
FFC0
FFC0
ENDCHAR
STARTCHAR 0115
ENCODING 277
SWIDTH 666 0
DWIDTH 16 0
BBX 14 17 1 0
BITMAP
1840
0CC0
0780
0000
0FC0
3FE0
7030
6018
C008
FFFC
FFFC
C000
C000
6018
7030
1FE0
0F80
ENDCHAR
STARTCHAR 0116
ENCODING 278
SWIDTH 541 0
DWIDTH 13 0
BBX 10 22 2 0
BITMAP
0C00
0C00
0C00
0000
FFC0
FFC0
C000
C000
C000
C000
C000
C000
FF80
FF80
C000
C000
C000
C000
C000
C000
FFC0
FFC0
ENDCHAR
STARTCHAR 0117
ENCODING 279
SWIDTH 666 0
DWIDTH 16 0
BBX 14 17 1 0
BITMAP
0300
0300
0300
0000
0FC0
3FE0
7030
6018
C008
FFFC
FFFC
C000
C000
6018
7030
1FE0
0F80
ENDCHAR
STARTCHAR 0118
ENCODING 280
SWIDTH 541 0
DWIDTH 13 0
BBX 10 24 2 -6
BITMAP
FFC0
FFC0
C000
C000
C000
C000
C000
C000
FF80
FF80
C000
C000
C000
C000
C000
C000
FFC0
FFC0
0180
0300
0300
0300
03C0
01C0
ENDCHAR
STARTCHAR 0119
ENCODING 281
SWIDTH 666 0
DWIDTH 16 0
BBX 14 19 1 -6
BITMAP
0FC0
3FE0
7030
6018
C008
FFFC
FFFC
C000
C000
6018
7030
1FE0
0FC0
0100
0300
0200
0300
03C0
01C0
ENDCHAR
STARTCHAR 011A
ENCODING 282
SWIDTH 541 0
DWIDTH 13 0
BBX 10 22 2 0
BITMAP
6300
3600
1C00
0000
FFC0
FFC0
C000
C000
C000
C000
C000
C000
FF80
FF80
C000
C000
C000
C000
C000
C000
FFC0
FFC0
ENDCHAR
STARTCHAR 011B
ENCODING 283
SWIDTH 666 0
DWIDTH 16 0
BBX 14 17 1 0
BITMAP
18C0
0D80
0700
0000
0FC0
3FE0
7030
6018
C008
FFFC
FFFC
C000
C000
6018
7030
1FE0
0F80
ENDCHAR
STARTCHAR 011C
ENCODING 284
SWIDTH 875 0
DWIDTH 21 0
BBX 19 22 1 0
BITMAP
00E000
01B000
031800
000000
03F800
0FFE00
1C0700
300180
6000C0
600000
C00000
C00000
C00000
C1FFE0
C1FFE0
C00060
6000C0
6000C0
300180
1C0700
0FFE00
01F800
ENDCHAR
STARTCHAR 011D
ENCODING 285
SWIDTH 666 0
DWIDTH 16 0
BBX 14 22 1 -5
BITMAP
0700
0D80
18C0
0000
0F8C
3FEC
703C
601C
C01C
C00C
C00C
C00C
C01C
601C
703C
3FEC
0F8C
4018
6018
3038
1FF0
0FC0
ENDCHAR
STARTCHAR 011E
ENCODING 286
SWIDTH 875 0
DWIDTH 21 0
BBX 19 22 1 0
BITMAP
021800
03B800
01F000
000000
03F800
0FFE00
1C0700
300180
6000C0
600000
C00000
C00000
C00000
C1FFE0
C1FFE0
C00060
6000C0
6000C0
300180
1C0700
0FFE00
01F800
ENDCHAR
STARTCHAR 011F
ENCODING 287
SWIDTH 666 0
DWIDTH 16 0
BBX 14 22 1 -5
BITMAP
1840
0DC0
0F80
0000
0F8C
3FEC
703C
601C
C01C
C00C
C00C
C00C
C01C
601C
703C
3FEC
0F8C
4018
6018
3038
1FF0
0FC0
ENDCHAR
STARTCHAR 0120
ENCODING 288
SWIDTH 875 0
DWIDTH 21 0
BBX 19 22 1 0
BITMAP
004000
004000
004000
000000
03F800
0FFE00
1C0700
300180
6000C0
600000
C00000
C00000
C00000
C1FFE0
C1FFE0
C00060
6000C0
6000C0
300180
1C0700
0FFE00
01F800
ENDCHAR
STARTCHAR 0121
ENCODING 289
SWIDTH 666 0
DWIDTH 16 0
BBX 14 22 1 -5
BITMAP
0300
0300
0300
0000
0F8C
3FEC
703C
601C
C01C
C00C
C00C
C00C
C01C
601C
703C
3FEC
0F8C
4018
6018
3038
1FF0
0FC0
ENDCHAR
STARTCHAR 0122
ENCODING 290
SWIDTH 875 0
DWIDTH 21 0
BBX 19 23 1 -5
BITMAP
03F800
0FFE00
1C0700
300180
6000C0
600000
C00000
C00000
C00000
C1FFE0
C1FFE0
C00060
6000C0
6000C0
300180
1C0700
0FFE00
01F800
000000
004000
00C000
00C000
00C000
ENDCHAR
STARTCHAR 0123
ENCODING 291
SWIDTH 666 0
DWIDTH 16 0
BBX 14 23 1 -5
BITMAP
0300
0300
0200
0600
0000
0F8C
3FEC
703C
601C
C01C
C00C
C00C
C00C
C01C
601C
703C
3FEC
0F8C
4018
6018
3038
1FF0
0FC0
ENDCHAR
STARTCHAR 0124
ENCODING 292
SWIDTH 666 0
DWIDTH 16 0
BBX 13 22 2 0
BITMAP
0700
0D80
18C0
0000
C018
C018
C018
C018
C018
C018
C018
C018
FFF8
FFF8
C018
C018
C018
C018
C018
C018
C018
C018
ENDCHAR
STARTCHAR 0125
ENCODING 293
SWIDTH 625 0
DWIDTH 15 0
BBX 12 22 1 0
BITMAP
0700
0D80
18C0
0000
C000
C000
C000
C000
C000
CF80
DFE0
F060
E030
C030
C030
C030
C030
C030
C030
C030
C030
C030
ENDCHAR
STARTCHAR 0126
ENCODING 294
SWIDTH 666 0
DWIDTH 16 0
BBX 16 18 0 0
BITMAP
3006
3006
FFFF
FFFF
3006
3006
3006
3006
3FFE
3FFE
3006
3006
3006
3006
3006
3006
3006
3006
ENDCHAR
STARTCHAR 0127
ENCODING 295
SWIDTH 625 0
DWIDTH 15 0
BBX 13 18 0 0
BITMAP
6000
6000
FC00
FC00
6000
67C0
6FF0
7830
7018
6018
6018
6018
6018
6018
6018
6018
6018
6018
ENDCHAR
STARTCHAR 0128
ENCODING 296
SWIDTH 208 0
DWIDTH 5 0
BBX 7 22 -1 0
BITMAP
72
FE
00
00
18
18
18
18
18
18
18
18
18
18
18
18
18
18
18
18
18
18
ENDCHAR
STARTCHAR 0129
ENCODING 297
SWIDTH 208 0
DWIDTH 5 0
BBX 6 17 -1 0
BITMAP
74
FC
00
00
30
30
30
30
30
30
30
30
30
30
30
30
30
ENDCHAR
STARTCHAR 012A
ENCODING 298
SWIDTH 208 0
DWIDTH 5 0
BBX 8 22 -1 0
BITMAP
FF
FF
00
00
18
18
18
18
18
18
18
18
18
18
18
18
18
18
18
18
18
18
ENDCHAR
STARTCHAR 012B
ENCODING 299
SWIDTH 208 0
DWIDTH 5 0
BBX 8 17 -2 0
BITMAP
FF
FF
00
00
18
18
18
18
18
18
18
18
18
18
18
18
18
ENDCHAR
STARTCHAR 012C
ENCODING 300
SWIDTH 208 0
DWIDTH 5 0
BBX 7 22 -1 0
BITMAP
C2
6E
7C
00
18
18
18
18
18
18
18
18
18
18
18
18
18
18
18
18
18
18
ENDCHAR
STARTCHAR 012D
ENCODING 301
SWIDTH 208 0
DWIDTH 5 0
BBX 7 17 -1 0
BITMAP
C6
7C
00
00
30
30
30
30
30
30
30
30
30
30
30
30
30
ENDCHAR
STARTCHAR 012E
ENCODING 302
SWIDTH 208 0
DWIDTH 5 0
BBX 4 24 0 -6
BITMAP
30
30
30
30
30
30
30
30
30
30
30
30
30
30
30
30
30
30
60
C0
C0
C0
F0
70
ENDCHAR
STARTCHAR 012F
ENCODING 303
SWIDTH 208 0
DWIDTH 5 0
BBX 4 23 0 -6
BITMAP
60
60
60
00
60
60
60
60
60
60
60
60
60
60
60
60
60
60
C0
80
80
F0
70
ENDCHAR
STARTCHAR 0130
ENCODING 304
SWIDTH 208 0
DWIDTH 5 0
BBX 2 22 2 0
BITMAP
C0
C0
C0
00
C0
C0
C0
C0
C0
C0
C0
C0
C0
C0
C0
C0
C0
C0
C0
C0
C0
C0
ENDCHAR
STARTCHAR 0131
ENCODING 305
SWIDTH 208 0
DWIDTH 5 0
BBX 2 13 1 0
BITMAP
C0
C0
C0
C0
C0
C0
C0
C0
C0
C0
C0
C0
C0
ENDCHAR
STARTCHAR 0132
ENCODING 306
SWIDTH 666 0
DWIDTH 16 0
BBX 14 18 1 0
BITMAP
C00C
C00C
C00C
C00C
C00C
C00C
C00C
C00C
C00C
C00C
C00C
C00C
C00C
CC08
CC18
C618
C7F0
C3E0
ENDCHAR
STARTCHAR 0133
ENCODING 307
SWIDTH 416 0
DWIDTH 10 0
BBX 7 22 1 -5
BITMAP
C6
C6
C6
00
C6
C6
C6
C6
C6
C6
C6
C6
C6
C6
C6
C6
C6
06
06
0E
1C
10
ENDCHAR
STARTCHAR 0134
ENCODING 308
SWIDTH 500 0
DWIDTH 12 0
BBX 13 22 0 0
BITMAP
01C0
03E0
0638
0000
00C0
00C0
00C0
00C0
00C0
00C0
00C0
00C0
00C0
00C0
00C0
00C0
00C0
C0C0
C080
6180
7F80
1E00
ENDCHAR
STARTCHAR 0135
ENCODING 309
SWIDTH 208 0
DWIDTH 5 0
BBX 7 22 -1 -5
BITMAP
38
6C
C6
00
10
10
10
10
10
10
10
10
10
10
10
10
10
30
30
30
E0
C0
ENDCHAR
STARTCHAR 0136
ENCODING 310
SWIDTH 583 0
DWIDTH 14 0
BBX 12 23 2 -5
BITMAP
C070
C060
C0C0
C180
C300
C700
C600
CC00
D800
FC00
FC00
E600
C300
C380
C180
C0C0
C060
C070
0000
0600
0400
0C00
0C00
ENDCHAR
STARTCHAR 0137
ENCODING 311
SWIDTH 500 0
DWIDTH 12 0
BBX 11 23 1 -5
BITMAP
C000
C000
C000
C000
C000
C0C0
C180
C380
C300
C600
CC00
DC00
DC00
F600
E300
C180
C1C0
C0E0
0000
0600
0C00
0C00
0C00
ENDCHAR
STARTCHAR 0139
ENCODING 313
SWIDTH 458 0
DWIDTH 11 0
BBX 10 23 1 0
BITMAP
0800
3800
E000
C000
0000
6000
6000
6000
6000
6000
6000
6000
6000
6000
6000
6000
6000
6000
6000
6000
6000
7FC0
7FC0
ENDCHAR
STARTCHAR 013A
ENCODING 314
SWIDTH 208 0
DWIDTH 5 0
BBX 5 23 1 0
BITMAP
18
38
E0
80
00
C0
C0
C0
C0
C0
C0
C0
C0
C0
C0
C0
C0
C0
C0
C0
C0
C0
C0
ENDCHAR
STARTCHAR 013B
ENCODING 315
SWIDTH 458 0
DWIDTH 11 0
BBX 9 23 2 -5
BITMAP
C000
C000
C000
C000
C000
C000
C000
C000
C000
C000
C000
C000
C000
C000
C000
C000
FF80
FF80
0000
0800
1800
1800
1800
ENDCHAR
STARTCHAR 013C
ENCODING 316
SWIDTH 208 0
DWIDTH 5 0
BBX 2 23 1 -5
BITMAP
C0
C0
C0
C0
C0
C0
C0
C0
C0
C0
C0
C0
C0
C0
C0
C0
C0
C0
00
40
C0
C0
C0
ENDCHAR
STARTCHAR 013D
ENCODING 317
SWIDTH 458 0
DWIDTH 11 0
BBX 9 18 2 0
BITMAP
CC00
CC00
C800
D800
C000
C000
C000
C000
C000
C000
C000
C000
C000
C000
C000
C000
FF80
FF80
ENDCHAR
STARTCHAR 013E
ENCODING 318
SWIDTH 208 0
DWIDTH 5 0
BBX 7 18 1 0
BITMAP
C6
C4
CC
CC
C0
C0
C0
C0
C0
C0
C0
C0
C0
C0
C0
C0
C0
C0
ENDCHAR
STARTCHAR 013F
ENCODING 319
SWIDTH 458 0
DWIDTH 11 0
BBX 9 18 2 0
BITMAP
C000
C000
C000
C000
C000
C000
C000
C600
C600
C600
C000
C000
C000
C000
C000
C000
FF80
FF80
ENDCHAR
STARTCHAR 0140
ENCODING 320
SWIDTH 291 0
DWIDTH 7 0
BBX 6 18 1 0
BITMAP
C0
C0
C0
C0
C0
C0
C0
CC
CC
CC
C0
C0
C0
C0
C0
C0
C0
C0
ENDCHAR
STARTCHAR 0141
ENCODING 321
SWIDTH 500 0
DWIDTH 12 0
BBX 11 18 1 0
BITMAP
3000
3000
3000
3000
3100
3300
3600
3C00
3800
7000
F000
B000
3000
3000
3000
3000
3FE0
3FE0
ENDCHAR
STARTCHAR 0142
ENCODING 322
SWIDTH 291 0
DWIDTH 7 0
BBX 5 18 1 0
BITMAP
30
30
30
30
30
30
38
38
70
F0
30
30
30
30
30
30
30
30
ENDCHAR
STARTCHAR 0143
ENCODING 323
SWIDTH 750 0
DWIDTH 18 0
BBX 14 23 2 0
BITMAP
0040
01C0
0780
0200
0000
E00C
E00C
F00C
F80C
D80C
CC0C
CE0C
C60C
C30C
C38C
C18C
C0CC
C0EC
C06C
C03C
C03C
C01C
C00C
ENDCHAR
STARTCHAR 0144
ENCODING 324
SWIDTH 625 0
DWIDTH 15 0
BBX 12 18 1 0
BITMAP
0080
01C0
0700
0400
0000
CF80
D9E0
E060
E030
C030
C030
C030
C030
C030
C030
C030
C030
C030
ENDCHAR
STARTCHAR 0145
ENCODING 325
SWIDTH 750 0
DWIDTH 18 0
BBX 14 23 2 -5
BITMAP
E00C
E00C
F00C
F80C
D80C
CC0C
CE0C
C60C
C30C
C38C
C18C
C0CC
C0EC
C06C
C03C
C03C
C01C
C00C
0000
0300
0300
0200
0600
ENDCHAR
STARTCHAR 0146
ENCODING 326
SWIDTH 625 0
DWIDTH 15 0
BBX 12 18 1 -5
BITMAP
CF80
D9E0
E060
E030
C030
C030
C030
C030
C030
C030
C030
C030
C030
0000
0200
0600
0600
0400
ENDCHAR
STARTCHAR 0147
ENCODING 327
SWIDTH 750 0
DWIDTH 18 0
BBX 14 22 2 0
BITMAP
18E0
0F80
0700
0000
E00C
E00C
F00C
F80C
D80C
CC0C
CE0C
C60C
C30C
C38C
C18C
C0CC
C0EC
C06C
C03C
C03C
C01C
C00C
ENDCHAR
STARTCHAR 0148
ENCODING 328
SWIDTH 625 0
DWIDTH 15 0
BBX 12 17 1 0
BITMAP
18C0
0D80
0700
0000
CF80
D9E0
E060
E030
C030
C030
C030
C030
C030
C030
C030
C030
C030
ENDCHAR
STARTCHAR 014A
ENCODING 330
SWIDTH 750 0
DWIDTH 18 0
BBX 14 24 2 -6
BITMAP
E00C
E00C
F00C
F80C
D80C
CC0C
CE0C
C60C
C30C
C38C
C18C
C0CC
C0EC
C06C
C03C
C03C
C01C
C00C
000C
0C0C
040C
0618
07F8
01F0
ENDCHAR
STARTCHAR 014B
ENCODING 331
SWIDTH 625 0
DWIDTH 15 0
BBX 12 18 1 -5
BITMAP
CF80
D9E0
E060
E030
C030
C030
C030
C030
C030
C030
C030
C030
C030
0030
0030
0070
00E0
00C0
ENDCHAR
STARTCHAR 014C
ENCODING 332
SWIDTH 875 0
DWIDTH 21 0
BBX 19 21 1 0
BITMAP
07F800
07F800
000000
03F000
0FFE00
1C0700
300380
600180
6000C0
C00040
C00060
C00060
C00060
C00060
C00040
6000C0
6001C0
300380
1C0700
0FFE00
03F800
ENDCHAR
STARTCHAR 014D
ENCODING 333
SWIDTH 666 0
DWIDTH 16 0
BBX 14 17 1 0
BITMAP
1FE0
1FE0
0000
0000
0FC0
3FE0
7030
6018
C018
C00C
C00C
C00C
C008
6018
7030
3FE0
0FC0
ENDCHAR
STARTCHAR 014E
ENCODING 334
SWIDTH 875 0
DWIDTH 21 0
BBX 19 22 1 0
BITMAP
021800
03B800
01F000
000000
03F000
0FFE00
1C0700
300380
600180
6000C0
C00040
C00060
C00060
C00060
C00060
C00040
6000C0
6001C0
300380
1C0700
0FFE00
03F800
ENDCHAR
STARTCHAR 014F
ENCODING 335
SWIDTH 666 0
DWIDTH 16 0
BBX 14 17 1 0
BITMAP
1840
0CC0
0780
0000
0FC0
3FE0
7030
6018
C018
C00C
C00C
C00C
C008
6018
7030
3FE0
0FC0
ENDCHAR
STARTCHAR 0150
ENCODING 336
SWIDTH 875 0
DWIDTH 21 0
BBX 19 23 1 0
BITMAP
002200
00E700
018C00
011800
000000
03F000
0FFE00
1C0700
300380
600180
6000C0
C00040
C00060
C00060
C00060
C00060
C00040
6000C0
6001C0
300380
1C0700
0FFE00
03F800
ENDCHAR
STARTCHAR 0151
ENCODING 337
SWIDTH 666 0
DWIDTH 16 0
BBX 14 18 1 0
BITMAP
0108
0338
0E60
0840
0000
0FC0
3FE0
7030
6018
C018
C00C
C00C
C00C
C008
6018
7030
3FE0
0FC0
ENDCHAR
STARTCHAR 0152
ENCODING 338
SWIDTH 1208 0
DWIDTH 29 0
BBX 26 18 1 0
BITMAP
03F87FC0
0FFE7FC0
1C076000
3001E000
6001E000
6000E000
C000E000
C0006000
C0007FC0
C0007FC0
C0006000
C0006000
6000E000
6000E000
3001E000
18036000
0F1E7FC0
03F87FC0
ENDCHAR
STARTCHAR 0153
ENCODING 339
SWIDTH 1125 0
DWIDTH 27 0
BBX 25 13 1 0
BITMAP
0F80F800
3FE3FE00
70370300
601E0180
C01C0180
C00FFF80
C00FFF80
C00C0000
C01C0000
601E0180
70370300
3FE3FE00
0FC0F800
ENDCHAR
STARTCHAR 0154
ENCODING 340
SWIDTH 625 0
DWIDTH 15 0
BBX 12 23 2 0
BITMAP
0100
0380
0E00
0800
0000
FF00
FFC0
C060
C020
C030
C030
C030
C030
C060
C1E0
CF80
C600
C700
C300
C180
C0C0
C0C0
C060
ENDCHAR
STARTCHAR 0155
ENCODING 341
SWIDTH 291 0
DWIDTH 7 0
BBX 6 18 1 0
BITMAP
08
3C
70
40
00
CC
DC
E0
E0
C0
C0
C0
C0
C0
C0
C0
C0
C0
ENDCHAR
STARTCHAR 0156
ENCODING 342
SWIDTH 625 0
DWIDTH 15 0
BBX 12 23 2 -5
BITMAP
FF00
FFC0
C060
C020
C030
C030
C030
C030
C060
C1E0
CF80
C600
C700
C300
C180
C0C0
C0C0
C060
0000
0C00
0C00
0C00
0800
ENDCHAR
STARTCHAR 0157
ENCODING 343
SWIDTH 291 0
DWIDTH 7 0
BBX 6 18 1 -5
BITMAP
CC
DC
E0
E0
C0
C0
C0
C0
C0
C0
C0
C0
C0
00
40
C0
C0
C0
ENDCHAR
STARTCHAR 0158
ENCODING 344
SWIDTH 625 0
DWIDTH 15 0
BBX 12 22 2 0
BITMAP
3180
1B00
0E00
0000
FF00
FFC0
C060
C020
C030
C030
C030
C030
C060
C1E0
CF80
C600
C700
C300
C180
C0C0
C0C0
C060
ENDCHAR
STARTCHAR 0159
ENCODING 345
SWIDTH 291 0
DWIDTH 7 0
BBX 7 17 0 0
BITMAP
C6
6C
38
00
66
6E
70
70
60
60
60
60
60
60
60
60
60
ENDCHAR
STARTCHAR 015A
ENCODING 346
SWIDTH 500 0
DWIDTH 12 0
BBX 10 23 1 0
BITMAP
0100
0700
0E00
0800
0000
1E00
7F80
6180
C0C0
C0C0
C000
C000
7000
3E00
0780
00C0
00C0
0040
C040
C0C0
E1C0
7F80
1E00
ENDCHAR
STARTCHAR 015B
ENCODING 347
SWIDTH 375 0
DWIDTH 9 0
BBX 9 18 0 0
BITMAP
0100
0700
1C00
1800
0000
1E00
3F00
6300
6100
6000
7000
3E00
0300
0100
C180
6300
7F00
1E00
ENDCHAR
STARTCHAR 015C
ENCODING 348
SWIDTH 500 0
DWIDTH 12 0
BBX 10 22 1 0
BITMAP
0C00
3F00
7180
0000
1E00
7F80
6180
C0C0
C0C0
C000
C000
7000
3E00
0780
00C0
00C0
0040
C040
C0C0
E1C0
7F80
1E00
ENDCHAR
STARTCHAR 015D
ENCODING 349
SWIDTH 375 0
DWIDTH 9 0
BBX 9 17 0 0
BITMAP
1C00
3600
6300
0000
1E00
3F00
6300
6100
6000
7000
3E00
0300
0100
C180
6300
7F00
1E00
ENDCHAR
STARTCHAR 015E
ENCODING 350
SWIDTH 500 0
DWIDTH 12 0
BBX 10 24 1 -6
BITMAP
1E00
7F80
6180
C0C0
C0C0
C000
C000
7000
3E00
0780
00C0
00C0
0040
C040
C0C0
E1C0
7F80
3E00
0800
0E00
0300
0100
1B00
0E00
ENDCHAR
STARTCHAR 015F
ENCODING 351
SWIDTH 375 0
DWIDTH 9 0
BBX 9 19 0 -6
BITMAP
1E00
3F00
6300
6100
6000
7000
3E00
0300
0100
C180
6300
7F00
3E00
0800
1E00
0300
0300
1A00
0E00
ENDCHAR
STARTCHAR 0160
ENCODING 352
SWIDTH 500 0
DWIDTH 12 0
BBX 10 22 1 0
BITMAP
7380
3F00
0C00
0000
1E00
7F80
6180
C0C0
C0C0
C000
C000
7000
3E00
0780
00C0
00C0
0040
C040
C0C0
E1C0
7F80
1E00
ENDCHAR
STARTCHAR 0161
ENCODING 353
SWIDTH 375 0
DWIDTH 9 0
BBX 9 17 0 0
BITMAP
6300
3600
1C00
0000
1E00
3F00
6300
6100
6000
7000
3E00
0300
0100
C180
6300
7F00
1E00
ENDCHAR
STARTCHAR 0162
ENCODING 354
SWIDTH 416 0
DWIDTH 10 0
BBX 10 24 0 -6
BITMAP
FFC0
FFC0
0C00
0C00
0C00
0C00
0C00
0C00
0C00
0C00
0C00
0C00
0C00
0C00
0C00
0C00
0C00
0C00
0800
0E00
0900
0100
0B00
0E00
ENDCHAR
STARTCHAR 0163
ENCODING 355
SWIDTH 333 0
DWIDTH 8 0
BBX 8 24 0 -6
BITMAP
18
18
18
18
18
FF
FF
18
18
18
18
18
18
18
18
18
18
18
10
1E
12
02
16
1C
ENDCHAR
STARTCHAR 0164
ENCODING 356
SWIDTH 416 0
DWIDTH 10 0
BBX 10 22 0 0
BITMAP
7180
1F00
0C00
0000
FFC0
FFC0
0C00
0C00
0C00
0C00
0C00
0C00
0C00
0C00
0C00
0C00
0C00
0C00
0C00
0C00
0C00
0C00
ENDCHAR
STARTCHAR 0165
ENCODING 357
SWIDTH 333 0
DWIDTH 8 0
BBX 8 18 0 0
BITMAP
19
1B
1B
1B
18
FF
FF
18
18
18
18
18
18
18
18
18
18
18
ENDCHAR
STARTCHAR 0168
ENCODING 360
SWIDTH 666 0
DWIDTH 16 0
BBX 12 22 2 0
BITMAP
1C80
1F80
0100
0000
C030
C030
C030
C030
C030
C030
C030
C030
C030
C030
C030
C030
C030
C030
C060
6060
3FC0
1F80
ENDCHAR
STARTCHAR 0169
ENCODING 361
SWIDTH 625 0
DWIDTH 15 0
BBX 12 17 1 0
BITMAP
1F80
1F80
0000
0000
C030
C030
C030
C030
C030
C030
C030
4030
4030
6030
6070
39F0
1FB0
ENDCHAR
STARTCHAR 016A
ENCODING 362
SWIDTH 666 0
DWIDTH 16 0
BBX 12 22 2 0
BITMAP
3FC0
3FC0
0000
0000
C030
C030
C030
C030
C030
C030
C030
C030
C030
C030
C030
C030
C030
C030
C060
6060
3FC0
1F80
ENDCHAR
STARTCHAR 016B
ENCODING 363
SWIDTH 625 0
DWIDTH 15 0
BBX 12 17 1 0
BITMAP
3FC0
3FC0
0000
0000
C030
C030
C030
C030
C030
C030
C030
4030
4030
6030
6070
39F0
1FB0
ENDCHAR
STARTCHAR 016C
ENCODING 364
SWIDTH 666 0
DWIDTH 16 0
BBX 12 22 2 0
BITMAP
3080
1980
0F00
0000
C030
C030
C030
C030
C030
C030
C030
C030
C030
C030
C030
C030
C030
C030
C060
6060
3FC0
1F80
ENDCHAR
STARTCHAR 016D
ENCODING 365
SWIDTH 625 0
DWIDTH 15 0
BBX 12 17 1 0
BITMAP
10C0
1F80
0000
0000
C030
C030
C030
C030
C030
C030
C030
4030
4030
6030
6070
39F0
1FB0
ENDCHAR
STARTCHAR 016E
ENCODING 366
SWIDTH 666 0
DWIDTH 16 0
BBX 12 23 2 0
BITMAP
0F00
0900
1900
0B00
0600
C030
C030
C030
C030
C030
C030
C030
C030
C030
C030
C030
C030
C030
C030
C060
6060
3FC0
1F80
ENDCHAR
STARTCHAR 016F
ENCODING 367
SWIDTH 625 0
DWIDTH 15 0
BBX 12 19 1 0
BITMAP
0700
0900
0880
0980
0700
0000
C030
C030
C030
C030
C030
C030
C030
4030
4030
6030
6070
39F0
1FB0
ENDCHAR
STARTCHAR 0170
ENCODING 368
SWIDTH 666 0
DWIDTH 16 0
BBX 12 23 2 0
BITMAP
0210
0670
1CC0
1080
0000
C030
C030
C030
C030
C030
C030
C030
C030
C030
C030
C030
C030
C030
C030
C060
6060
3FC0
1F80
ENDCHAR
STARTCHAR 0171
ENCODING 369
SWIDTH 625 0
DWIDTH 15 0
BBX 12 18 1 0
BITMAP
0310
0730
0CE0
0880
0000
C030
C030
C030
C030
C030
C030
C030
4030
4030
6030
6070
39F0
1FB0
ENDCHAR
STARTCHAR 0172
ENCODING 370
SWIDTH 666 0
DWIDTH 16 0
BBX 12 24 2 -6
BITMAP
C030
C030
C030
C030
C030
C030
C030
C030
C030
C030
C030
C030
C030
C030
C060
6060
3FC0
1F80
0200
0600
0400
0600
0780
0380
ENDCHAR
STARTCHAR 0173
ENCODING 371
SWIDTH 625 0
DWIDTH 15 0
BBX 12 19 1 -6
BITMAP
C030
C030
C030
C030
C030
C030
C030
4030
4030
6030
6070
39F0
1FB0
0020
0040
00C0
00C0
0070
0030
ENDCHAR
STARTCHAR 0174
ENCODING 372
SWIDTH 958 0
DWIDTH 23 0
BBX 23 22 0 0
BITMAP
003800
006C00
00C600
000000
C01806
403804
60380C
60280C
606C0C
306C18
306C18
304418
10C610
18C630
18C630
188230
0D8360
0D8360
0D8360
0701C0
0701C0
0701C0
ENDCHAR
STARTCHAR 0175
ENCODING 373
SWIDTH 833 0
DWIDTH 20 0
BBX 20 17 0 0
BITMAP
006000
01F000
039C00
000000
C00030
600060
606060
606040
30F0C0
30F0C0
109180
199980
199900
0D0B00
0F0F00
070E00
060600
ENDCHAR
STARTCHAR 0176
ENCODING 374
SWIDTH 583 0
DWIDTH 14 0
BBX 14 22 0 0
BITMAP
0300
07C0
1C60
0000
C00C
6018
6018
3030
3030
1860
1860
0CC0
0CC0
0780
0780
0300
0300
0300
0300
0300
0300
0300
ENDCHAR
STARTCHAR 0177
ENCODING 375
SWIDTH 541 0
DWIDTH 13 0
BBX 12 22 0 -5
BITMAP
0700
0D80
18C0
0000
C010
6030
6030
3060
3060
30C0
18C0
1880
0980
0D80
0F00
0700
0600
0600
0600
0C00
0C00
1800
ENDCHAR
STARTCHAR 0178
ENCODING 376
SWIDTH 583 0
DWIDTH 14 0
BBX 14 22 0 0
BITMAP
0CC0
0CC0
0CC0
0000
C00C
6018
6018
3030
3030
1860
1860
0CC0
0CC0
0780
0780
0300
0300
0300
0300
0300
0300
0300
ENDCHAR
STARTCHAR 0179
ENCODING 377
SWIDTH 500 0
DWIDTH 12 0
BBX 11 23 0 0
BITMAP
0080
0380
0F00
0400
0000
7FE0
7FE0
0060
00C0
0180
0180
0300
0300
0600
0C00
0C00
1800
1800
3000
3000
6000
FFE0
FFE0
ENDCHAR
STARTCHAR 017A
ENCODING 378
SWIDTH 416 0
DWIDTH 10 0
BBX 10 18 0 0
BITMAP
0100
0700
1E00
0800
0000
FFC0
FFC0
0180
0300
0600
0600
0C00
1800
3000
3000
6000
FFC0
FFC0
ENDCHAR
STARTCHAR 017B
ENCODING 379
SWIDTH 500 0
DWIDTH 12 0
BBX 11 22 0 0
BITMAP
0600
0600
0600
0000
7FE0
7FE0
0060
00C0
0180
0180
0300
0300
0600
0C00
0C00
1800
1800
3000
3000
6000
FFE0
FFE0
ENDCHAR
STARTCHAR 017C
ENCODING 380
SWIDTH 416 0
DWIDTH 10 0
BBX 10 17 0 0
BITMAP
0C00
0C00
0C00
0000
FFC0
FFC0
0180
0300
0600
0600
0C00
1800
3000
3000
6000
FFC0
FFC0
ENDCHAR
STARTCHAR 017D
ENCODING 381
SWIDTH 500 0
DWIDTH 12 0
BBX 11 22 0 0
BITMAP
31C0
1F00
0E00
0000
7FE0
7FE0
0060
00C0
0180
0180
0300
0300
0600
0C00
0C00
1800
1800
3000
3000
6000
FFE0
FFE0
ENDCHAR
STARTCHAR 017E
ENCODING 382
SWIDTH 416 0
DWIDTH 10 0
BBX 10 17 0 0
BITMAP
6380
3F00
0C00
0000
FFC0
FFC0
0180
0300
0600
0600
0C00
1800
3000
3000
6000
FFC0
FFC0
ENDCHAR
STARTCHAR 017F
ENCODING 383
SWIDTH 333 0
DWIDTH 8 0
BBX 7 18 0 0
BITMAP
06
1E
18
30
30
F0
F0
30
30
30
30
30
30
30
30
30
30
30
ENDCHAR
STARTCHAR 018E
ENCODING 398
SWIDTH 541 0
DWIDTH 13 0
BBX 10 18 2 0
BITMAP
FFC0
FFC0
00C0
00C0
00C0
00C0
00C0
00C0
FFC0
FFC0
00C0
00C0
00C0
00C0
00C0
00C0
FFC0
FFC0
ENDCHAR
STARTCHAR 0192
ENCODING 402
SWIDTH 541 0
DWIDTH 13 0
BBX 12 24 1 -4
BITMAP
0030
0070
00C0
0180
0180
0100
0FE0
0FE0
0300
0300
0300
0200
0200
0600
0600
0600
0400
0400
0C00
0C00
0C00
1800
F000
C000
ENDCHAR
STARTCHAR 01A0
ENCODING 416
SWIDTH 875 0
DWIDTH 21 0
BBX 19 18 1 0
BITMAP
03F060
0FFE60
1C07C0
3003C0
6001C0
6000C0
C00040
C00060
C00060
C00060
C00060
C00040
6000C0
6001C0
300380
1C0700
0FFE00
03F800
ENDCHAR
STARTCHAR 01A1
ENCODING 417
SWIDTH 666 0
DWIDTH 16 0
BBX 15 13 1 0
BITMAP
0FC6
3FE6
703C
6018
C008
C00C
C00C
C00C
C008
6018
7038
3FF0
0FC0
ENDCHAR
STARTCHAR 01AF
ENCODING 431
SWIDTH 708 0
DWIDTH 17 0
BBX 14 18 2 0
BITMAP
C034
C034
C03C
C038
C030
C030
C030
C030
C030
C030
C030
C030
C030
C030
C060
6060
3FC0
1F00
ENDCHAR
STARTCHAR 01B0
ENCODING 432
SWIDTH 666 0
DWIDTH 16 0
BBX 15 13 1 0
BITMAP
C036
C036
C03C
C038
C030
C030
C030
C030
4030
6030
6070
3FF0
0FB0
ENDCHAR
STARTCHAR 01CD
ENCODING 461
SWIDTH 750 0
DWIDTH 18 0
BBX 17 22 0 0
BITMAP
063800
03E000
01C000
000000
00C000
01E000
01E000
036000
033000
023000
061800
061800
0C1800
0C0C00
1FFC00
1FFE00
180600
300300
300300
600300
600180
C00180
ENDCHAR
STARTCHAR 01CE
ENCODING 462
SWIDTH 666 0
DWIDTH 16 0
BBX 14 17 1 0
BITMAP
18E0
0F80
0300
0000
0F8C
3FEC
703C
601C
C00C
C00C
C00C
C00C
C00C
601C
703C
3CEC
0FCC
ENDCHAR
STARTCHAR 01CF
ENCODING 463
SWIDTH 208 0
DWIDTH 5 0
BBX 7 22 -1 0
BITMAP
C6
6C
38
00
18
18
18
18
18
18
18
18
18
18
18
18
18
18
18
18
18
18
ENDCHAR
STARTCHAR 01D0
ENCODING 464
SWIDTH 208 0
DWIDTH 5 0
BBX 7 17 -1 0
BITMAP
C6
6C
38
00
30
30
30
30
30
30
30
30
30
30
30
30
30
ENDCHAR
STARTCHAR 01D1
ENCODING 465
SWIDTH 875 0
DWIDTH 21 0
BBX 19 22 1 0
BITMAP
031800
01B000
00E000
000000
03F000
0FFE00
1C0700
300380
600180
6000C0
C00040
C00060
C00060
C00060
C00060
C00040
6000C0
6001C0
300380
1C0700
0FFE00
03F800
ENDCHAR
STARTCHAR 01D2
ENCODING 466
SWIDTH 666 0
DWIDTH 16 0
BBX 14 17 1 0
BITMAP
18E0
0F80
0700
0000
0FC0
3FE0
7030
6018
C018
C00C
C00C
C00C
C008
6018
7030
3FE0
0FC0
ENDCHAR
STARTCHAR 01D3
ENCODING 467
SWIDTH 666 0
DWIDTH 16 0
BBX 12 22 2 0
BITMAP
31C0
1F00
0E00
0000
C030
C030
C030
C030
C030
C030
C030
C030
C030
C030
C030
C030
C030
C030
C060
6060
3FC0
1F80
ENDCHAR
STARTCHAR 01D4
ENCODING 468
SWIDTH 625 0
DWIDTH 15 0
BBX 12 17 1 0
BITMAP
18C0
0D80
0700
0000
C030
C030
C030
C030
C030
C030
C030
4030
4030
6030
6070
39F0
1FB0
ENDCHAR
STARTCHAR 01D7
ENCODING 471
SWIDTH 666 0
DWIDTH 16 0
BBX 12 27 2 0
BITMAP
0080
0380
0F00
0400
0000
1980
1980
1980
0000
C030
C030
C030
C030
C030
C030
C030
C030
C030
C030
C030
C030
C030
C030
C060
6060
3FC0
1F80
ENDCHAR
STARTCHAR 01D8
ENCODING 472
SWIDTH 625 0
DWIDTH 15 0
BBX 12 23 1 0
BITMAP
0080
01C0
0700
0400
0000
0000
0980
0980
0980
0000
C030
C030
C030
C030
C030
C030
C030
4030
4030
6030
6070
39F0
1FB0
ENDCHAR
STARTCHAR 01D9
ENCODING 473
SWIDTH 666 0
DWIDTH 16 0
BBX 12 26 2 0
BITMAP
31C0
1F00
0E00
0000
1980
1980
1980
0000
C030
C030
C030
C030
C030
C030
C030
C030
C030
C030
C030
C030
C030
C030
C060
6060
3FC0
1F80
ENDCHAR
STARTCHAR 01DA
ENCODING 474
SWIDTH 625 0
DWIDTH 15 0
BBX 12 22 1 0
BITMAP
18C0
0D80
0700
0000
0000
0980
0980
0980
0000
C030
C030
C030
C030
C030
C030
C030
4030
4030
6030
6070
39F0
1FB0
ENDCHAR
STARTCHAR 01DB
ENCODING 475
SWIDTH 666 0
DWIDTH 16 0
BBX 12 27 2 0
BITMAP
1000
3C00
0E00
0200
0000
1980
1980
1980
0000
C030
C030
C030
C030
C030
C030
C030
C030
C030
C030
C030
C030
C030
C030
C060
6060
3FC0
1F80
ENDCHAR
STARTCHAR 01DC
ENCODING 476
SWIDTH 625 0
DWIDTH 15 0
BBX 12 23 1 0
BITMAP
1000
1C00
0700
0300
0000
0000
0980
0980
0980
0000
C030
C030
C030
C030
C030
C030
C030
4030
4030
6030
6070
39F0
1FB0
ENDCHAR
STARTCHAR 01DD
ENCODING 477
SWIDTH 666 0
DWIDTH 16 0
BBX 14 13 1 0
BITMAP
0F80
3FE0
7030
6018
0018
000C
FFFC
FFFC
C008
6018
7030
3FE0
0FC0
ENDCHAR
STARTCHAR 01E6
ENCODING 486
SWIDTH 875 0
DWIDTH 21 0
BBX 19 22 1 0
BITMAP
031800
01B000
00E000
000000
03F800
0FFE00
1C0700
300180
6000C0
600000
C00000
C00000
C00000
C1FFE0
C1FFE0
C00060
6000C0
6000C0
300180
1C0700
0FFE00
01F800
ENDCHAR
STARTCHAR 01E7
ENCODING 487
SWIDTH 666 0
DWIDTH 16 0
BBX 14 22 1 -5
BITMAP
18C0
0D80
0700
0000
0F8C
3FEC
703C
601C
C01C
C00C
C00C
C00C
C01C
601C
703C
3FEC
0F8C
4018
6018
3038
1FF0
0FC0
ENDCHAR
STARTCHAR 01EA
ENCODING 490
SWIDTH 875 0
DWIDTH 21 0
BBX 19 24 1 -6
BITMAP
03F000
0FFE00
1C0700
300380
600180
6000C0
C00040
C00060
C00060
C00060
C00060
C00040
6000C0
6001C0
300380
1C0700
0FFE00
03F800
006000
00C000
00C000
00C000
007000
003000
ENDCHAR
STARTCHAR 01EB
ENCODING 491
SWIDTH 666 0
DWIDTH 16 0
BBX 14 19 1 -6
BITMAP
0FC0
3FE0
7030
6018
C018
C00C
C00C
C00C
C008
6018
7030
3FE0
0FC0
0180
0300
0300
0300
03C0
00C0
ENDCHAR
STARTCHAR 01F0
ENCODING 496
SWIDTH 208 0
DWIDTH 5 0
BBX 7 22 -1 -5
BITMAP
C6
6C
38
00
10
10
10
10
10
10
10
10
10
10
10
10
10
30
30
30
E0
C0
ENDCHAR
STARTCHAR 01F4
ENCODING 500
SWIDTH 875 0
DWIDTH 21 0
BBX 19 23 1 0
BITMAP
001800
003800
00E000
008000
000000
03F800
0FFE00
1C0700
300180
6000C0
600000
C00000
C00000
C00000
C1FFE0
C1FFE0
C00060
6000C0
6000C0
300180
1C0700
0FFE00
01F800
ENDCHAR
STARTCHAR 01F5
ENCODING 501
SWIDTH 666 0
DWIDTH 16 0
BBX 14 23 1 -5
BITMAP
0040
01C0
0700
0600
0000
0F8C
3FEC
703C
601C
C01C
C00C
C00C
C00C
C01C
601C
703C
3FEC
0F8C
4018
6018
3038
1FF0
0FC0
ENDCHAR
STARTCHAR 01FA
ENCODING 506
SWIDTH 750 0
DWIDTH 18 0
BBX 17 28 0 0
BITMAP
001000
007000
01E000
008000
000000
01E000
032000
012000
01E000
000000
00C000
01E000
01E000
036000
033000
023000
061800
061800
0C1800
0C0C00
1FFC00
1FFE00
180600
300300
300300
600300
600180
C00180
ENDCHAR
STARTCHAR 01FB
ENCODING 507
SWIDTH 666 0
DWIDTH 16 0
BBX 14 23 1 0
BITMAP
0040
01C0
0780
0200
0000
0780
0480
0480
0780
0000
0F8C
3FEC
703C
601C
C00C
C00C
C00C
C00C
C00C
601C
703C
3CEC
0FCC
ENDCHAR
STARTCHAR 01FC
ENCODING 508
SWIDTH 1000 0
DWIDTH 24 0
BBX 21 23 1 0
BITMAP
000100
000700
001E00
000800
000000
001FF8
003FF8
003C00
006C00
00EC00
00CC00
018C00
038C00
030FF8
060FF8
0FFC00
0FFC00
180C00
300C00
300C00
600C00
C00FF8
C00FF8
ENDCHAR
STARTCHAR 01FD
ENCODING 509
SWIDTH 1166 0
DWIDTH 28 0
BBX 26 18 1 0
BITMAP
00010000
00070000
001E0000
00080000
00000000
0FCCFC00
3CEDC600
703F0300
601E0180
C00C0080
C00FFFC0
C00FFFC0
C00C0040
C00C0000
601E0180
703F0300
3FEDFE00
0FCCFC00
ENDCHAR
STARTCHAR 01FE
ENCODING 510
SWIDTH 875 0
DWIDTH 21 0
BBX 19 25 1 -2
BITMAP
001800
003800
00E000
008080
0001C0
03F180
0FFF00
1C0700
300780
600DC0
6018C0
C03040
C03060
C06060
C0C060
C18060
C380C0
6300C0
6601C0
3C0380
1C0700
1FFE00
33F800
600000
200000
ENDCHAR
STARTCHAR 01FF
ENCODING 511
SWIDTH 666 0
DWIDTH 16 0
BBX 14 19 1 -1
BITMAP
0040
01C0
0700
0600
0010
0F98
3FF0
7070
60D8
C1C8
C18C
C30C
C60C
CC18
7818
7830
3FE0
6FC0
4000
ENDCHAR
STARTCHAR 0200
ENCODING 512
SWIDTH 750 0
DWIDTH 18 0
BBX 17 23 0 0
BITMAP
108000
18C000
0E6000
023000
000000
00C000
01E000
01E000
036000
033000
023000
061800
061800
0C1800
0C0C00
1FFC00
1FFE00
180600
300300
300300
600300
600180
C00180
ENDCHAR
STARTCHAR 0201
ENCODING 513
SWIDTH 666 0
DWIDTH 16 0
BBX 14 18 1 0
BITMAP
4200
6300
39C0
08C0
0000
0F8C
3FEC
703C
601C
C00C
C00C
C00C
C00C
C00C
601C
703C
3CEC
0FCC
ENDCHAR
STARTCHAR 0204
ENCODING 516
SWIDTH 541 0
DWIDTH 13 0
BBX 11 23 1 0
BITMAP
8800
CE00
7300
1100
0000
7FE0
7FE0
6000
6000
6000
6000
6000
6000
7FC0
7FC0
6000
6000
6000
6000
6000
6000
7FE0
7FE0
ENDCHAR
STARTCHAR 0205
ENCODING 517
SWIDTH 666 0
DWIDTH 16 0
BBX 14 18 1 0
BITMAP
4600
6700
3980
08C0
0000
0FC0
3FE0
7030
6018
C008
FFFC
FFFC
C000
C000
6018
7030
1FE0
0F80
ENDCHAR
STARTCHAR 0208
ENCODING 520
SWIDTH 208 0
DWIDTH 5 0
BBX 8 23 -3 0
BITMAP
88
CE
73
11
00
06
06
06
06
06
06
06
06
06
06
06
06
06
06
06
06
06
06
ENDCHAR
STARTCHAR 0209
ENCODING 521
SWIDTH 208 0
DWIDTH 5 0
BBX 9 18 -4 0
BITMAP
8400
E700
3180
1080
0000
0600
0600
0600
0600
0600
0600
0600
0600
0600
0600
0600
0600
0600
ENDCHAR
STARTCHAR 020C
ENCODING 524
SWIDTH 875 0
DWIDTH 21 0
BBX 19 23 1 0
BITMAP
188000
1CE000
063000
021000
000000
03F000
0FFE00
1C0700
300380
600180
6000C0
C00040
C00060
C00060
C00060
C00060
C00040
6000C0
6001C0
300380
1C0700
0FFE00
03F800
ENDCHAR
STARTCHAR 020D
ENCODING 525
SWIDTH 666 0
DWIDTH 16 0
BBX 14 18 1 0
BITMAP
4200
6300
39C0
08C0
0000
0FC0
3FE0
7030
6018
C018
C00C
C00C
C00C
C008
6018
7030
3FE0
0FC0
ENDCHAR
STARTCHAR 0210
ENCODING 528
SWIDTH 625 0
DWIDTH 15 0
BBX 13 23 1 0
BITMAP
8400
E600
3380
1080
0000
7F80
7FE0
6030
6010
6018
6018
6018
6018
6030
60F0
67C0
6300
6380
6180
60C0
6060
6060
6030
ENDCHAR
STARTCHAR 0211
ENCODING 529
SWIDTH 291 0
DWIDTH 7 0
BBX 10 18 -3 0
BITMAP
8400
E600
3380
1080
0000
0CC0
0DC0
0E00
0E00
0C00
0C00
0C00
0C00
0C00
0C00
0C00
0C00
0C00
ENDCHAR
STARTCHAR 0214
ENCODING 532
SWIDTH 666 0
DWIDTH 16 0
BBX 12 23 2 0
BITMAP
8400
C600
7300
1180
0000
C030
C030
C030
C030
C030
C030
C030
C030
C030
C030
C030
C030
C030
C030
C060
6060
3FC0
1F80
ENDCHAR
STARTCHAR 0215
ENCODING 533
SWIDTH 625 0
DWIDTH 15 0
BBX 12 18 1 0
BITMAP
8400
E600
3380
1080
0000
C030
C030
C030
C030
C030
C030
C030
4030
4030
6030
6070
39F0
1FB0
ENDCHAR
STARTCHAR 0218
ENCODING 536
SWIDTH 500 0
DWIDTH 12 0
BBX 10 23 1 -5
BITMAP
1E00
7F80
6180
C0C0
C0C0
C000
C000
7000
3E00
0780
00C0
00C0
0040
C040
C0C0
E1C0
7F80
1E00
0000
0C00
0C00
0800
1800
ENDCHAR
STARTCHAR 0219
ENCODING 537
SWIDTH 375 0
DWIDTH 9 0
BBX 9 18 0 -5
BITMAP
1E00
3F00
6300
6100
6000
7000
3E00
0300
0100
C180
6300
7F00
1E00
0000
0C00
0800
1800
1800
ENDCHAR
STARTCHAR 021A
ENCODING 538
SWIDTH 416 0
DWIDTH 10 0
BBX 10 23 0 -5
BITMAP
FFC0
FFC0
0C00
0C00
0C00
0C00
0C00
0C00
0C00
0C00
0C00
0C00
0C00
0C00
0C00
0C00
0C00
0C00
0000
0C00
0C00
0C00
0800
ENDCHAR
STARTCHAR 021B
ENCODING 539
SWIDTH 333 0
DWIDTH 8 0
BBX 8 23 0 -5
BITMAP
18
18
18
18
18
FF
FF
18
18
18
18
18
18
18
18
18
18
18
00
18
18
10
30
ENDCHAR
STARTCHAR 0237
ENCODING 567
SWIDTH 208 0
DWIDTH 5 0
BBX 4 18 -1 -5
BITMAP
10
10
10
10
10
10
10
10
10
10
10
10
10
30
30
30
E0
C0
ENDCHAR
STARTCHAR 0258
ENCODING 600
SWIDTH 666 0
DWIDTH 16 0
BBX 14 13 1 0
BITMAP
0FC0
3FE0
7030
6018
C008
FFFC
FFFC
000C
0018
6018
7030
1FE0
0F80
ENDCHAR
STARTCHAR 0259
ENCODING 601
SWIDTH 666 0
DWIDTH 16 0
BBX 14 13 1 0
BITMAP
0F80
3FE0
7030
6018
0018
000C
FFFC
FFFC
C008
6018
7030
3FE0
0FC0
ENDCHAR
STARTCHAR 02BE
ENCODING 702
SWIDTH 500 0
DWIDTH 12 0
BBX 9 9 2 7
BITMAP
3C00
FF00
C300
0180
0180
0180
8180
C300
7E00
ENDCHAR
STARTCHAR 02BF
ENCODING 703
SWIDTH 500 0
DWIDTH 12 0
BBX 10 10 1 7
BITMAP
1F00
3F80
60C0
4000
C000
4000
60C0
7180
3F00
0400
ENDCHAR
STARTCHAR 02C6
ENCODING 710
SWIDTH 500 0
DWIDTH 12 0
BBX 8 3 2 15
BITMAP
18
7E
E3
ENDCHAR
STARTCHAR 02C7
ENCODING 711
SWIDTH 500 0
DWIDTH 12 0
BBX 8 3 2 15
BITMAP
E7
7E
18
ENDCHAR
STARTCHAR 02D8
ENCODING 728
SWIDTH 458 0
DWIDTH 11 0
BBX 7 3 2 15
BITMAP
86
C6
7C
ENDCHAR
STARTCHAR 02D9
ENCODING 729
SWIDTH 208 0
DWIDTH 5 0
BBX 2 3 2 15
BITMAP
C0
C0
C0
ENDCHAR
STARTCHAR 02DA
ENCODING 730
SWIDTH 333 0
DWIDTH 8 0
BBX 4 5 2 14
BITMAP
E0
90
90
90
F0
ENDCHAR
STARTCHAR 02DB
ENCODING 731
SWIDTH 291 0
DWIDTH 7 0
BBX 4 6 2 -6
BITMAP
60
C0
80
80
F0
70
ENDCHAR
STARTCHAR 02DC
ENCODING 732
SWIDTH 458 0
DWIDTH 11 0
BBX 6 2 2 15
BITMAP
FC
FC
ENDCHAR
STARTCHAR 02DD
ENCODING 733
SWIDTH 541 0
DWIDTH 13 0
BBX 9 4 4 14
BITMAP
1080
7380
E600
8400
ENDCHAR
STARTCHAR 0300
ENCODING 768
SWIDTH 0 0
DWIDTH 0 0
BBX 5 4 -12 14
BITMAP
40
E0
38
08
ENDCHAR
STARTCHAR 0301
ENCODING 769
SWIDTH 0 0
DWIDTH 0 0
BBX 5 4 -10 14
BITMAP
08
38
E0
C0
ENDCHAR
STARTCHAR 0302
ENCODING 770
SWIDTH 0 0
DWIDTH 0 0
BBX 8 3 -12 15
BITMAP
38
7C
C7
ENDCHAR
STARTCHAR 0303
ENCODING 771
SWIDTH 0 0
DWIDTH 0 0
BBX 6 2 -11 15
BITMAP
EC
FC
ENDCHAR
STARTCHAR 0304
ENCODING 772
SWIDTH 0 0
DWIDTH 0 0
BBX 8 2 -12 15
BITMAP
FF
FF
ENDCHAR
STARTCHAR 0306
ENCODING 774
SWIDTH 0 0
DWIDTH 0 0
BBX 7 3 -12 15
BITMAP
C2
46
7C
ENDCHAR
STARTCHAR 0307
ENCODING 775
SWIDTH 0 0
DWIDTH 0 0
BBX 2 3 -9 15
BITMAP
C0
C0
C0
ENDCHAR
STARTCHAR 0308
ENCODING 776
SWIDTH 0 0
DWIDTH 0 0
BBX 5 3 -11 15
BITMAP
C8
C8
C8
ENDCHAR
STARTCHAR 0309
ENCODING 777
SWIDTH 0 0
DWIDTH 0 0
BBX 5 5 -11 14
BITMAP
78
48
C8
10
30
ENDCHAR
STARTCHAR 030A
ENCODING 778
SWIDTH 0 0
DWIDTH 0 0
BBX 5 5 -11 14
BITMAP
70
48
88
48
70
ENDCHAR
STARTCHAR 030B
ENCODING 779
SWIDTH 0 0
DWIDTH 0 0
BBX 9 4 -11 14
BITMAP
1080
3380
E600
8400
ENDCHAR
STARTCHAR 030C
ENCODING 780
SWIDTH 0 0
DWIDTH 0 0
BBX 7 3 -12 15
BITMAP
C6
6C
38
ENDCHAR
STARTCHAR 030F
ENCODING 783
SWIDTH 0 0
DWIDTH 0 0
BBX 9 4 -14 14
BITMAP
8C00
CE00
7300
1180
ENDCHAR
STARTCHAR 0311
ENCODING 785
SWIDTH 0 0
DWIDTH 0 0
BBX 7 2 -12 15
BITMAP
7E
C2
ENDCHAR
STARTCHAR 0323
ENCODING 803
SWIDTH 0 0
DWIDTH 0 0
BBX 2 3 -9 -4
BITMAP
C0
C0
C0
ENDCHAR
STARTCHAR 0326
ENCODING 806
SWIDTH 0 0
DWIDTH 0 0
BBX 3 4 -10 -5
BITMAP
60
60
C0
C0
ENDCHAR
STARTCHAR 032E
ENCODING 814
SWIDTH 0 0
DWIDTH 0 0
BBX 7 2 -12 -4
BITMAP
C2
7E
ENDCHAR
STARTCHAR 032F
ENCODING 815
SWIDTH 0 0
DWIDTH 0 0
BBX 7 2 -12 -4
BITMAP
7E
C2
ENDCHAR
STARTCHAR 0330
ENCODING 816
SWIDTH 0 0
DWIDTH 0 0
BBX 6 2 -11 -4
BITMAP
EC
FC
ENDCHAR
STARTCHAR 0331
ENCODING 817
SWIDTH 0 0
DWIDTH 0 0
BBX 8 2 -12 -4
BITMAP
FF
FF
ENDCHAR
STARTCHAR 0332
ENCODING 818
SWIDTH 0 0
DWIDTH 0 0
BBX 8 2 -12 -4
BITMAP
FF
FF
ENDCHAR
STARTCHAR 0391
ENCODING 913
SWIDTH 750 0
DWIDTH 18 0
BBX 17 18 0 0
BITMAP
00C000
01E000
01E000
036000
033000
023000
061800
061800
0C1800
0C0C00
1FFC00
1FFE00
180600
300300
300300
600300
600180
C00180
ENDCHAR
STARTCHAR 0392
ENCODING 914
SWIDTH 583 0
DWIDTH 14 0
BBX 11 18 2 0
BITMAP
FE00
FF80
C1C0
C0C0
C0C0
C0C0
C0C0
C180
FF00
FFC0
C0C0
C060
C060
C060
C060
C0E0
FFC0
FF00
ENDCHAR
STARTCHAR 0393
ENCODING 915
SWIDTH 500 0
DWIDTH 12 0
BBX 9 18 2 0
BITMAP
FF80
FF80
C000
C000
C000
C000
C000
C000
C000
C000
C000
C000
C000
C000
C000
C000
C000
C000
ENDCHAR
STARTCHAR 0394
ENCODING 916
SWIDTH 625 0
DWIDTH 15 0
BBX 15 16 0 0
BITMAP
0180
0380
03C0
06C0
0660
0C60
0C60
0C30
1830
1818
3018
301C
700C
600C
7FFE
FFFE
ENDCHAR
STARTCHAR 0395
ENCODING 917
SWIDTH 541 0
DWIDTH 13 0
BBX 10 18 2 0
BITMAP
FFC0
FFC0
C000
C000
C000
C000
C000
C000
FF80
FF80
C000
C000
C000
C000
C000
C000
FFC0
FFC0
ENDCHAR
STARTCHAR 0396
ENCODING 918
SWIDTH 500 0
DWIDTH 12 0
BBX 11 18 0 0
BITMAP
7FE0
7FE0
0060
00C0
0180
0180
0300
0300
0600
0C00
0C00
1800
1800
3000
3000
6000
FFE0
FFE0
ENDCHAR
STARTCHAR 0397
ENCODING 919
SWIDTH 666 0
DWIDTH 16 0
BBX 13 18 2 0
BITMAP
C018
C018
C018
C018
C018
C018
C018
C018
FFF8
FFF8
C018
C018
C018
C018
C018
C018
C018
C018
ENDCHAR
STARTCHAR 0398
ENCODING 920
SWIDTH 875 0
DWIDTH 21 0
BBX 19 18 1 0
BITMAP
03F000
0FFE00
1C0700
300380
600180
6000C0
C00040
C00060
C3F860
C3F860
C00060
C000C0
6000C0
600180
300380
1C0700
0FFE00
03F800
ENDCHAR
STARTCHAR 0399
ENCODING 921
SWIDTH 208 0
DWIDTH 5 0
BBX 2 18 2 0
BITMAP
C0
C0
C0
C0
C0
C0
C0
C0
C0
C0
C0
C0
C0
C0
C0
C0
C0
C0
ENDCHAR
STARTCHAR 039A
ENCODING 922
SWIDTH 583 0
DWIDTH 14 0
BBX 12 18 2 0
BITMAP
C070
C060
C0C0
C180
C300
C700
C600
CC00
D800
FC00
FC00
E600
C300
C380
C180
C0C0
C060
C070
ENDCHAR
STARTCHAR 039B
ENCODING 923
SWIDTH 750 0
DWIDTH 18 0
BBX 17 18 0 0
BITMAP
00C000
01E000
01E000
036000
033000
023000
061800
061800
0C0800
0C0C00
180C00
180600
100600
300300
300300
600300
600180
C00180
ENDCHAR
STARTCHAR 039C
ENCODING 924
SWIDTH 916 0
DWIDTH 22 0
BBX 18 18 2 0
BITMAP
E001C0
E001C0
F003C0
F003C0
D002C0
D806C0
D806C0
CC0CC0
CC0CC0
C618C0
C618C0
C210C0
C330C0
C330C0
C1E0C0
C1E0C0
C0C0C0
C0C0C0
ENDCHAR
STARTCHAR 039D
ENCODING 925
SWIDTH 750 0
DWIDTH 18 0
BBX 14 18 2 0
BITMAP
E00C
E00C
F00C
F80C
D80C
CC0C
CE0C
C60C
C30C
C38C
C18C
C0CC
C0EC
C06C
C03C
C03C
C01C
C00C
ENDCHAR
STARTCHAR 039E
ENCODING 926
SWIDTH 666 0
DWIDTH 16 0
BBX 15 18 1 0
BITMAP
FFFE
FFFE
0000
0000
0000
0000
0000
0000
3FF8
3FF8
0000
0000
0000
0000
0000
0000
FFFE
FFFE
ENDCHAR
STARTCHAR 039F
ENCODING 927
SWIDTH 875 0
DWIDTH 21 0
BBX 19 18 1 0
BITMAP
03F000
0FFE00
1C0700
300380
600180
6000C0
C00040
C00060
C00060
C00060
C00060
C00040
6000C0
6001C0
300380
1C0700
0FFE00
03F800
ENDCHAR
STARTCHAR 03A0
ENCODING 928
SWIDTH 625 0
DWIDTH 15 0
BBX 14 16 1 0
BITMAP
FFFC
FFFC
C00C
C00C
C00C
C00C
C00C
C00C
C00C
C00C
C00C
C00C
C00C
C00C
C00C
C00C
ENDCHAR
STARTCHAR 03A1
ENCODING 929
SWIDTH 583 0
DWIDTH 14 0
BBX 12 18 2 0
BITMAP
FF00
FFC0
C060
C060
C020
C030
C020
C060
C0E0
FFC0
FE00
C000
C000
C000
C000
C000
C000
C000
ENDCHAR
STARTCHAR 03A3
ENCODING 931
SWIDTH 458 0
DWIDTH 11 0
BBX 11 16 0 0
BITMAP
FFC0
FFC0
6000
3000
3000
1800
1C00
0C00
0C00
1C00
1800
3000
7000
6000
FFE0
FFE0
ENDCHAR
STARTCHAR 03A4
ENCODING 932
SWIDTH 416 0
DWIDTH 10 0
BBX 10 18 0 0
BITMAP
FFC0
FFC0
0C00
0C00
0C00
0C00
0C00
0C00
0C00
0C00
0C00
0C00
0C00
0C00
0C00
0C00
0C00
0C00
ENDCHAR
STARTCHAR 03A5
ENCODING 933
SWIDTH 583 0
DWIDTH 14 0
BBX 14 18 0 0
BITMAP
C00C
6018
6018
3030
3030
1860
1860
0CC0
0CC0
0780
0780
0300
0300
0300
0300
0300
0300
0300
ENDCHAR
STARTCHAR 03A6
ENCODING 934
SWIDTH 791 0
DWIDTH 19 0
BBX 16 18 2 0
BITMAP
0180
0180
0180
0180
1FF0
7DFC
E186
C183
8183
8183
C183
E186
7DFC
1FF8
0180
0180
0180
0180
ENDCHAR
STARTCHAR 03A7
ENCODING 935
SWIDTH 625 0
DWIDTH 15 0
BBX 13 18 1 0
BITMAP
C018
E030
6060
3060
38C0
19C0
0D80
0F00
0700
0700
0F80
1D80
18C0
30C0
7060
6030
C030
C018
ENDCHAR
STARTCHAR 03A8
ENCODING 936
SWIDTH 791 0
DWIDTH 19 0
BBX 17 18 1 0
BITMAP
C08180
C08180
C08180
C08180
C08180
408180
608300
608300
308600
388E00
1FFC00
07F000
008000
008000
008000
008000
008000
008000
ENDCHAR
STARTCHAR 03A9
ENCODING 937
SWIDTH 791 0
DWIDTH 19 0
BBX 17 17 1 0
BITMAP
03E000
0FF800
1C1E00
300600
600300
E00180
C00180
C00180
C00180
C00180
C00180
C00180
600300
700700
380E00
7E1F00
7E1F00
ENDCHAR
STARTCHAR 03B1
ENCODING 945
SWIDTH 708 0
DWIDTH 17 0
BBX 14 13 1 0
BITMAP
0F8C
1FCC
306C
6038
6038
4038
C030
4030
6030
6078
3078
1FCC
0F84
ENDCHAR
STARTCHAR 03B2
ENCODING 946
SWIDTH 500 0
DWIDTH 12 0
BBX 9 23 1 -5
BITMAP
1E00
3F00
6300
6180
C180
C180
C300
C700
DC00
CF00
C300
C180
C180
C180
C180
E380
FF00
DE00
C000
C000
C000
C000
C000
ENDCHAR
STARTCHAR 03B3
ENCODING 947
SWIDTH 458 0
DWIDTH 11 0
BBX 13 17 0 -4
BITMAP
E018
6030
3030
3820
1860
0C60
0CC0
06C0
0780
0780
0700
0700
0300
0200
0200
0200
0200
ENDCHAR
STARTCHAR 03B4
ENCODING 948
SWIDTH 708 0
DWIDTH 17 0
BBX 14 18 1 0
BITMAP
3FF0
3FF0
0E00
0700
03C0
1FE0
3830
7018
600C
600C
C00C
400C
400C
600C
6018
3838
1FF0
07C0
ENDCHAR
STARTCHAR 03B5
ENCODING 949
SWIDTH 583 0
DWIDTH 14 0
BBX 12 15 1 -1
BITMAP
1FC0
3FF0
6020
6000
6000
7000
3F80
7F80
6000
C000
4000
6000
7030
1FF0
0780
ENDCHAR
STARTCHAR 03B6
ENCODING 950
SWIDTH 416 0
DWIDTH 10 0
BBX 8 22 1 -4
BITMAP
FF
FF
0C
18
30
30
60
60
60
40
C0
C0
40
40
60
60
3C
1E
02
03
03
03
ENDCHAR
STARTCHAR 03B7
ENCODING 951
SWIDTH 625 0
DWIDTH 15 0
BBX 12 18 1 -5
BITMAP
CF80
D9E0
E060
E030
C030
C030
C030
C030
C030
C030
C030
C030
C030
0030
0030
0030
0030
0030
ENDCHAR
STARTCHAR 03B8
ENCODING 952
SWIDTH 541 0
DWIDTH 13 0
BBX 11 18 1 0
BITMAP
1F00
3F80
3180
60C0
60C0
4040
4040
4040
FFE0
FFE0
4040
4040
6040
60C0
60C0
3180
3F80
1E00
ENDCHAR
STARTCHAR 03B9
ENCODING 953
SWIDTH 333 0
DWIDTH 8 0
BBX 3 13 3 0
BITMAP
C0
C0
C0
C0
C0
C0
C0
C0
C0
C0
C0
60
20
ENDCHAR
STARTCHAR 03BA
ENCODING 954
SWIDTH 500 0
DWIDTH 12 0
BBX 11 13 1 0
BITMAP
C0C0
C180
C380
C300
C600
CC00
DC00
DC00
F600
E300
C180
C1C0
C0E0
ENDCHAR
STARTCHAR 03BB
ENCODING 955
SWIDTH 625 0
DWIDTH 15 0
BBX 11 18 2 0
BITMAP
3000
3800
0C00
0C00
0600
0600
0600
0700
0F00
0F00
1980
1980
3180
30C0
60C0
60C0
C060
C060
ENDCHAR
STARTCHAR 03BC
ENCODING 956
SWIDTH 625 0
DWIDTH 15 0
BBX 12 17 1 -4
BITMAP
C030
C030
C030
C030
C030
C030
C030
C030
E030
E070
F0F0
DFF0
CFB0
C000
C000
C000
C000
ENDCHAR
STARTCHAR 03BD
ENCODING 957
SWIDTH 500 0
DWIDTH 12 0
BBX 9 13 1 0
BITMAP
C180
C180
C180
6080
6180
6180
2180
3180
3300
3300
1E00
1C00
1800
ENDCHAR
STARTCHAR 03BE
ENCODING 958
SWIDTH 375 0
DWIDTH 9 0
BBX 7 22 1 -4
BITMAP
FE
FE
60
60
60
60
70
3C
3C
70
60
40
C0
40
40
60
78
3C
06
06
06
06
ENDCHAR
STARTCHAR 03BF
ENCODING 959
SWIDTH 666 0
DWIDTH 16 0
BBX 14 13 1 0
BITMAP
0FC0
3FE0
7030
6018
C018
C00C
C00C
C00C
C008
6018
7030
3FE0
0FC0
ENDCHAR
STARTCHAR 03C0
ENCODING 960
SWIDTH 750 0
DWIDTH 18 0
BBX 14 13 2 0
BITMAP
3FFC
FFFC
CC60
8C60
0C60
0C60
0C60
0C60
0C60
0C60
0C60
0C60
0C60
ENDCHAR
STARTCHAR 03C1
ENCODING 961
SWIDTH 625 0
DWIDTH 15 0
BBX 12 17 1 -4
BITMAP
0F80
1FC0
30E0
6060
6030
4030
C030
C030
C030
C060
F0E0
FFC0
CF80
C000
C000
C000
C000
ENDCHAR
STARTCHAR 03C2
ENCODING 962
SWIDTH 541 0
DWIDTH 13 0
BBX 10 17 1 -4
BITMAP
0F00
3F80
30C0
6040
6000
4000
C000
4000
6000
6000
3000
3F00
0FC0
00C0
0040
0040
0040
ENDCHAR
STARTCHAR 03C3
ENCODING 963
SWIDTH 708 0
DWIDTH 17 0
BBX 16 14 1 0
BITMAP
0006
07FF
1FF0
3038
6018
600C
400C
C00C
400C
600C
601C
3038
1FF0
07C0
ENDCHAR
STARTCHAR 03C4
ENCODING 964
SWIDTH 500 0
DWIDTH 12 0
BBX 9 13 1 0
BITMAP
FF80
FF80
0C00
0C00
0C00
0C00
0C00
0C00
0C00
0C00
0600
0780
0180
ENDCHAR
STARTCHAR 03C5
ENCODING 965
SWIDTH 541 0
DWIDTH 13 0
BBX 10 13 1 0
BITMAP
C0C0
C0C0
C0C0
C040
C040
C040
C040
C040
40C0
40C0
6180
3F80
1E00
ENDCHAR
STARTCHAR 03C6
ENCODING 966
SWIDTH 708 0
DWIDTH 17 0
BBX 14 17 1 -4
BITMAP
1070
38F8
318C
618C
610C
4104
C104
410C
610C
610C
3118
1D70
0FE0
0100
0100
0100
0100
ENDCHAR
STARTCHAR 03C7
ENCODING 967
SWIDTH 541 0
DWIDTH 13 0
BBX 10 17 2 -4
BITMAP
C0C0
C180
6180
6300
3300
3600
1E00
1C00
0C00
1C00
1E00
3600
3300
6300
6180
C180
C0C0
ENDCHAR
STARTCHAR 03C8
ENCODING 968
SWIDTH 708 0
DWIDTH 17 0
BBX 13 22 2 -4
BITMAP
0200
0200
0200
0200
0200
8208
8208
8208
8208
8208
8208
8208
8208
8208
C218
C238
7FF0
1FC0
0200
0200
0200
0200
ENDCHAR
STARTCHAR 03C9
ENCODING 969
SWIDTH 708 0
DWIDTH 17 0
BBX 15 13 1 0
BITMAP
6004
6004
4004
4006
4186
C186
C186
4186
4186
6384
638C
3EF8
1C70
ENDCHAR
STARTCHAR 03D1
ENCODING 977
SWIDTH 583 0
DWIDTH 14 0
BBX 11 19 1 0
BITMAP
0E00
3F80
61C0
60C0
6040
6040
7040
3FE0
07E0
0040
C040
C040
C040
C040
4040
60C0
71C0
3F80
1F00
ENDCHAR
STARTCHAR 03D5
ENCODING 981
SWIDTH 666 0
DWIDTH 16 0
BBX 14 22 1 -4
BITMAP
0300
0300
0300
0300
0700
1FE0
3B70
6338
C318
C308
C30C
C30C
C30C
C318
6318
7330
3FF0
0FC0
0300
0300
0300
0300
ENDCHAR
STARTCHAR 03D6
ENCODING 982
SWIDTH 708 0
DWIDTH 17 0
BBX 15 17 1 0
BITMAP
0FE0
1FF0
0018
0008
600C
600C
4004
4006
4186
C186
C186
4186
4186
6384
638C
3EF8
1C70
ENDCHAR
STARTCHAR 03F1
ENCODING 1009
SWIDTH 708 0
DWIDTH 17 0
BBX 14 19 1 -6
BITMAP
07C0
1FF0
3038
6018
600C
400C
C00C
400C
600C
601C
7038
7FF0
37C0
1800
1C00
0FE0
01F8
000C
000C
ENDCHAR
STARTCHAR 03F5
ENCODING 1013
SWIDTH 666 0
DWIDTH 16 0
BBX 13 13 1 0
BITMAP
0FC0
1FE0
7030
6018
C000
C000
FF80
FF80
C000
6000
7038
3FF0
0FC0
ENDCHAR
STARTCHAR 0E3F
ENCODING 3647
SWIDTH 583 0
DWIDTH 14 0
BBX 11 22 2 -2
BITMAP
0C00
0C00
FE00
FF80
C1C0
C0C0
C0C0
C0C0
C0C0
C180
FF00
FFC0
C0C0
C060
C060
C060
C060
C0E0
FFC0
FF00
0C00
0C00
ENDCHAR
STARTCHAR 1E0C
ENCODING 7692
SWIDTH 750 0
DWIDTH 18 0
BBX 15 22 2 -4
BITMAP
FF80
FFE0
C070
C018
C00C
C00C
C004
C006
C006
C006
C006
C006
C00C
C00C
C018
C070
FFE0
FF80
0000
0C00
0C00
0C00
ENDCHAR
STARTCHAR 1E0D
ENCODING 7693
SWIDTH 666 0
DWIDTH 16 0
BBX 14 22 1 -4
BITMAP
000C
000C
000C
000C
000C
0FCC
3FEC
703C
601C
C00C
C00C
C00C
C00C
C00C
601C
703C
1CEC
0FCC
0000
0300
0300
0300
ENDCHAR
STARTCHAR 1E0E
ENCODING 7694
SWIDTH 750 0
DWIDTH 18 0
BBX 15 22 2 -4
BITMAP
FF80
FFE0
C070
C018
C00C
C00C
C004
C006
C006
C006
C006
C006
C00C
C00C
C018
C070
FFE0
FF80
0000
0000
7F80
7F80
ENDCHAR
STARTCHAR 1E0F
ENCODING 7695
SWIDTH 666 0
DWIDTH 16 0
BBX 14 22 1 -4
BITMAP
000C
000C
000C
000C
000C
0FCC
3FEC
703C
601C
C00C
C00C
C00C
C00C
C00C
601C
703C
1CEC
0FCC
0000
0000
1FE0
1FE0
ENDCHAR
STARTCHAR 1E24
ENCODING 7716
SWIDTH 666 0
DWIDTH 16 0
BBX 13 22 2 -4
BITMAP
C018
C018
C018
C018
C018
C018
C018
C018
FFF8
FFF8
C018
C018
C018
C018
C018
C018
C018
C018
0000
0600
0600
0600
ENDCHAR
STARTCHAR 1E25
ENCODING 7717
SWIDTH 625 0
DWIDTH 15 0
BBX 12 22 1 -4
BITMAP
C000
C000
C000
C000
C000
CF80
DFE0
F060
E030
C030
C030
C030
C030
C030
C030
C030
C030
C030
0000
0600
0600
0600
ENDCHAR
STARTCHAR 1E26
ENCODING 7718
SWIDTH 666 0
DWIDTH 16 0
BBX 13 22 2 0
BITMAP
0980
0980
0980
0000
C018
C018
C018
C018
C018
C018
C018
C018
FFF8
FFF8
C018
C018
C018
C018
C018
C018
C018
C018
ENDCHAR
STARTCHAR 1E27
ENCODING 7719
SWIDTH 625 0
DWIDTH 15 0
BBX 12 22 1 0
BITMAP
0980
0980
0980
0000
C000
C000
C000
C000
C000
CF80
DFE0
F060
E030
C030
C030
C030
C030
C030
C030
C030
C030
C030
ENDCHAR
STARTCHAR 1E2A
ENCODING 7722
SWIDTH 666 0
DWIDTH 16 0
BBX 13 22 2 -4
BITMAP
C018
C018
C018
C018
C018
C018
C018
C018
FFF8
FFF8
C018
C018
C018
C018
C018
C018
C018
C018
0000
0000
10C0
1F80
ENDCHAR
STARTCHAR 1E2B
ENCODING 7723
SWIDTH 625 0
DWIDTH 15 0
BBX 12 22 1 -4
BITMAP
C000
C000
C000
C000
C000
CF80
DFE0
F060
E030
C030
C030
C030
C030
C030
C030
C030
C030
C030
0000
0000
18C0
0F80
ENDCHAR
STARTCHAR 1E2E
ENCODING 7726
SWIDTH 208 0
DWIDTH 5 0
BBX 6 27 0 0
BITMAP
04
1C
70
60
00
C8
C8
C8
00
30
30
30
30
30
30
30
30
30
30
30
30
30
30
30
30
30
30
ENDCHAR
STARTCHAR 1E2F
ENCODING 7727
SWIDTH 208 0
DWIDTH 5 0
BBX 6 23 0 0
BITMAP
0C
1C
70
40
00
00
D8
D8
D8
00
60
60
60
60
60
60
60
60
60
60
60
60
60
ENDCHAR
STARTCHAR 1E36
ENCODING 7734
SWIDTH 458 0
DWIDTH 11 0
BBX 9 22 2 -4
BITMAP
C000
C000
C000
C000
C000
C000
C000
C000
C000
C000
C000
C000
C000
C000
C000
C000
FF80
FF80
0000
1800
1800
1800
ENDCHAR
STARTCHAR 1E37
ENCODING 7735
SWIDTH 208 0
DWIDTH 5 0
BBX 2 22 1 -4
BITMAP
C0
C0
C0
C0
C0
C0
C0
C0
C0
C0
C0
C0
C0
C0
C0
C0
C0
C0
00
C0
C0
C0
ENDCHAR
STARTCHAR 1E38
ENCODING 7736
SWIDTH 458 0
DWIDTH 11 0
BBX 12 26 -1 -4
BITMAP
FF00
FF00
0000
0000
1800
1800
1800
1800
1800
1800
1800
1800
1800
1800
1800
1800
1800
1800
1800
1800
1FF0
1FF0
0000
0300
0300
0300
ENDCHAR
STARTCHAR 1E39
ENCODING 7737
SWIDTH 208 0
DWIDTH 5 0
BBX 8 26 -2 -4
BITMAP
FF
FF
00
00
18
18
18
18
18
18
18
18
18
18
18
18
18
18
18
18
18
18
00
18
18
18
ENDCHAR
STARTCHAR 1E42
ENCODING 7746
SWIDTH 916 0
DWIDTH 22 0
BBX 18 22 2 -4
BITMAP
E001C0
E001C0
F003C0
F003C0
D002C0
D806C0
D806C0
CC0CC0
CC0CC0
C618C0
C618C0
C210C0
C330C0
C330C0
C1E0C0
C1E0C0
C0C0C0
C0C0C0
000000
00C000
00C000
00C000
ENDCHAR
STARTCHAR 1E43
ENCODING 7747
SWIDTH 958 0
DWIDTH 23 0
BBX 20 17 1 -4
BITMAP
CF0F80
D998E0
E07060
E06030
C06030
C06030
C06030
C06030
C06030
C06030
C06030
C06030
C06030
000000
006000
006000
006000
ENDCHAR
STARTCHAR 1E44
ENCODING 7748
SWIDTH 750 0
DWIDTH 18 0
BBX 14 22 2 0
BITMAP
0300
0300
0300
0000
E00C
E00C
F00C
F80C
D80C
CC0C
CE0C
C60C
C30C
C38C
C18C
C0CC
C0EC
C06C
C03C
C03C
C01C
C00C
ENDCHAR
STARTCHAR 1E45
ENCODING 7749
SWIDTH 625 0
DWIDTH 15 0
BBX 12 17 1 0
BITMAP
0600
0600
0600
0000
CF80
D9E0
E060
E030
C030
C030
C030
C030
C030
C030
C030
C030
C030
ENDCHAR
STARTCHAR 1E46
ENCODING 7750
SWIDTH 750 0
DWIDTH 18 0
BBX 14 22 2 -4
BITMAP
E00C
E00C
F00C
F80C
D80C
CC0C
CE0C
C60C
C30C
C38C
C18C
C0CC
C0EC
C06C
C03C
C03C
C01C
C00C
0000
0300
0300
0300
ENDCHAR
STARTCHAR 1E47
ENCODING 7751
SWIDTH 625 0
DWIDTH 15 0
BBX 12 17 1 -4
BITMAP
CF80
D9E0
E060
E030
C030
C030
C030
C030
C030
C030
C030
C030
C030
0000
0600
0600
0600
ENDCHAR
STARTCHAR 1E58
ENCODING 7768
SWIDTH 625 0
DWIDTH 15 0
BBX 12 22 2 0
BITMAP
0C00
0C00
0C00
0000
FF00
FFC0
C060
C020
C030
C030
C030
C030
C060
C1E0
CF80
C600
C700
C300
C180
C0C0
C0C0
C060
ENDCHAR
STARTCHAR 1E59
ENCODING 7769
SWIDTH 291 0
DWIDTH 7 0
BBX 6 17 1 0
BITMAP
60
60
60
00
CC
DC
E0
E0
C0
C0
C0
C0
C0
C0
C0
C0
C0
ENDCHAR
STARTCHAR 1E5A
ENCODING 7770
SWIDTH 625 0
DWIDTH 15 0
BBX 12 22 2 -4
BITMAP
FF00
FFC0
C060
C020
C030
C030
C030
C030
C060
C1E0
CF80
C600
C700
C300
C180
C0C0
C0C0
C060
0000
0C00
0C00
0C00
ENDCHAR
STARTCHAR 1E5B
ENCODING 7771
SWIDTH 291 0
DWIDTH 7 0
BBX 6 17 1 -4
BITMAP
CC
DC
E0
E0
C0
C0
C0
C0
C0
C0
C0
C0
C0
00
C0
C0
C0
ENDCHAR
STARTCHAR 1E5C
ENCODING 7772
SWIDTH 625 0
DWIDTH 15 0
BBX 12 26 2 -4
BITMAP
7F80
7F80
0000
0000
FF00
FFC0
C060
C020
C030
C030
C030
C030
C060
C1E0
CF80
C600
C700
C300
C180
C0C0
C0C0
C060
0000
0C00
0C00
0C00
ENDCHAR
STARTCHAR 1E5D
ENCODING 7773
SWIDTH 291 0
DWIDTH 7 0
BBX 8 21 -1 -4
BITMAP
FF
FF
00
00
33
37
38
38
30
30
30
30
30
30
30
30
30
00
30
30
30
ENDCHAR
STARTCHAR 1E62
ENCODING 7778
SWIDTH 500 0
DWIDTH 12 0
BBX 10 22 1 -4
BITMAP
1E00
7F80
6180
C0C0
C0C0
C000
C000
7000
3E00
0780
00C0
00C0
0040
C040
C0C0
E1C0
7F80
1E00
0000
0C00
0C00
0C00
ENDCHAR
STARTCHAR 1E63
ENCODING 7779
SWIDTH 375 0
DWIDTH 9 0
BBX 9 17 0 -4
BITMAP
1E00
3F00
6300
6100
6000
7000
3E00
0300
0100
C180
6300
7F00
1E00
0000
0C00
0C00
0C00
ENDCHAR
STARTCHAR 1E6C
ENCODING 7788
SWIDTH 416 0
DWIDTH 10 0
BBX 10 22 0 -4
BITMAP
FFC0
FFC0
0C00
0C00
0C00
0C00
0C00
0C00
0C00
0C00
0C00
0C00
0C00
0C00
0C00
0C00
0C00
0C00
0000
0C00
0C00
0C00
ENDCHAR
STARTCHAR 1E6D
ENCODING 7789
SWIDTH 333 0
DWIDTH 8 0
BBX 8 22 0 -4
BITMAP
18
18
18
18
18
FF
FF
18
18
18
18
18
18
18
18
18
18
18
00
18
18
18
ENDCHAR
STARTCHAR 1E6E
ENCODING 7790
SWIDTH 416 0
DWIDTH 10 0
BBX 10 22 0 -4
BITMAP
FFC0
FFC0
0C00
0C00
0C00
0C00
0C00
0C00
0C00
0C00
0C00
0C00
0C00
0C00
0C00
0C00
0C00
0C00
0000
0000
7F80
7F80
ENDCHAR
STARTCHAR 1E6F
ENCODING 7791
SWIDTH 333 0
DWIDTH 8 0
BBX 8 22 0 -4
BITMAP
18
18
18
18
18
FF
FF
18
18
18
18
18
18
18
18
18
18
18
00
00
FF
FF
ENDCHAR
STARTCHAR 1E80
ENCODING 7808
SWIDTH 958 0
DWIDTH 23 0
BBX 23 23 0 0
BITMAP
00C000
00E000
003800
000800
000000
C01806
403804
60380C
60280C
606C0C
306C18
306C18
304418
10C610
18C630
18C630
188230
0D8360
0D8360
0D8360
0701C0
0701C0
0701C0
ENDCHAR
STARTCHAR 1E81
ENCODING 7809
SWIDTH 833 0
DWIDTH 20 0
BBX 20 18 0 0
BITMAP
010000
03C000
00E000
002000
000000
C00030
600060
606060
606040
30F0C0
30F0C0
109180
199980
199900
0D0B00
0F0F00
070E00
060600
ENDCHAR
STARTCHAR 1E82
ENCODING 7810
SWIDTH 958 0
DWIDTH 23 0
BBX 23 23 0 0
BITMAP
000600
000E00
003800
002000
000000
C01806
403804
60380C
60280C
606C0C
306C18
306C18
304418
10C610
18C630
18C630
188230
0D8360
0D8360
0D8360
0701C0
0701C0
0701C0
ENDCHAR
STARTCHAR 1E83
ENCODING 7811
SWIDTH 833 0
DWIDTH 20 0
BBX 20 18 0 0
BITMAP
000800
003800
00F000
004000
000000
C00030
600060
606060
606040
30F0C0
30F0C0
109180
199980
199900
0D0B00
0F0F00
070E00
060600
ENDCHAR
STARTCHAR 1E84
ENCODING 7812
SWIDTH 958 0
DWIDTH 23 0
BBX 23 22 0 0
BITMAP
006C00
006C00
006C00
000000
C01806
403804
60380C
60280C
606C0C
306C18
306C18
304418
10C610
18C630
18C630
188230
0D8360
0D8360
0D8360
0701C0
0701C0
0701C0
ENDCHAR
STARTCHAR 1E85
ENCODING 7813
SWIDTH 833 0
DWIDTH 20 0
BBX 20 17 0 0
BITMAP
019800
019800
019800
000000
C00030
600060
606060
606040
30F0C0
30F0C0
109180
199980
199900
0D0B00
0F0F00
070E00
060600
ENDCHAR
STARTCHAR 1E92
ENCODING 7826
SWIDTH 500 0
DWIDTH 12 0
BBX 11 22 0 -4
BITMAP
7FE0
7FE0
0060
00C0
0180
0180
0300
0300
0600
0C00
0C00
1800
1800
3000
3000
6000
FFE0
FFE0
0000
0600
0600
0600
ENDCHAR
STARTCHAR 1E93
ENCODING 7827
SWIDTH 416 0
DWIDTH 10 0
BBX 10 17 0 -4
BITMAP
FFC0
FFC0
0180
0300
0600
0600
0C00
1800
3000
3000
6000
FFC0
FFC0
0000
0C00
0C00
0C00
ENDCHAR
STARTCHAR 1E97
ENCODING 7831
SWIDTH 333 0
DWIDTH 8 0
BBX 8 22 0 0
BITMAP
66
66
66
00
18
18
18
18
18
FF
FF
18
18
18
18
18
18
18
18
18
18
18
ENDCHAR
STARTCHAR 1EA0
ENCODING 7840
SWIDTH 750 0
DWIDTH 18 0
BBX 17 22 0 -4
BITMAP
00C000
01E000
01E000
036000
033000
023000
061800
061800
0C1800
0C0C00
1FFC00
1FFE00
180600
300300
300300
600300
600180
C00180
000000
00C000
00C000
00C000
ENDCHAR
STARTCHAR 1EA1
ENCODING 7841
SWIDTH 666 0
DWIDTH 16 0
BBX 14 17 1 -4
BITMAP
0F8C
3FEC
703C
601C
C00C
C00C
C00C
C00C
C00C
601C
703C
3CEC
0FCC
0000
0300
0300
0300
ENDCHAR
STARTCHAR 1EA2
ENCODING 7842
SWIDTH 750 0
DWIDTH 18 0
BBX 17 24 0 0
BITMAP
01E000
012000
032000
004000
00C000
000000
00C000
01E000
01E000
036000
033000
023000
061800
061800
0C1800
0C0C00
1FFC00
1FFE00
180600
300300
300300
600300
600180
C00180
ENDCHAR
STARTCHAR 1EA3
ENCODING 7843
SWIDTH 666 0
DWIDTH 16 0
BBX 14 18 1 0
BITMAP
0780
0480
0180
0300
0000
0F8C
3FEC
703C
601C
C00C
C00C
C00C
C00C
C00C
601C
703C
3CEC
0FCC
ENDCHAR
STARTCHAR 1EA4
ENCODING 7844
SWIDTH 750 0
DWIDTH 18 0
BBX 17 27 0 0
BITMAP
001000
007000
01E000
008000
000000
00C000
03E000
063800
000000
00C000
01E000
01E000
036000
033000
023000
061800
061800
0C1800
0C0C00
1FFC00
1FFE00
180600
300300
300300
600300
600180
C00180
ENDCHAR
STARTCHAR 1EA5
ENCODING 7845
SWIDTH 666 0
DWIDTH 16 0
BBX 14 22 1 0
BITMAP
0040
00C0
0380
0700
0200
0000
0780
0CC0
0000
0F8C
3FEC
703C
601C
C00C
C00C
C00C
C00C
C00C
601C
703C
3CEC
0FCC
ENDCHAR
STARTCHAR 1EA6
ENCODING 7846
SWIDTH 750 0
DWIDTH 18 0
BBX 17 27 0 0
BITMAP
020000
078000
01C000
004000
000000
00C000
03E000
063800
000000
00C000
01E000
01E000
036000
033000
023000
061800
061800
0C1800
0C0C00
1FFC00
1FFE00
180600
300300
300300
600300
600180
C00180
ENDCHAR
STARTCHAR 1EA7
ENCODING 7847
SWIDTH 666 0
DWIDTH 16 0
BBX 14 22 1 0
BITMAP
0800
1C00
0F00
0380
0100
0000
0780
0CC0
0000
0F8C
3FEC
703C
601C
C00C
C00C
C00C
C00C
C00C
601C
703C
3CEC
0FCC
ENDCHAR
STARTCHAR 1EA8
ENCODING 7848
SWIDTH 750 0
DWIDTH 18 0
BBX 17 28 0 0
BITMAP
007000
00C800
00D800
003000
002000
000000
00C000
03E000
063800
000000
00C000
01E000
01E000
036000
033000
023000
061800
061800
0C1800
0C0C00
1FFC00
1FFE00
180600
300300
300300
600300
600180
C00180
ENDCHAR
STARTCHAR 1EA9
ENCODING 7849
SWIDTH 666 0
DWIDTH 16 0
BBX 14 22 1 0
BITMAP
01E0
0320
0060
00C0
0000
0300
0F80
18E0
0000
0F8C
3FEC
703C
601C
C00C
C00C
C00C
C00C
C00C
601C
703C
3CEC
0FCC
ENDCHAR
STARTCHAR 1EAA
ENCODING 7850
SWIDTH 750 0
DWIDTH 18 0
BBX 17 25 0 0
BITMAP
039000
03F000
000000
00C000
03E000
063800
000000
00C000
01E000
01E000
036000
033000
023000
061800
061800
0C1800
0C0C00
1FFC00
1FFE00
180600
300300
300300
600300
600180
C00180
ENDCHAR
STARTCHAR 1EAB
ENCODING 7851
SWIDTH 666 0
DWIDTH 16 0
BBX 14 20 1 0
BITMAP
0E40
0FC0
0000
0300
0F80
18E0
0000
0F8C
3FEC
703C
601C
C00C
C00C
C00C
C00C
C00C
601C
703C
3CEC
0FCC
ENDCHAR
STARTCHAR 1EAC
ENCODING 7852
SWIDTH 750 0
DWIDTH 18 0
BBX 17 26 0 -4
BITMAP
00C000
03E000
063800
000000
00C000
01E000
01E000
036000
033000
023000
061800
061800
0C1800
0C0C00
1FFC00
1FFE00
180600
300300
300300
600300
600180
C00180
000000
00C000
00C000
00C000
ENDCHAR
STARTCHAR 1EAD
ENCODING 7853
SWIDTH 666 0
DWIDTH 16 0
BBX 14 21 1 -4
BITMAP
0300
0F80
18E0
0000
0F8C
3FEC
703C
601C
C00C
C00C
C00C
C00C
C00C
601C
703C
3CEC
0FCC
0000
0300
0300
0300
ENDCHAR
STARTCHAR 1EAE
ENCODING 7854
SWIDTH 750 0
DWIDTH 18 0
BBX 17 27 0 0
BITMAP
001000
003800
00E000
008000
000000
061000
033000
01E000
000000
00C000
01E000
01E000
036000
033000
023000
061800
061800
0C1800
0C0C00
1FFC00
1FFE00
180600
300300
300300
600300
600180
C00180
ENDCHAR
STARTCHAR 1EAF
ENCODING 7855
SWIDTH 666 0
DWIDTH 16 0
BBX 14 22 1 0
BITMAP
0060
00E0
0380
0200
0000
1840
0CC0
0780
0000
0F8C
3FEC
703C
601C
C00C
C00C
C00C
C00C
C00C
601C
703C
3CEC
0FCC
ENDCHAR
STARTCHAR 1EB0
ENCODING 7856
SWIDTH 750 0
DWIDTH 18 0
BBX 17 27 0 0
BITMAP
040000
070000
01C000
00C000
000000
061000
033000
01E000
000000
00C000
01E000
01E000
036000
033000
023000
061800
061800
0C1800
0C0C00
1FFC00
1FFE00
180600
300300
300300
600300
600180
C00180
ENDCHAR
STARTCHAR 1EB1
ENCODING 7857
SWIDTH 666 0
DWIDTH 16 0
BBX 14 22 1 0
BITMAP
1000
1C00
0700
0100
0000
1840
0CC0
0780
0000
0F8C
3FEC
703C
601C
C00C
C00C
C00C
C00C
C00C
601C
703C
3CEC
0FCC
ENDCHAR
STARTCHAR 1EB2
ENCODING 7858
SWIDTH 750 0
DWIDTH 18 0
BBX 17 27 0 0
BITMAP
01E000
012000
032000
004000
00C000
061000
033000
01E000
000000
00C000
01E000
01E000
036000
033000
023000
061800
061800
0C1800
0C0C00
1FFC00
1FFE00
180600
300300
300300
600300
600180
C00180
ENDCHAR
STARTCHAR 1EB3
ENCODING 7859
SWIDTH 666 0
DWIDTH 16 0
BBX 14 21 1 0
BITMAP
0780
0480
0180
0300
1840
0CC0
0780
0000
0F8C
3FEC
703C
601C
C00C
C00C
C00C
C00C
C00C
601C
703C
3CEC
0FCC
ENDCHAR
STARTCHAR 1EB4
ENCODING 7860
SWIDTH 750 0
DWIDTH 18 0
BBX 17 25 0 0
BITMAP
03F000
027000
000000
061000
033000
01E000
000000
00C000
01E000
01E000
036000
033000
023000
061800
061800
0C1800
0C0C00
1FFC00
1FFE00
180600
300300
300300
600300
600180
C00180
ENDCHAR
STARTCHAR 1EB5
ENCODING 7861
SWIDTH 666 0
DWIDTH 16 0
BBX 14 20 1 0
BITMAP
0FC0
09C0
0000
1840
0CC0
0780
0000
0F8C
3FEC
703C
601C
C00C
C00C
C00C
C00C
C00C
601C
703C
3CEC
0FCC
ENDCHAR
STARTCHAR 1EB6
ENCODING 7862
SWIDTH 750 0
DWIDTH 18 0
BBX 17 26 0 -4
BITMAP
061000
033000
01E000
000000
00C000
01E000
01E000
036000
033000
023000
061800
061800
0C1800
0C0C00
1FFC00
1FFE00
180600
300300
300300
600300
600180
C00180
000000
00C000
00C000
00C000
ENDCHAR
STARTCHAR 1EB7
ENCODING 7863
SWIDTH 666 0
DWIDTH 16 0
BBX 14 21 1 -4
BITMAP
1840
0CC0
0780
0000
0F8C
3FEC
703C
601C
C00C
C00C
C00C
C00C
C00C
601C
703C
3CEC
0FCC
0000
0300
0300
0300
ENDCHAR
STARTCHAR 1EB8
ENCODING 7864
SWIDTH 541 0
DWIDTH 13 0
BBX 10 22 2 -4
BITMAP
FFC0
FFC0
C000
C000
C000
C000
C000
C000
FF80
FF80
C000
C000
C000
C000
C000
C000
FFC0
FFC0
0000
0800
0800
0800
ENDCHAR
STARTCHAR 1EB9
ENCODING 7865
SWIDTH 666 0
DWIDTH 16 0
BBX 14 17 1 -4
BITMAP
0FC0
3FE0
7030
6018
C008
FFFC
FFFC
C000
C000
6018
7030
1FE0
0F80
0000
0300
0300
0300
ENDCHAR
STARTCHAR 1EBA
ENCODING 7866
SWIDTH 541 0
DWIDTH 13 0
BBX 10 24 2 0
BITMAP
1C00
3200
3600
0C00
0800
0000
FFC0
FFC0
C000
C000
C000
C000
C000
C000
FF80
FF80
C000
C000
C000
C000
C000
C000
FFC0
FFC0
ENDCHAR
STARTCHAR 1EBB
ENCODING 7867
SWIDTH 666 0
DWIDTH 16 0
BBX 14 18 1 0
BITMAP
0780
0C80
0180
0300
0000
0FC0
3FE0
7030
6018
C008
FFFC
FFFC
C000
C000
6018
7030
1FE0
0F80
ENDCHAR
STARTCHAR 1EBC
ENCODING 7868
SWIDTH 541 0
DWIDTH 13 0
BBX 10 22 2 0
BITMAP
3900
7F00
0000
0000
FFC0
FFC0
C000
C000
C000
C000
C000
C000
FF80
FF80
C000
C000
C000
C000
C000
C000
FFC0
FFC0
ENDCHAR
STARTCHAR 1EBD
ENCODING 7869
SWIDTH 666 0
DWIDTH 16 0
BBX 14 17 1 0
BITMAP
0E40
0FC0
0080
0000
0FC0
3FE0
7030
6018
C008
FFFC
FFFC
C000
C000
6018
7030
1FE0
0F80
ENDCHAR
STARTCHAR 1EBE
ENCODING 7870
SWIDTH 541 0
DWIDTH 13 0
BBX 10 27 2 0
BITMAP
0100
0700
1C00
1800
0000
1C00
3600
6300
0000
FFC0
FFC0
C000
C000
C000
C000
C000
C000
FF80
FF80
C000
C000
C000
C000
C000
C000
FFC0
FFC0
ENDCHAR
STARTCHAR 1EBF
ENCODING 7871
SWIDTH 666 0
DWIDTH 16 0
BBX 14 22 1 0
BITMAP
0040
00C0
0380
0700
0200
0000
0780
1CC0
0000
0FC0
3FE0
7030
6018
C008
FFFC
FFFC
C000
C000
6018
7030
1FE0
0F80
ENDCHAR
STARTCHAR 1EC0
ENCODING 7872
SWIDTH 541 0
DWIDTH 13 0
BBX 10 27 2 0
BITMAP
2000
7000
1C00
0400
0000
1C00
3600
6300
0000
FFC0
FFC0
C000
C000
C000
C000
C000
C000
FF80
FF80
C000
C000
C000
C000
C000
C000
FFC0
FFC0
ENDCHAR
STARTCHAR 1EC1
ENCODING 7873
SWIDTH 666 0
DWIDTH 16 0
BBX 14 22 1 0
BITMAP
0800
1C00
0E00
0380
0100
0000
0780
1CC0
0000
0FC0
3FE0
7030
6018
C008
FFFC
FFFC
C000
C000
6018
7030
1FE0
0F80
ENDCHAR
STARTCHAR 1EC2
ENCODING 7874
SWIDTH 541 0
DWIDTH 13 0
BBX 10 28 2 0
BITMAP
0700
0D80
0980
0300
0200
0000
1C00
3600
6300
0000
FFC0
FFC0
C000
C000
C000
C000
C000
C000
FF80
FF80
C000
C000
C000
C000
C000
C000
FFC0
FFC0
ENDCHAR
STARTCHAR 1EC3
ENCODING 7875
SWIDTH 666 0
DWIDTH 16 0
BBX 14 22 1 0
BITMAP
01E0
0320
0060
0080
0000
0700
0F80
18E0
0000
0FC0
3FE0
7030
6018
C008
FFFC
FFFC
C000
C000
6018
7030
1FE0
0F80
ENDCHAR
STARTCHAR 1EC4
ENCODING 7876
SWIDTH 541 0
DWIDTH 13 0
BBX 10 25 2 0
BITMAP
3900
7F00
0000
1C00
3600
6300
0000
FFC0
FFC0
C000
C000
C000
C000
C000
C000
FF80
FF80
C000
C000
C000
C000
C000
C000
FFC0
FFC0
ENDCHAR
STARTCHAR 1EC5
ENCODING 7877
SWIDTH 666 0
DWIDTH 16 0
BBX 14 20 1 0
BITMAP
0E40
0FC0
0000
0700
0F80
18E0
0000
0FC0
3FE0
7030
6018
C008
FFFC
FFFC
C000
C000
6018
7030
1FE0
0F80
ENDCHAR
STARTCHAR 1EC6
ENCODING 7878
SWIDTH 541 0
DWIDTH 13 0
BBX 10 26 2 -4
BITMAP
1C00
3600
6300
0000
FFC0
FFC0
C000
C000
C000
C000
C000
C000
FF80
FF80
C000
C000
C000
C000
C000
C000
FFC0
FFC0
0000
0800
0800
0800
ENDCHAR
STARTCHAR 1EC7
ENCODING 7879
SWIDTH 666 0
DWIDTH 16 0
BBX 14 21 1 -4
BITMAP
0700
0F80
18E0
0000
0FC0
3FE0
7030
6018
C008
FFFC
FFFC
C000
C000
6018
7030
1FE0
0F80
0000
0300
0300
0300
ENDCHAR
STARTCHAR 1EC8
ENCODING 7880
SWIDTH 208 0
DWIDTH 5 0
BBX 5 24 0 0
BITMAP
70
C8
D8
30
20
00
30
30
30
30
30
30
30
30
30
30
30
30
30
30
30
30
30
30
ENDCHAR
STARTCHAR 1EC9
ENCODING 7881
SWIDTH 208 0
DWIDTH 5 0
BBX 5 19 0 0
BITMAP
70
D8
98
30
20
00
60
60
60
60
60
60
60
60
60
60
60
60
60
ENDCHAR
STARTCHAR 1ECA
ENCODING 7882
SWIDTH 208 0
DWIDTH 5 0
BBX 2 22 2 -4
BITMAP
C0
C0
C0
C0
C0
C0
C0
C0
C0
C0
C0
C0
C0
C0
C0
C0
C0
C0
00
C0
C0
C0
ENDCHAR
STARTCHAR 1ECB
ENCODING 7883
SWIDTH 208 0
DWIDTH 5 0
BBX 2 21 1 -4
BITMAP
C0
C0
C0
00
C0
C0
C0
C0
C0
C0
C0
C0
C0
C0
C0
C0
C0
00
C0
C0
C0
ENDCHAR
STARTCHAR 1ECC
ENCODING 7884
SWIDTH 875 0
DWIDTH 21 0
BBX 19 22 1 -4
BITMAP
03F000
0FFE00
1C0700
300380
600180
6000C0
C00040
C00060
C00060
C00060
C00060
C00040
6000C0
6001C0
300380
1C0700
0FFE00
03F800
000000
004000
004000
004000
ENDCHAR
STARTCHAR 1ECD
ENCODING 7885
SWIDTH 666 0
DWIDTH 16 0
BBX 14 17 1 -4
BITMAP
0FC0
3FE0
7030
6018
C018
C00C
C00C
C00C
C008
6018
7030
3FE0
0FC0
0000
0300
0300
0300
ENDCHAR
STARTCHAR 1ECE
ENCODING 7886
SWIDTH 875 0
DWIDTH 21 0
BBX 19 23 1 0
BITMAP
00E000
013000
002000
004000
000000
03F000
0FFE00
1C0700
300380
600180
6000C0
C00040
C00060
C00060
C00060
C00060
C00040
6000C0
6001C0
300380
1C0700
0FFE00
03F800
ENDCHAR
STARTCHAR 1ECF
ENCODING 7887
SWIDTH 666 0
DWIDTH 16 0
BBX 14 18 1 0
BITMAP
0780
0C80
0180
0300
0000
0FC0
3FE0
7030
6018
C018
C00C
C00C
C00C
C008
6018
7030
3FE0
0FC0
ENDCHAR
STARTCHAR 1ED0
ENCODING 7888
SWIDTH 875 0
DWIDTH 21 0
BBX 19 27 1 0
BITMAP
001000
003800
007000
00E000
008000
000000
00E000
031800
000000
03F000
0FFE00
1C0700
300380
600180
6000C0
C00040
C00060
C00060
C00060
C00060
C00040
6000C0
6001C0
300380
1C0700
0FFE00
03F800
ENDCHAR
STARTCHAR 1ED1
ENCODING 7889
SWIDTH 666 0
DWIDTH 16 0
BBX 14 22 1 0
BITMAP
0040
00C0
0380
0700
0200
0000
0780
1CC0
0000
0FC0
3FE0
7030
6018
C018
C00C
C00C
C00C
C008
6018
7030
3FE0
0FC0
ENDCHAR
STARTCHAR 1ED2
ENCODING 7890
SWIDTH 875 0
DWIDTH 21 0
BBX 19 27 1 0
BITMAP
020000
038000
01C000
00E000
002000
000000
00E000
031800
000000
03F000
0FFE00
1C0700
300380
600180
6000C0
C00040
C00060
C00060
C00060
C00060
C00040
6000C0
6001C0
300380
1C0700
0FFE00
03F800
ENDCHAR
STARTCHAR 1ED3
ENCODING 7891
SWIDTH 666 0
DWIDTH 16 0
BBX 14 22 1 0
BITMAP
0800
1C00
0F00
0380
0100
0000
0780
1CC0
0000
0FC0
3FE0
7030
6018
C018
C00C
C00C
C00C
C008
6018
7030
3FE0
0FC0
ENDCHAR
STARTCHAR 1ED4
ENCODING 7892
SWIDTH 875 0
DWIDTH 21 0
BBX 19 27 1 0
BITMAP
007800
004C00
001800
001000
000000
00E000
01B000
031800
000000
03F000
0FFE00
1C0700
300380
600180
6000C0
C00040
C00060
C00060
C00060
C00060
C00040
6000C0
6001C0
300380
1C0700
0FFE00
03F800
ENDCHAR
STARTCHAR 1ED5
ENCODING 7893
SWIDTH 666 0
DWIDTH 16 0
BBX 14 22 1 0
BITMAP
01E0
0320
0060
00C0
0000
0300
0F80
18E0
0000
0FC0
3FE0
7030
6018
C018
C00C
C00C
C00C
C008
6018
7030
3FE0
0FC0
ENDCHAR
STARTCHAR 1ED6
ENCODING 7894
SWIDTH 875 0
DWIDTH 21 0
BBX 19 25 1 0
BITMAP
01C800
03F800
000000
00E000
01B000
031800
000000
03F000
0FFE00
1C0700
300380
600180
6000C0
C00040
C00060
C00060
C00060
C00060
C00040
6000C0
6001C0
300380
1C0700
0FFE00
03F800
ENDCHAR
STARTCHAR 1ED7
ENCODING 7895
SWIDTH 666 0
DWIDTH 16 0
BBX 14 20 1 0
BITMAP
0E40
0FC0
0000
0300
0F80
18E0
0000
0FC0
3FE0
7030
6018
C018
C00C
C00C
C00C
C008
6018
7030
3FE0
0FC0
ENDCHAR
STARTCHAR 1ED8
ENCODING 7896
SWIDTH 875 0
DWIDTH 21 0
BBX 19 26 1 -4
BITMAP
00E000
01B000
031800
000000
03F000
0FFE00
1C0700
300380
600180
6000C0
C00040
C00060
C00060
C00060
C00060
C00040
6000C0
6001C0
300380
1C0700
0FFE00
03F800
000000
004000
004000
004000
ENDCHAR
STARTCHAR 1ED9
ENCODING 7897
SWIDTH 666 0
DWIDTH 16 0
BBX 14 21 1 -4
BITMAP
0300
0F80
18E0
0000
0FC0
3FE0
7030
6018
C018
C00C
C00C
C00C
C008
6018
7030
3FE0
0FC0
0000
0300
0300
0300
ENDCHAR
STARTCHAR 1EDA
ENCODING 7898
SWIDTH 875 0
DWIDTH 21 0
BBX 19 23 1 0
BITMAP
001800
003800
00E000
008000
000000
03F060
0FFE60
1C07C0
3003C0
6001C0
6000C0
C00040
C00060
C00060
C00060
C00060
C00040
6000C0
6001C0
300380
1C0700
0FFE00
03F800
ENDCHAR
STARTCHAR 1EDB
ENCODING 7899
SWIDTH 666 0
DWIDTH 16 0
BBX 15 18 1 0
BITMAP
0040
01C0
0780
0200
0000
0FC6
3FE6
703C
6018
C008
C00C
C00C
C00C
C008
6018
7038
3FF0
0FC0
ENDCHAR
STARTCHAR 1EDC
ENCODING 7900
SWIDTH 875 0
DWIDTH 21 0
BBX 19 23 1 0
BITMAP
020000
038000
00E000
002000
000000
03F060
0FFE60
1C07C0
3003C0
6001C0
6000C0
C00040
C00060
C00060
C00060
C00060
C00040
6000C0
6001C0
300380
1C0700
0FFE00
03F800
ENDCHAR
STARTCHAR 1EDD
ENCODING 7901
SWIDTH 666 0
DWIDTH 16 0
BBX 15 18 1 0
BITMAP
0800
1E00
0700
0100
0000
0FC6
3FE6
703C
6018
C008
C00C
C00C
C00C
C008
6018
7038
3FF0
0FC0
ENDCHAR
STARTCHAR 1EDE
ENCODING 7902
SWIDTH 875 0
DWIDTH 21 0
BBX 19 23 1 0
BITMAP
00E000
013000
002000
004000
000000
03F060
0FFE60
1C07C0
3003C0
6001C0
6000C0
C00040
C00060
C00060
C00060
C00060
C00040
6000C0
6001C0
300380
1C0700
0FFE00
03F800
ENDCHAR
STARTCHAR 1EDF
ENCODING 7903
SWIDTH 666 0
DWIDTH 16 0
BBX 15 18 1 0
BITMAP
0780
0C80
0180
0300
0000
0FC6
3FE6
703C
6018
C008
C00C
C00C
C00C
C008
6018
7038
3FF0
0FC0
ENDCHAR
STARTCHAR 1EE0
ENCODING 7904
SWIDTH 875 0
DWIDTH 21 0
BBX 19 21 1 1
BITMAP
03F800
002000
000000
03F060
0FFE60
1C07C0
3003C0
6001C0
6000C0
C00040
C00060
C00060
C00060
C00060
C00040
6000C0
6001C0
300380
1C0700
0FFE00
03F800
ENDCHAR
STARTCHAR 1EE1
ENCODING 7905
SWIDTH 666 0
DWIDTH 16 0
BBX 15 17 1 0
BITMAP
0E40
0FC0
0080
0000
0FC6
3FE6
703C
6018
C008
C00C
C00C
C00C
C008
6018
7038
3FF0
0FC0
ENDCHAR
STARTCHAR 1EE2
ENCODING 7906
SWIDTH 875 0
DWIDTH 21 0
BBX 19 22 1 -4
BITMAP
03F060
0FFE60
1C07C0
3003C0
6001C0
6000C0
C00040
C00060
C00060
C00060
C00060
C00040
6000C0
6001C0
300380
1C0700
0FFE00
03F800
000000
004000
004000
004000
ENDCHAR
STARTCHAR 1EE3
ENCODING 7907
SWIDTH 666 0
DWIDTH 16 0
BBX 15 17 1 -4
BITMAP
0FC6
3FE6
703C
6018
C008
C00C
C00C
C00C
C008
6018
7038
3FF0
0FC0
0000
0300
0300
0300
ENDCHAR
STARTCHAR 1EE4
ENCODING 7908
SWIDTH 666 0
DWIDTH 16 0
BBX 12 22 2 -4
BITMAP
C030
C030
C030
C030
C030
C030
C030
C030
C030
C030
C030
C030
C030
C030
C060
6060
3FC0
1F80
0000
0600
0600
0600
ENDCHAR
STARTCHAR 1EE5
ENCODING 7909
SWIDTH 625 0
DWIDTH 15 0
BBX 12 17 1 -4
BITMAP
C030
C030
C030
C030
C030
C030
C030
4030
4030
6030
6070
39F0
1FB0
0000
0600
0600
0600
ENDCHAR
STARTCHAR 1EE6
ENCODING 7910
SWIDTH 666 0
DWIDTH 16 0
BBX 12 24 2 0
BITMAP
0F00
0900
1900
0200
0600
0000
C030
C030
C030
C030
C030
C030
C030
C030
C030
C030
C030
C030
C030
C030
C060
6060
3FC0
1F80
ENDCHAR
STARTCHAR 1EE7
ENCODING 7911
SWIDTH 625 0
DWIDTH 15 0
BBX 12 19 1 0
BITMAP
0700
0D80
0980
0300
0200
0000
C030
C030
C030
C030
C030
C030
C030
4030
4030
6030
6070
39F0
1FB0
ENDCHAR
STARTCHAR 1EE8
ENCODING 7912
SWIDTH 708 0
DWIDTH 17 0
BBX 14 23 2 0
BITMAP
0080
0380
0F00
0400
0000
C034
C034
C03C
C038
C030
C030
C030
C030
C030
C030
C030
C030
C030
C030
C060
6060
3FC0
1F00
ENDCHAR
STARTCHAR 1EE9
ENCODING 7913
SWIDTH 666 0
DWIDTH 16 0
BBX 15 18 1 0
BITMAP
0080
01C0
0700
0400
0000
C036
C036
C03C
C038
C030
C030
C030
C030
4030
6030
6070
3FF0
0FB0
ENDCHAR
STARTCHAR 1EEA
ENCODING 7914
SWIDTH 708 0
DWIDTH 17 0
BBX 14 23 2 0
BITMAP
1000
3C00
0E00
0200
0000
C034
C034
C03C
C038
C030
C030
C030
C030
C030
C030
C030
C030
C030
C030
C060
6060
3FC0
1F00
ENDCHAR
STARTCHAR 1EEB
ENCODING 7915
SWIDTH 666 0
DWIDTH 16 0
BBX 15 18 1 0
BITMAP
1000
1C00
0700
0300
0000
C036
C036
C03C
C038
C030
C030
C030
C030
4030
6030
6070
3FF0
0FB0
ENDCHAR
STARTCHAR 1EEC
ENCODING 7916
SWIDTH 708 0
DWIDTH 17 0
BBX 14 24 2 0
BITMAP
0F00
0900
1900
0200
0600
0000
C034
C034
C03C
C038
C030
C030
C030
C030
C030
C030
C030
C030
C030
C030
C060
6060
3FC0
1F00
ENDCHAR
STARTCHAR 1EED
ENCODING 7917
SWIDTH 666 0
DWIDTH 16 0
BBX 15 19 1 0
BITMAP
0700
0D80
0980
0300
0200
0000
C036
C036
C03C
C038
C030
C030
C030
C030
4030
6030
6070
3FF0
0FB0
ENDCHAR
STARTCHAR 1EEE
ENCODING 7918
SWIDTH 708 0
DWIDTH 17 0
BBX 14 22 2 0
BITMAP
1C80
1F80
0100
0000
C034
C034
C03C
C038
C030
C030
C030
C030
C030
C030
C030
C030
C030
C030
C060
6060
3FC0
1F00
ENDCHAR
STARTCHAR 1EEF
ENCODING 7919
SWIDTH 666 0
DWIDTH 16 0
BBX 15 17 1 0
BITMAP
1F80
1F80
0000
0000
C036
C036
C03C
C038
C030
C030
C030
C030
4030
6030
6070
3FF0
0FB0
ENDCHAR
STARTCHAR 1EF0
ENCODING 7920
SWIDTH 708 0
DWIDTH 17 0
BBX 14 22 2 -4
BITMAP
C034
C034
C03C
C038
C030
C030
C030
C030
C030
C030
C030
C030
C030
C030
C060
6060
3FC0
1F00
0000
0600
0600
0600
ENDCHAR
STARTCHAR 1EF1
ENCODING 7921
SWIDTH 666 0
DWIDTH 16 0
BBX 15 17 1 -4
BITMAP
C036
C036
C03C
C038
C030
C030
C030
C030
4030
6030
6070
3FF0
0FB0
0000
0600
0600
0600
ENDCHAR
STARTCHAR 1EF2
ENCODING 7922
SWIDTH 583 0
DWIDTH 14 0
BBX 14 23 0 0
BITMAP
0800
0E00
0780
0100
0000
C00C
6018
6018
3030
3030
1860
1860
0CC0
0CC0
0780
0780
0300
0300
0300
0300
0300
0300
0300
ENDCHAR
STARTCHAR 1EF3
ENCODING 7923
SWIDTH 541 0
DWIDTH 13 0
BBX 12 23 0 -5
BITMAP
1000
1C00
0700
0300
0000
C010
6030
6030
3060
3060
30C0
18C0
1880
0980
0D80
0F00
0700
0600
0600
0600
0C00
0C00
1800
ENDCHAR
STARTCHAR 1EF4
ENCODING 7924
SWIDTH 583 0
DWIDTH 14 0
BBX 14 22 0 -4
BITMAP
C00C
6018
6018
3030
3030
1860
1860
0CC0
0CC0
0780
0780
0300
0300
0300
0300
0300
0300
0300
0000
0300
0300
0300
ENDCHAR
STARTCHAR 1EF5
ENCODING 7925
SWIDTH 541 0
DWIDTH 13 0
BBX 12 18 0 -5
BITMAP
C010
6030
6030
3060
3060
30C0
18C0
1880
0980
0D80
0F00
0700
0600
0600
0660
0C60
0C60
1820
ENDCHAR
STARTCHAR 1EF6
ENCODING 7926
SWIDTH 583 0
DWIDTH 14 0
BBX 14 24 0 0
BITMAP
0780
0480
0480
0180
0300
0000
C00C
6018
6018
3030
3030
1860
1860
0CC0
0CC0
0780
0780
0300
0300
0300
0300
0300
0300
0300
ENDCHAR
STARTCHAR 1EF7
ENCODING 7927
SWIDTH 541 0
DWIDTH 13 0
BBX 12 24 0 -5
BITMAP
0700
0D80
0980
0300
0200
0000
C010
6030
6030
3060
3060
30C0
18C0
1880
0980
0D80
0F00
0700
0600
0600
0600
0C00
0C00
1800
ENDCHAR
STARTCHAR 1EF8
ENCODING 7928
SWIDTH 583 0
DWIDTH 14 0
BBX 14 22 0 0
BITMAP
0E40
0FC0
0080
0000
C00C
6018
6018
3030
3030
1860
1860
0CC0
0CC0
0780
0780
0300
0300
0300
0300
0300
0300
0300
ENDCHAR
STARTCHAR 1EF9
ENCODING 7929
SWIDTH 541 0
DWIDTH 13 0
BBX 12 22 0 -5
BITMAP
0EC0
1F80
0000
0000
C010
6030
6030
3060
3060
30C0
18C0
1880
0980
0D80
0F00
0700
0600
0600
0600
0C00
0C00
1800
ENDCHAR
STARTCHAR 2010
ENCODING 8208
SWIDTH 333 0
DWIDTH 8 0
BBX 6 2 1 5
BITMAP
FC
FC
ENDCHAR
STARTCHAR 2011
ENCODING 8209
SWIDTH 333 0
DWIDTH 8 0
BBX 6 2 1 5
BITMAP
FC
FC
ENDCHAR
STARTCHAR 2013
ENCODING 8211
SWIDTH 500 0
DWIDTH 12 0
BBX 12 2 0 5
BITMAP
FFF0
FFF0
ENDCHAR
STARTCHAR 2014
ENCODING 8212
SWIDTH 1000 0
DWIDTH 24 0
BBX 24 2 0 5
BITMAP
FFFFFF
FFFFFF
ENDCHAR
STARTCHAR 2016
ENCODING 8214
SWIDTH 625 0
DWIDTH 15 0
BBX 5 21 5 -3
BITMAP
98
98
98
98
98
98
98
98
98
98
98
98
98
98
98
98
98
98
98
98
98
ENDCHAR
STARTCHAR 2018
ENCODING 8216
SWIDTH 333 0
DWIDTH 8 0
BBX 3 5 3 13
BITMAP
80
C0
C0
60
60
ENDCHAR
STARTCHAR 2019
ENCODING 8217
SWIDTH 333 0
DWIDTH 8 0
BBX 4 5 2 13
BITMAP
30
20
60
60
C0
ENDCHAR
STARTCHAR 201A
ENCODING 8218
SWIDTH 375 0
DWIDTH 9 0
BBX 4 5 2 -2
BITMAP
30
20
60
60
C0
ENDCHAR
STARTCHAR 201C
ENCODING 8220
SWIDTH 500 0
DWIDTH 12 0
BBX 8 5 2 13
BITMAP
CC
6C
66
36
33
ENDCHAR
STARTCHAR 201D
ENCODING 8221
SWIDTH 500 0
DWIDTH 12 0
BBX 7 5 2 13
BITMAP
36
26
64
4C
CC
ENDCHAR
STARTCHAR 201E
ENCODING 8222
SWIDTH 500 0
DWIDTH 12 0
BBX 7 5 2 -2
BITMAP
32
26
64
6C
CC
ENDCHAR
STARTCHAR 2020
ENCODING 8224
SWIDTH 541 0
DWIDTH 13 0
BBX 11 21 1 -3
BITMAP
0400
0400
0400
0400
0400
FFE0
FFE0
0400
0400
0400
0400
0400
0400
0400
0400
0400
0400
0400
0400
0400
0400
ENDCHAR
STARTCHAR 2021
ENCODING 8225
SWIDTH 541 0
DWIDTH 13 0
BBX 11 21 1 -3
BITMAP
0400
0400
0400
0400
0400
FFE0
FFE0
0400
0400
FFE0
FFE0
0400
0400
0400
0400
0400
0400
0400
0400
0400
0400
ENDCHAR
STARTCHAR 2022
ENCODING 8226
SWIDTH 625 0
DWIDTH 15 0
BBX 9 9 3 3
BITMAP
3C00
7F00
FF00
FF80
FF80
FF80
FF00
7F00
3C00
ENDCHAR
STARTCHAR 2026
ENCODING 8230
SWIDTH 1000 0
DWIDTH 24 0
BBX 18 3 3 0
BITMAP
C0C0C0
C0C0C0
C0C0C0
ENDCHAR
STARTCHAR 2030
ENCODING 8240
SWIDTH 1166 0
DWIDTH 28 0
BBX 28 18 0 0
BITMAP
3E0C0000
7F0C0000
63180000
C1980000
C1B00000
C1B00000
63600000
3E600000
08400000
00C60100
009F87C0
01B18C60
0130D820
0320D830
0320D830
0630C860
061F8FE0
0C0F0780
ENDCHAR
STARTCHAR 2031
ENCODING 8241
SWIDTH 1583 0
DWIDTH 38 0
BBX 37 18 0 0
BITMAP
3E0C000000
7F0C000000
6318000000
C198000000
C1B0000000
C1B0000000
6360000000
3E60000000
0840000000
00C60100C0
009F87C3F0
01B18C6638
0130D82618
0320D83408
0320D83418
0630C86618
061F8FE3F0
0C0F0781E0
ENDCHAR
STARTCHAR 2039
ENCODING 8249
SWIDTH 250 0
DWIDTH 6 0
BBX 4 10 1 2
BITMAP
30
30
60
60
C0
C0
60
60
30
30
ENDCHAR
STARTCHAR 203A
ENCODING 8250
SWIDTH 250 0
DWIDTH 6 0
BBX 4 10 1 2
BITMAP
C0
C0
60
60
30
30
60
60
C0
C0
ENDCHAR
STARTCHAR 203B
ENCODING 8251
SWIDTH 625 0
DWIDTH 15 0
BBX 13 14 1 -1
BITMAP
0600
0700
3640
38E0
1DC0
CFB0
E738
CF30
1D80
18C0
30E0
2640
0700
0600
ENDCHAR
STARTCHAR 203D
ENCODING 8253
SWIDTH 583 0
DWIDTH 14 0
BBX 11 20 2 0
BITMAP
0C00
0C00
1E00
7F80
ECC0
CCC0
8C60
8C60
0C40
0CC0
0D80
0F00
0E00
0C00
0C00
0000
0000
0C00
0C00
0C00
ENDCHAR
STARTCHAR 203F
ENCODING 8255
SWIDTH 500 0
DWIDTH 12 0
BBX 10 3 1 -5
BITMAP
C040
7FC0
1E00
ENDCHAR
STARTCHAR 2040
ENCODING 8256
SWIDTH 500 0
DWIDTH 12 0
BBX 10 3 1 15
BITMAP
3F80
FFC0
8040
ENDCHAR
STARTCHAR 2044
ENCODING 8260
SWIDTH 166 0
DWIDTH 4 0
BBX 10 18 -3 0
BITMAP
00C0
0080
0180
0100
0300
0200
0600
0400
0400
0800
0800
1800
1000
3000
2000
6000
4000
C000
ENDCHAR
STARTCHAR 2045
ENCODING 8261
SWIDTH 375 0
DWIDTH 9 0
BBX 6 21 1 -3
BITMAP
1C
3C
60
C0
C0
C0
C0
C0
40
60
3C
3C
60
40
C0
C0
C0
40
60
7C
1C
ENDCHAR
STARTCHAR 2046
ENCODING 8262
SWIDTH 375 0
DWIDTH 9 0
BBX 6 21 1 -3
BITMAP
E0
F8
0C
0C
0C
0C
0C
0C
0C
1C
F8
F8
0C
0C
0C
0C
0C
0C
0C
F8
E0
ENDCHAR
STARTCHAR 2052
ENCODING 8274
SWIDTH 541 0
DWIDTH 13 0
BBX 12 18 1 0
BITMAP
0060
E060
E0C0
E0C0
C180
0100
0300
0200
0600
0C00
0C00
1800
1800
3060
30F0
60F0
6060
C000
ENDCHAR
STARTCHAR 2054
ENCODING 8276
SWIDTH 500 0
DWIDTH 12 0
BBX 10 3 1 -5
BITMAP
3F80
FFC0
8040
ENDCHAR
STARTCHAR 20A1
ENCODING 8353
SWIDTH 833 0
DWIDTH 20 0
BBX 17 22 1 -2
BITMAP
008000
008000
03F000
0FFE00
1C8700
308380
608180
608000
C08000
C08000
C08000
C08000
C08000
C08000
608000
608180
308380
1C8700
0FFE00
03F800
008000
008000
ENDCHAR
STARTCHAR 20A4
ENCODING 8356
SWIDTH 541 0
DWIDTH 13 0
BBX 14 18 0 0
BITMAP
07C0
1FF0
1830
3018
3018
2000
FFE0
FFE0
1800
FFE0
FFE0
060C
020C
030C
020C
061C
7FF8
7FE0
ENDCHAR
STARTCHAR 20A6
ENCODING 8358
SWIDTH 750 0
DWIDTH 18 0
BBX 16 18 1 0
BITMAP
7006
7006
7806
7C06
6C06
FFFF
FFFF
6306
6186
FFFF
FFFF
6066
6036
6036
601E
600E
600E
6006
ENDCHAR
STARTCHAR 20A9
ENCODING 8361
SWIDTH 958 0
DWIDTH 23 0
BBX 23 18 0 0
BITMAP
C01806
403804
60380C
60280C
606C0C
FFFFFE
FFFFFE
304418
10C610
FFFFFE
FFFFFE
188320
0D8360
0D8360
0D8360
0701C0
0701C0
0701C0
ENDCHAR
STARTCHAR 20AB
ENCODING 8363
SWIDTH 666 0
DWIDTH 16 0
BBX 14 20 1 -2
BITMAP
0010
0010
00FC
0010
1F90
38D0
6070
6030
4010
C010
4010
4010
6030
3070
1FD0
0790
0000
0000
FFFC
FFFC
ENDCHAR
STARTCHAR 20AC
ENCODING 8364
SWIDTH 541 0
DWIDTH 13 0
BBX 14 18 0 0
BITMAP
07E0
0FF0
1C18
180C
3000
3000
3000
FFF0
6000
6000
FFC0
2000
3000
3000
3000
1818
0FF8
07E0
ENDCHAR
STARTCHAR 20B1
ENCODING 8369
SWIDTH 583 0
DWIDTH 14 0
BBX 13 18 1 0
BITMAP
7F80
7FE0
6030
6030
6010
6018
6010
6030
6070
7FE0
7F00
6000
6000
FC00
6000
6000
6000
6000
ENDCHAR
STARTCHAR 2103
ENCODING 8451
SWIDTH 1250 0
DWIDTH 30 0
BBX 26 18 1 0
BITMAP
0001F800
0007FE00
7C0E0380
46180180
C23000C0
C2300000
C2600000
6E600000
3C600000
00600000
00600000
00600000
00700000
003000C0
00180180
000E0380
0007FE00
0001F800
ENDCHAR
STARTCHAR 2113
ENCODING 8467
SWIDTH 458 0
DWIDTH 11 0
BBX 8 18 2 0
BITMAP
3C
36
62
62
66
66
66
64
6C
78
78
70
E0
E3
63
66
3E
3C
ENDCHAR
STARTCHAR 2116
ENCODING 8470
SWIDTH 1125 0
DWIDTH 27 0
BBX 24 18 2 0
BITMAP
E00C00
E00C00
F00C00
F80C00
D80C00
CC0C3C
CE0CEE
C60C83
C30D83
C38D81
C18C83
C0CCC6
C0EC7C
C06C00
C03C00
C03C00
C01C00
C00DFF
ENDCHAR
STARTCHAR 2117
ENCODING 8471
SWIDTH 750 0
DWIDTH 18 0
BBX 17 17 0 0
BITMAP
03F000
0C0C00
100200
200100
63F100
421880
420880
821880
83F080
83E080
420080
420080
620100
220100
100200
0C0C00
03F000
ENDCHAR
STARTCHAR 2118
ENCODING 8472
SWIDTH 750 0
DWIDTH 18 0
BBX 15 19 1 -5
BITMAP
0800
1838
30FC
60C6
6186
4302
4702
4602
6C02
6C06
3806
3886
38FC
6C78
6C00
4400
C400
4C00
7800
ENDCHAR
STARTCHAR 211E
ENCODING 8478
SWIDTH 625 0
DWIDTH 15 0
BBX 12 18 2 0
BITMAP
FF00
FFC0
C060
C020
C030
C030
C030
C030
C060
C1E0
CF80
C600
C710
C330
C1E0
C1C0
C3C0
C260
ENDCHAR
STARTCHAR 2120
ENCODING 8480
SWIDTH 1041 0
DWIDTH 25 0
BBX 22 11 1 7
BITMAP
3C300C
76380C
43381C
603C14
383434
1E3624
033264
C33344
4331C4
7E3184
080000
ENDCHAR
STARTCHAR 2122
ENCODING 8482
SWIDTH 1000 0
DWIDTH 24 0
BBX 21 10 1 8
BITMAP
FE6018
FE7018
187038
187828
186868
186C48
1864C8
186688
186388
186308
ENDCHAR
STARTCHAR 2126
ENCODING 8486
SWIDTH 791 0
DWIDTH 19 0
BBX 17 17 1 0
BITMAP
03E000
0FF800
1C1E00
300600
600300
E00180
C00180
C00180
C00180
C00180
C00180
C00180
600300
700700
380E00
7E1F00
7E1F00
ENDCHAR
STARTCHAR 2127
ENCODING 8487
SWIDTH 791 0
DWIDTH 19 0
BBX 17 17 1 1
BITMAP
7E3F00
7E3F00
380E00
700700
600300
C00180
C00180
C00180
C00180
C00180
C00180
E00380
600300
300600
1C1E00
0FF800
03E000
ENDCHAR
STARTCHAR 212E
ENCODING 8494
SWIDTH 875 0
DWIDTH 21 0
BBX 18 16 1 0
BITMAP
03F000
0C0C00
100300
300180
700180
7001C0
7001C0
F001C0
7FFE00
700000
700000
700000
300000
100300
0C0600
03F800
ENDCHAR
STARTCHAR 2190
ENCODING 8592
SWIDTH 1000 0
DWIDTH 24 0
BBX 19 12 2 0
BITMAP
080000
1C0000
180000
300000
600000
FFFFE0
7FFFE0
700000
300000
180000
1C0000
080000
ENDCHAR
STARTCHAR 2191
ENCODING 8593
SWIDTH 750 0
DWIDTH 18 0
BBX 12 19 3 -3
BITMAP
0600
0F00
1F80
76E0
E670
4620
0600
0600
0600
0600
0600
0600
0600
0600
0600
0600
0600
0600
0600
ENDCHAR
STARTCHAR 2192
ENCODING 8594
SWIDTH 1000 0
DWIDTH 24 0
BBX 19 12 3 0
BITMAP
000200
000700
000300
000180
0000C0
FFFFE0
FFFFC0
0001C0
000180
000300
000700
000200
ENDCHAR
STARTCHAR 2193
ENCODING 8595
SWIDTH 750 0
DWIDTH 18 0
BBX 12 19 3 -4
BITMAP
0600
0600
0600
0600
0600
0600
0600
0600
0600
0600
0600
0600
0600
0620
E670
76E0
1F80
0F00
0600
ENDCHAR
STARTCHAR 2202
ENCODING 8706
SWIDTH 500 0
DWIDTH 12 0
BBX 12 18 0 0
BITMAP
7E00
7380
00C0
00C0
0060
0060
0020
0020
1FB0
31F0
6020
4020
C060
C060
C0C0
60C0
7380
1E00
ENDCHAR
STARTCHAR 2211
ENCODING 8721
SWIDTH 708 0
DWIDTH 17 0
BBX 13 21 2 -3
BITMAP
FFF8
FFF8
4000
6000
6000
3000
3000
1000
1800
1800
0C00
1800
1800
1000
3000
3000
6000
6000
4000
FFF8
FFF8
ENDCHAR
STARTCHAR 2212
ENCODING 8722
SWIDTH 625 0
DWIDTH 15 0
BBX 12 2 1 5
BITMAP
FFF0
FFF0
ENDCHAR
STARTCHAR 2213
ENCODING 8723
SWIDTH 625 0
DWIDTH 15 0
BBX 12 14 1 -2
BITMAP
FFF0
FFF0
0000
0600
0600
0600
0600
FFF0
FFF0
0600
0600
0600
0600
0600
ENDCHAR
STARTCHAR 2215
ENCODING 8725
SWIDTH 0 0
DWIDTH 0 0
BBX 10 18 -5 0
BITMAP
00C0
0080
0180
0100
0300
0200
0600
0400
0400
0800
0800
1800
1000
3000
2000
6000
4000
C000
ENDCHAR
STARTCHAR 2217
ENCODING 8727
SWIDTH 500 0
DWIDTH 12 0
BBX 9 8 1 2
BITMAP
3200
3600
1E00
FF80
FF80
1E00
3600
3200
ENDCHAR
STARTCHAR 221A
ENCODING 8730
SWIDTH 541 0
DWIDTH 13 0
BBX 12 23 0 -1
BITMAP
0010
0010
0010
0010
0010
0010
0020
0020
0020
0020
3020
D820
0840
0C40
0440
0640
0240
0340
0180
0180
0180
0080
0080
ENDCHAR
STARTCHAR 221E
ENCODING 8734
SWIDTH 750 0
DWIDTH 18 0
BBX 16 10 1 3
BITMAP
3C3C
7E7E
E3E7
C1C3
C181
C181
C1C3
63E7
7E7E
1C1C
ENDCHAR
STARTCHAR 2222
ENCODING 8738
SWIDTH 625 0
DWIDTH 15 0
BBX 10 14 2 -1
BITMAP
0400
0640
03C0
0780
1F80
7980
E180
E180
7980
1F80
0780
03C0
0640
0400
ENDCHAR
STARTCHAR 2248
ENCODING 8776
SWIDTH 625 0
DWIDTH 15 0
BBX 12 8 1 2
BITMAP
3810
7E30
C3E0
40C0
3810
7E30
C7E0
40C0
ENDCHAR
STARTCHAR 2260
ENCODING 8800
SWIDTH 625 0
DWIDTH 15 0
BBX 12 15 1 -2
BITMAP
0040
00C0
00C0
0180
FFF0
FFF0
0300
0600
FFF0
FFF0
1800
1800
1800
3000
1000
ENDCHAR
STARTCHAR 2264
ENCODING 8804
SWIDTH 625 0
DWIDTH 15 0
BBX 10 19 2 -1
BITMAP
0040
00C0
0380
0700
0E00
1C00
3000
E000
E000
7000
3800
0C00
0700
0380
01C0
0040
0000
7FC0
7FC0
ENDCHAR
STARTCHAR 2265
ENCODING 8805
SWIDTH 625 0
DWIDTH 15 0
BBX 9 19 3 -1
BITMAP
8000
C000
E000
7000
1800
0E00
0700
0380
0180
0700
0E00
1C00
3800
6000
C000
8000
0000
FF80
FF80
ENDCHAR
STARTCHAR 22C6
ENCODING 8902
SWIDTH 541 0
DWIDTH 13 0
BBX 12 12 1 1
BITMAP
0400
0400
0400
0400
C670
7FE0
1F00
0E00
1B00
1180
3080
2080
ENDCHAR
STARTCHAR 2300
ENCODING 8960
SWIDTH 625 0
DWIDTH 15 0
BBX 11 12 2 0
BITMAP
0E60
3FE0
71C0
C3C0
C760
CE60
CC60
D860
F0C0
71C0
FF80
9E00
ENDCHAR
STARTCHAR 2329
ENCODING 9001
SWIDTH 541 0
DWIDTH 13 0
BBX 10 21 1 -3
BITMAP
00C0
0180
0300
0700
0600
0C00
1C00
1800
3000
6000
E000
6000
3000
1800
1C00
0C00
0600
0700
0300
0180
00C0
ENDCHAR
STARTCHAR 232A
ENCODING 9002
SWIDTH 541 0
DWIDTH 13 0
BBX 9 21 2 -3
BITMAP
C000
6000
7000
3000
1800
1C00
0C00
0600
0300
0300
0180
0300
0300
0600
0C00
1C00
1800
3000
7000
6000
C000
ENDCHAR
STARTCHAR 2422
ENCODING 9250
SWIDTH 666 0
DWIDTH 16 0
BBX 14 18 1 0
BITMAP
C000
C200
CE00
FC00
E000
C7C0
DFF0
F038
E00C
E00C
C00C
C004
C00C
E00C
E01C
F038
DFF0
C7C0
ENDCHAR
STARTCHAR 2423
ENCODING 9251
SWIDTH 500 0
DWIDTH 12 0
BBX 9 8 1 -2
BITMAP
C080
C080
C080
C080
C080
C080
FF80
FF80
ENDCHAR
STARTCHAR 25CA
ENCODING 9674
SWIDTH 500 0
DWIDTH 12 0
BBX 10 18 1 0
BITMAP
0C00
1C00
1600
3200
2300
6100
4180
C080
80C0
80C0
C080
4180
6100
2300
3200
1600
1C00
0C00
ENDCHAR
STARTCHAR 25E6
ENCODING 9702
SWIDTH 625 0
DWIDTH 15 0
BBX 9 9 3 3
BITMAP
1C00
7E00
E300
C180
C180
C180
C300
7F00
3C00
ENDCHAR
STARTCHAR 266A
ENCODING 9834
SWIDTH 666 0
DWIDTH 16 0
BBX 14 18 2 0
BITMAP
0300
0300
0300
0380
03C0
0360
0370
0330
0318
0308
030C
030C
3F00
FF00
FF00
FF00
FE00
7C00
ENDCHAR
STARTCHAR 26AD
ENCODING 9901
SWIDTH 541 0
DWIDTH 13 0
BBX 22 14 -4 -1
BITMAP
0F0780
3FDFE0
70F870
607038
C07018
C05808
C0D80C
C0D80C
C05808
C07018
607038
70F870
3FDFE0
0F0780
ENDCHAR
STARTCHAR 26AE
ENCODING 9902
SWIDTH 541 0
DWIDTH 13 0
BBX 24 26 -5 -7
BITMAP
001800
001800
001800
001800
001800
001800
081820
3E18F8
6319CC
C19906
C19B02
809B03
809B03
809A03
809B03
C19B06
C19986
6319CC
3E18F8
081820
001800
001800
001800
001800
001800
001800
ENDCHAR
STARTCHAR 27E6
ENCODING 10214
SWIDTH 416 0
DWIDTH 10 0
BBX 8 21 1 -3
BITMAP
FF
FF
CC
CC
CC
CC
CC
CC
CC
CC
CC
CC
CC
CC
CC
CC
CC
CC
CC
FF
FF
ENDCHAR
STARTCHAR 27E7
ENCODING 10215
SWIDTH 416 0
DWIDTH 10 0
BBX 8 21 1 -3
BITMAP
FF
FF
33
33
33
33
33
33
33
33
33
33
33
33
33
33
33
33
33
FF
FF
ENDCHAR
STARTCHAR 2A7D
ENCODING 10877
SWIDTH 625 0
DWIDTH 15 0
BBX 10 23 2 -5
BITMAP
0040
00C0
0180
0700
0E00
1C00
3800
6000
E000
7000
3800
1C00
0E00
0300
41C0
60C0
3840
1C00
0E00
0700
0180
00C0
0040
ENDCHAR
STARTCHAR 2A7E
ENCODING 10878
SWIDTH 625 0
DWIDTH 15 0
BBX 10 23 2 -5
BITMAP
8000
C000
6000
3800
1C00
0E00
0700
0380
01C0
0380
0700
0E00
1C00
3000
E080
C380
8700
0E00
1C00
3800
6000
C000
8000
ENDCHAR
STARTCHAR E000
ENCODING 57344
SWIDTH 625 0
DWIDTH 15 0
BBX 13 22 1 0
BITMAP
0040
01C0
0380
0200
0000
1840
1DC0
0F80
0000
0700
0700
0D80
0D80
08C0
18C0
1060
3FE0
3FF0
6030
6010
C018
C018
ENDCHAR
STARTCHAR E001
ENCODING 57345
SWIDTH 625 0
DWIDTH 15 0
BBX 13 21 1 -4
BITMAP
18C0
0F80
0000
0000
0700
0700
0D80
0D80
08C0
18C0
1060
3FE0
3FF0
6030
6010
C018
C018
0000
0200
0200
0200
ENDCHAR
STARTCHAR E002
ENCODING 57346
SWIDTH 625 0
DWIDTH 15 0
BBX 13 22 1 0
BITMAP
1000
1C00
0F00
0200
0000
1840
1DC0
0F80
0000
0700
0700
0D80
0D80
08C0
18C0
1060
3FE0
3FF0
6030
6010
C018
C018
ENDCHAR
STARTCHAR E003
ENCODING 57347
SWIDTH 625 0
DWIDTH 15 0
BBX 13 22 1 0
BITMAP
0700
0D80
0980
0300
0200
1840
1DC0
0F80
0000
0700
0700
0D80
0D80
08C0
18C0
1060
3FE0
3FF0
6030
6010
C018
C018
ENDCHAR
STARTCHAR E004
ENCODING 57348
SWIDTH 625 0
DWIDTH 15 0
BBX 13 20 1 0
BITMAP
1FC0
0B80
0000
1840
1DC0
0F80
0000
0700
0700
0D80
0D80
08C0
18C0
1060
3FE0
3FF0
6030
6010
C018
C018
ENDCHAR
STARTCHAR E005
ENCODING 57349
SWIDTH 625 0
DWIDTH 15 0
BBX 13 17 1 0
BITMAP
18C0
0D80
0700
0000
0700
0700
0D80
0D80
08C0
18C0
1060
3FE0
3FF0
6030
6010
C018
C018
ENDCHAR
STARTCHAR E006
ENCODING 57350
SWIDTH 625 0
DWIDTH 15 0
BBX 13 22 1 0
BITMAP
00C0
01C0
0700
0400
0000
0700
0D80
18C0
0000
0700
0700
0D80
0D80
08C0
18C0
1060
3FE0
3FF0
6030
6010
C018
C018
ENDCHAR
STARTCHAR E007
ENCODING 57351
SWIDTH 625 0
DWIDTH 15 0
BBX 13 21 1 -4
BITMAP
0700
0D80
18C0
0000
0700
0700
0D80
0D80
08C0
18C0
1060
3FE0
3FF0
6030
6010
C018
C018
0000
0200
0200
0200
ENDCHAR
STARTCHAR E008
ENCODING 57352
SWIDTH 625 0
DWIDTH 15 0
BBX 13 22 1 0
BITMAP
1800
1C00
0700
0100
0000
0700
0D80
18C0
0000
0700
0700
0D80
0D80
08C0
18C0
1060
3FE0
3FF0
6030
6010
C018
C018
ENDCHAR
STARTCHAR E009
ENCODING 57353
SWIDTH 625 0
DWIDTH 15 0
BBX 13 23 1 0
BITMAP
01C0
0360
0260
00C0
0080
0000
0700
0D80
18C0
0000
0700
0700
0D80
0D80
08C0
18C0
1060
3FE0
3FF0
6030
6010
C018
C018
ENDCHAR
STARTCHAR E00A
ENCODING 57354
SWIDTH 625 0
DWIDTH 15 0
BBX 13 20 1 0
BITMAP
0E40
1FC0
0000
0700
0D80
18C0
0000
0700
0700
0D80
0D80
08C0
18C0
1060
3FE0
3FF0
6030
6010
C018
C018
ENDCHAR
STARTCHAR E00B
ENCODING 57355
SWIDTH 625 0
DWIDTH 15 0
BBX 13 18 1 0
BITMAP
4400
E700
3180
1880
0000
0700
0700
0D80
0D80
08C0
18C0
1060
3FE0
3FF0
6030
6010
C018
C018
ENDCHAR
STARTCHAR E00C
ENCODING 57356
SWIDTH 625 0
DWIDTH 15 0
BBX 13 17 1 -4
BITMAP
0700
0700
0D80
0D80
08C0
18C0
1060
3FE0
3FF0
6030
6010
C018
C018
0000
0200
0200
0200
ENDCHAR
STARTCHAR E00D
ENCODING 57357
SWIDTH 625 0
DWIDTH 15 0
BBX 13 19 1 0
BITMAP
0700
0D80
0980
0300
0200
0000
0700
0700
0D80
0D80
08C0
18C0
1060
3FE0
3FF0
6030
6010
C018
C018
ENDCHAR
STARTCHAR E00F
ENCODING 57359
SWIDTH 625 0
DWIDTH 15 0
BBX 14 24 1 -6
BITMAP
0040
01C0
0700
0400
0000
0700
0700
0D80
0D80
08C0
18C0
1060
3FE0
3FF0
6030
6010
C018
C018
0018
0030
0030
0030
003C
001C
ENDCHAR
STARTCHAR E010
ENCODING 57360
SWIDTH 625 0
DWIDTH 15 0
BBX 13 23 1 0
BITMAP
00C0
01C0
0700
0400
0200
0700
0880
0880
0700
0000
0700
0700
0D80
0D80
08C0
18C0
1060
3FE0
3FF0
6030
6010
C018
C018
ENDCHAR
STARTCHAR E011
ENCODING 57361
SWIDTH 666 0
DWIDTH 16 0
BBX 14 13 1 0
BITMAP
3F80
3FE0
2030
2018
200C
FE0C
FE0C
200C
200C
2018
2030
3FE0
3F80
ENDCHAR
STARTCHAR E012
ENCODING 57362
SWIDTH 625 0
DWIDTH 15 0
BBX 12 17 2 -4
BITMAP
FF00
FF80
C0E0
C060
C030
C030
C030
C030
C030
C060
C0E0
FFC0
FF00
0000
1800
1800
1800
ENDCHAR
STARTCHAR E013
ENCODING 57363
SWIDTH 625 0
DWIDTH 15 0
BBX 12 17 2 -4
BITMAP
FF00
FF80
C0E0
C060
C030
C030
C030
C030
C030
C060
C0E0
FFC0
FF00
0000
0000
FF00
FF00
ENDCHAR
STARTCHAR E014
ENCODING 57364
SWIDTH 208 0
DWIDTH 5 0
BBX 2 13 2 0
BITMAP
C0
C0
C0
C0
C0
C0
C0
C0
C0
C0
C0
C0
C0
ENDCHAR
STARTCHAR E015
ENCODING 57365
SWIDTH 416 0
DWIDTH 10 0
BBX 7 13 1 0
BITMAP
02
02
02
02
02
02
02
02
02
82
C6
FE
7C
ENDCHAR
STARTCHAR E016
ENCODING 57366
SWIDTH 458 0
DWIDTH 11 0
BBX 8 22 2 0
BITMAP
02
0E
38
30
00
38
7C
C7
00
FF
FF
C0
C0
C0
FF
FF
C0
C0
C0
C0
FF
FF
ENDCHAR
STARTCHAR E017
ENCODING 57367
SWIDTH 458 0
DWIDTH 11 0
BBX 8 21 2 -4
BITMAP
38
7C
C7
00
FF
FF
C0
C0
C0
FF
FF
C0
C0
C0
C0
FF
FF
00
10
10
10
ENDCHAR
STARTCHAR E018
ENCODING 57368
SWIDTH 458 0
DWIDTH 11 0
BBX 8 22 2 0
BITMAP
40
F0
38
08
00
38
7C
C7
00
FF
FF
C0
C0
C0
FF
FF
C0
C0
C0
C0
FF
FF
ENDCHAR
STARTCHAR E019
ENCODING 57369
SWIDTH 458 0
DWIDTH 11 0
BBX 8 23 2 0
BITMAP
0E
19
13
06
04
00
38
7C
C7
00
FF
FF
C0
C0
C0
FF
FF
C0
C0
C0
C0
FF
FF
ENDCHAR
STARTCHAR E01A
ENCODING 57370
SWIDTH 458 0
DWIDTH 11 0
BBX 8 20 2 0
BITMAP
72
7E
00
38
7C
C7
00
FF
FF
C0
C0
C0
FF
FF
C0
C0
C0
C0
FF
FF
ENDCHAR
STARTCHAR E01B
ENCODING 57371
SWIDTH 458 0
DWIDTH 11 0
BBX 10 18 0 0
BITMAP
8C00
CE00
7300
1180
0000
3FC0
3FC0
3000
3000
3000
3FC0
3FC0
3000
3000
3000
3000
3FC0
3FC0
ENDCHAR
STARTCHAR E01C
ENCODING 57372
SWIDTH 458 0
DWIDTH 11 0
BBX 8 17 2 -4
BITMAP
FF
FF
C0
C0
C0
FF
FF
C0
C0
C0
C0
FF
FF
00
10
10
10
ENDCHAR
STARTCHAR E01D
ENCODING 57373
SWIDTH 458 0
DWIDTH 11 0
BBX 8 19 2 0
BITMAP
3C
24
64
08
18
00
FF
FF
C0
C0
C0
FF
FF
C0
C0
C0
C0
FF
FF
ENDCHAR
STARTCHAR E01E
ENCODING 57374
SWIDTH 458 0
DWIDTH 11 0
BBX 8 24 2 -6
BITMAP
06
0E
38
20
00
FF
FF
C0
C0
C0
FF
FF
C0
C0
C0
C0
FF
FF
06
0C
0C
0C
0F
07
ENDCHAR
STARTCHAR E01F
ENCODING 57375
SWIDTH 458 0
DWIDTH 11 0
BBX 8 13 2 0
BITMAP
FF
FF
03
03
03
FF
FF
03
03
03
03
FF
FF
ENDCHAR
STARTCHAR E020
ENCODING 57376
SWIDTH 458 0
DWIDTH 11 0
BBX 8 17 2 0
BITMAP
76
7E
00
00
FF
FF
C0
C0
C0
FF
FF
C0
C0
C0
C0
FF
FF
ENDCHAR
STARTCHAR E021
ENCODING 57377
SWIDTH 458 0
DWIDTH 11 0
BBX 8 13 2 0
BITMAP
FF
03
03
03
03
03
FF
03
03
03
03
FF
FF
ENDCHAR
STARTCHAR E022
ENCODING 57378
SWIDTH 708 0
DWIDTH 17 0
BBX 15 18 1 0
BITMAP
0060
00E0
0380
0200
0000
07E0
1FF0
301C
600C
C000
C000
C000
C7FE
C7FE
600C
701C
1FF8
07E0
ENDCHAR
STARTCHAR E023
ENCODING 57379
SWIDTH 708 0
DWIDTH 17 0
BBX 15 17 1 0
BITMAP
0C60
06C0
0380
0000
07E0
1FF0
301C
600C
C000
C000
C000
C7FE
C7FE
600C
701C
1FF8
07E0
ENDCHAR
STARTCHAR E024
ENCODING 57380
SWIDTH 958 0
DWIDTH 23 0
BBX 19 13 2 0
BITMAP
3C0780
7E1FC0
C31860
C31060
C01800
781E00
3E07C0
0700E0
010060
813060
C33860
FF1FC0
3C0F80
ENDCHAR
STARTCHAR E025
ENCODING 57381
SWIDTH 583 0
DWIDTH 14 0
BBX 10 17 2 0
BITMAP
3900
3F00
0200
0000
C0C0
C0C0
C0C0
C0C0
C0C0
FFC0
FFC0
C0C0
C0C0
C0C0
C0C0
C0C0
C0C0
ENDCHAR
STARTCHAR E026
ENCODING 57382
SWIDTH 583 0
DWIDTH 14 0
BBX 10 17 2 -4
BITMAP
C0C0
C0C0
C0C0
C0C0
C0C0
FFC0
FFC0
C0C0
C0C0
C0C0
C0C0
C0C0
C0C0
0000
0000
2180
3F00
ENDCHAR
STARTCHAR E027
ENCODING 57383
SWIDTH 583 0
DWIDTH 14 0
BBX 10 17 2 0
BITMAP
3300
3300
3300
0000
C0C0
C0C0
C0C0
C0C0
C0C0
FFC0
FFC0
C0C0
C0C0
C0C0
C0C0
C0C0
C0C0
ENDCHAR
STARTCHAR E028
ENCODING 57384
SWIDTH 208 0
DWIDTH 5 0
BBX 7 17 -1 0
BITMAP
C6
6C
38
00
18
18
18
18
18
18
18
18
18
18
18
18
18
ENDCHAR
STARTCHAR E029
ENCODING 57385
SWIDTH 208 0
DWIDTH 5 0
BBX 8 18 -3 0
BITMAP
8C
CE
73
11
00
06
06
06
06
06
06
06
06
06
06
06
06
06
ENDCHAR
STARTCHAR E02A
ENCODING 57386
SWIDTH 208 0
DWIDTH 5 0
BBX 6 23 0 0
BITMAP
04
1C
70
60
00
00
C8
C8
C8
00
30
30
30
30
30
30
30
30
30
30
30
30
30
ENDCHAR
STARTCHAR E02C
ENCODING 57388
SWIDTH 208 0
DWIDTH 5 0
BBX 2 17 2 -4
BITMAP
C0
C0
C0
C0
C0
C0
C0
C0
C0
C0
C0
C0
C0
00
C0
C0
C0
ENDCHAR
STARTCHAR E02D
ENCODING 57389
SWIDTH 208 0
DWIDTH 5 0
BBX 5 19 0 0
BITMAP
70
C8
D8
10
20
00
30
30
30
30
30
30
30
30
30
30
30
30
30
ENDCHAR
STARTCHAR E02E
ENCODING 57390
SWIDTH 208 0
DWIDTH 5 0
BBX 4 17 1 0
BITMAP
F0
F0
00
00
60
60
60
60
60
60
60
60
60
60
60
60
60
ENDCHAR
STARTCHAR E02F
ENCODING 57391
SWIDTH 208 0
DWIDTH 5 0
BBX 6 24 0 -6
BITMAP
04
1C
70
20
00
30
30
30
30
30
30
30
30
30
30
30
30
30
60
C0
C0
C0
F0
70
ENDCHAR
STARTCHAR E030
ENCODING 57392
SWIDTH 416 0
DWIDTH 10 0
BBX 10 18 1 0
BITMAP
0040
01C0
0700
0600
0000
0200
0200
0200
0200
0200
0200
0200
0200
0200
8200
C600
FE00
7C00
ENDCHAR
STARTCHAR E031
ENCODING 57393
SWIDTH 416 0
DWIDTH 10 0
BBX 9 17 0 0
BITMAP
EC00
FC00
0000
0000
3000
3000
3000
3000
3000
3000
3000
3000
3000
3000
3000
3F80
3F80
ENDCHAR
STARTCHAR E032
ENCODING 57394
SWIDTH 458 0
DWIDTH 11 0
BBX 9 13 1 0
BITMAP
2000
2000
2000
2400
2C00
3800
7000
E000
A000
2000
2000
3F80
3F80
ENDCHAR
STARTCHAR E033
ENCODING 57395
SWIDTH 708 0
DWIDTH 17 0
BBX 15 17 1 0
BITMAP
0C60
06C0
0380
0000
07C0
1FF0
3018
600C
C006
C006
C006
C006
C006
600C
3018
1FF0
07C0
ENDCHAR
STARTCHAR E034
ENCODING 57396
SWIDTH 708 0
DWIDTH 17 0
BBX 15 22 1 0
BITMAP
0020
00E0
01C0
0380
0200
0000
0380
0C60
0000
07C0
1FF0
3018
600C
C006
C006
C006
C006
C006
600C
3018
1FF0
07C0
ENDCHAR
STARTCHAR E035
ENCODING 57397
SWIDTH 708 0
DWIDTH 17 0
BBX 15 21 1 -4
BITMAP
0380
06C0
0C60
0000
07C0
1FF0
3018
600C
C006
C006
C006
C006
C006
600C
3018
1FF0
07C0
0000
0100
0100
0100
ENDCHAR
STARTCHAR E036
ENCODING 57398
SWIDTH 708 0
DWIDTH 17 0
BBX 15 22 1 0
BITMAP
0800
0E00
0700
0380
0080
0000
0380
0C60
0000
07C0
1FF0
3018
600C
C006
C006
C006
C006
C006
600C
3018
1FF0
07C0
ENDCHAR
STARTCHAR E037
ENCODING 57399
SWIDTH 708 0
DWIDTH 17 0
BBX 15 22 1 0
BITMAP
01E0
0130
0060
0040
0000
0380
06C0
0C60
0000
07C0
1FF0
3018
600C
C006
C006
C006
C006
C006
600C
3018
1FF0
07C0
ENDCHAR
STARTCHAR E038
ENCODING 57400
SWIDTH 708 0
DWIDTH 17 0
BBX 15 20 1 0
BITMAP
0720
0FE0
0000
0380
06C0
0C60
0000
07C0
1FF0
3018
600C
C006
C006
C006
C006
C006
600C
3018
1FF0
07C0
ENDCHAR
STARTCHAR E039
ENCODING 57401
SWIDTH 708 0
DWIDTH 17 0
BBX 15 18 1 0
BITMAP
6200
7380
18C0
0C40
0000
07C0
1FF0
3018
600C
C006
C006
C006
C006
C006
600C
3018
1FF0
07C0
ENDCHAR
STARTCHAR E03A
ENCODING 57402
SWIDTH 708 0
DWIDTH 17 0
BBX 15 17 1 -4
BITMAP
07C0
1FF0
3018
600C
C006
C006
C006
C006
C006
600C
3018
1FF0
07C0
0000
0100
0100
0100
ENDCHAR
STARTCHAR E03B
ENCODING 57403
SWIDTH 958 0
DWIDTH 23 0
BBX 21 13 1 0
BITMAP
0FC7F8
1FF7F8
701E00
600E00
C00600
C007F8
C007F8
C00600
C00600
600E00
701E00
1FF7F8
0FE7F8
ENDCHAR
STARTCHAR E03C
ENCODING 57404
SWIDTH 708 0
DWIDTH 17 0
BBX 15 18 1 0
BITMAP
0380
0440
00C0
0100
0000
07C0
1FF0
3018
600C
C006
C006
C006
C006
C006
600C
3018
1FF0
07C0
ENDCHAR
STARTCHAR E03D
ENCODING 57405
SWIDTH 750 0
DWIDTH 18 0
BBX 16 13 1 0
BITMAP
07E1
1FF1
381F
600E
6006
C006
C002
C006
6006
600E
301C
1FF8
07E0
ENDCHAR
STARTCHAR E03E
ENCODING 57406
SWIDTH 750 0
DWIDTH 18 0
BBX 16 18 1 0
BITMAP
0020
00E0
0380
0300
0000
07E1
1FF1
381F
600E
6006
C006
C002
C006
6006
600E
301C
1FF8
07E0
ENDCHAR
STARTCHAR E03F
ENCODING 57407
SWIDTH 750 0
DWIDTH 18 0
BBX 16 17 1 -4
BITMAP
07E1
1FF1
381F
600E
6006
C006
C002
C006
6006
600E
301C
1FF8
07E0
0000
0180
0180
0180
ENDCHAR
STARTCHAR E040
ENCODING 57408
SWIDTH 750 0
DWIDTH 18 0
BBX 16 18 1 0
BITMAP
0400
0E00
0380
0080
0000
07E1
1FF1
381F
600E
6006
C006
C002
C006
6006
600E
301C
1FF8
07E0
ENDCHAR
STARTCHAR E041
ENCODING 57409
SWIDTH 750 0
DWIDTH 18 0
BBX 16 18 1 0
BITMAP
03C0
0640
00C0
0180
0000
07E1
1FF1
381F
600E
6006
C006
C002
C006
6006
600E
301C
1FF8
07E0
ENDCHAR
STARTCHAR E042
ENCODING 57410
SWIDTH 750 0
DWIDTH 18 0
BBX 16 17 1 0
BITMAP
0720
0FE0
0040
0000
07E1
1FF1
381F
600E
6006
C006
C002
C006
6006
600E
301C
1FF8
07E0
ENDCHAR
STARTCHAR E043
ENCODING 57411
SWIDTH 708 0
DWIDTH 17 0
BBX 15 19 1 -6
BITMAP
07C0
1FF0
3018
600C
C006
C006
C006
C006
C006
600C
3018
1FF0
07C0
0180
0300
0300
0300
01C0
00C0
ENDCHAR
STARTCHAR E044
ENCODING 57412
SWIDTH 708 0
DWIDTH 17 0
BBX 15 24 1 -6
BITMAP
0060
00E0
0380
0200
0000
07C0
1FF0
3018
600C
C006
C006
C006
C006
C006
600C
3018
1FF0
07C0
0180
0300
0300
0300
01C0
00C0
ENDCHAR
STARTCHAR E045
ENCODING 57413
SWIDTH 541 0
DWIDTH 13 0
BBX 12 18 0 0
BITMAP
8400
E700
3380
1080
0000
3F80
3FE0
3060
3030
3030
3030
30E0
37C0
3300
3180
31C0
30C0
3060
ENDCHAR
STARTCHAR E046
ENCODING 57414
SWIDTH 541 0
DWIDTH 13 0
BBX 10 17 2 0
BITMAP
1800
1800
1800
0000
FE00
FF80
C180
C0C0
C0C0
C0C0
C380
DF00
CC00
C600
C700
C300
C180
ENDCHAR
STARTCHAR E047
ENCODING 57415
SWIDTH 416 0
DWIDTH 10 0
BBX 8 17 1 0
BITMAP
E7
7E
18
00
3C
7E
C3
C3
C0
78
3E
07
01
81
C3
FF
3C
ENDCHAR
STARTCHAR E048
ENCODING 57416
SWIDTH 416 0
DWIDTH 10 0
BBX 8 17 1 -4
BITMAP
3C
7E
C3
C3
C0
78
3E
07
01
81
C3
FF
3C
00
18
18
18
ENDCHAR
STARTCHAR E049
ENCODING 57417
SWIDTH 375 0
DWIDTH 9 0
BBX 8 17 0 0
BITMAP
7E
7E
00
00
FF
FF
18
18
18
18
18
18
18
18
18
18
18
ENDCHAR
STARTCHAR E04A
ENCODING 57418
SWIDTH 375 0
DWIDTH 9 0
BBX 8 19 0 -6
BITMAP
FF
FF
18
18
18
18
18
18
18
18
18
18
18
10
1E
12
02
16
1C
ENDCHAR
STARTCHAR E04B
ENCODING 57419
SWIDTH 375 0
DWIDTH 9 0
BBX 8 17 0 0
BITMAP
26
26
26
00
FF
FF
18
18
18
18
18
18
18
18
18
18
18
ENDCHAR
STARTCHAR E04C
ENCODING 57420
SWIDTH 375 0
DWIDTH 9 0
BBX 8 17 0 -4
BITMAP
FF
FF
18
18
18
18
18
18
18
18
18
18
18
00
18
18
18
ENDCHAR
STARTCHAR E04D
ENCODING 57421
SWIDTH 375 0
DWIDTH 9 0
BBX 8 17 0 -4
BITMAP
FF
FF
18
18
18
18
18
18
18
18
18
18
18
00
00
FF
FF
ENDCHAR
STARTCHAR E04E
ENCODING 57422
SWIDTH 583 0
DWIDTH 14 0
BBX 10 17 2 -4
BITMAP
C0C0
C0C0
C0C0
C0C0
C0C0
C0C0
C0C0
C0C0
C0C0
C0C0
C180
7F80
3E00
0000
1E00
3700
6100
ENDCHAR
STARTCHAR E050
ENCODING 57424
SWIDTH 583 0
DWIDTH 14 0
BBX 10 17 2 0
BITMAP
6300
3600
1C00
0000
C0C0
C0C0
C0C0
C0C0
C0C0
C0C0
C0C0
C0C0
C0C0
C0C0
C180
7F80
3E00
ENDCHAR
STARTCHAR E051
ENCODING 57425
SWIDTH 583 0
DWIDTH 14 0
BBX 11 18 1 0
BITMAP
8C00
CE00
7300
1100
0000
6060
6060
6060
6060
6060
6060
6060
6060
6060
6060
60C0
3FC0
1F00
ENDCHAR
STARTCHAR E052
ENCODING 57426
SWIDTH 583 0
DWIDTH 14 0
BBX 10 23 2 0
BITMAP
0100
0700
1C00
1800
0000
0000
3200
3200
3200
0000
C0C0
C0C0
C0C0
C0C0
C0C0
C0C0
C0C0
C0C0
C0C0
C0C0
C180
7F80
3E00
ENDCHAR
STARTCHAR E053
ENCODING 57427
SWIDTH 583 0
DWIDTH 14 0
BBX 10 22 2 0
BITMAP
6300
3600
1C00
0000
0000
3200
3200
3200
0000
C0C0
C0C0
C0C0
C0C0
C0C0
C0C0
C0C0
C0C0
C0C0
C0C0
C180
7F80
3E00
ENDCHAR
STARTCHAR E054
ENCODING 57428
SWIDTH 583 0
DWIDTH 14 0
BBX 10 23 2 0
BITMAP
2000
7800
1C00
0400
0000
0000
3200
3200
3200
0000
C0C0
C0C0
C0C0
C0C0
C0C0
C0C0
C0C0
C0C0
C0C0
C0C0
C180
7F80
3E00
ENDCHAR
STARTCHAR E055
ENCODING 57429
SWIDTH 583 0
DWIDTH 14 0
BBX 10 17 2 -4
BITMAP
C0C0
C0C0
C0C0
C0C0
C0C0
C0C0
C0C0
C0C0
C0C0
C0C0
C180
7F80
3E00
0000
0C00
0C00
0C00
ENDCHAR
STARTCHAR E056
ENCODING 57430
SWIDTH 583 0
DWIDTH 14 0
BBX 10 19 2 0
BITMAP
1C00
3200
3600
0400
0C00
0000
C0C0
C0C0
C0C0
C0C0
C0C0
C0C0
C0C0
C0C0
C0C0
C0C0
C180
7F80
3E00
ENDCHAR
STARTCHAR E057
ENCODING 57431
SWIDTH 666 0
DWIDTH 16 0
BBX 13 13 2 0
BITMAP
C0D8
C0D8
C0F0
C0F0
C0C0
C0C0
C0C0
C0C0
C0C0
40C0
60C0
3F80
1F00
ENDCHAR
STARTCHAR E058
ENCODING 57432
SWIDTH 666 0
DWIDTH 16 0
BBX 13 18 2 0
BITMAP
0100
0380
0E00
0800
0000
C0D8
C0D8
C0F0
C0F0
C0C0
C0C0
C0C0
C0C0
C0C0
40C0
60C0
3F80
1F00
ENDCHAR
STARTCHAR E059
ENCODING 57433
SWIDTH 666 0
DWIDTH 16 0
BBX 13 17 2 -4
BITMAP
C0D8
C0D8
C0F0
C0F0
C0C0
C0C0
C0C0
C0C0
C0C0
40C0
60C0
3F80
1F00
0000
0C00
0C00
0C00
ENDCHAR
STARTCHAR E05A
ENCODING 57434
SWIDTH 666 0
DWIDTH 16 0
BBX 13 18 2 0
BITMAP
2000
3800
0E00
0600
0000
C0D8
C0D8
C0F0
C0F0
C0C0
C0C0
C0C0
C0C0
C0C0
40C0
60C0
3F80
1F00
ENDCHAR
STARTCHAR E05B
ENCODING 57435
SWIDTH 666 0
DWIDTH 16 0
BBX 13 19 2 0
BITMAP
0E00
1B00
1300
0600
0400
0000
C0D8
C0D8
C0F0
C0F0
C0C0
C0C0
C0C0
C0C0
C0C0
40C0
60C0
3F80
1F00
ENDCHAR
STARTCHAR E05C
ENCODING 57436
SWIDTH 666 0
DWIDTH 16 0
BBX 13 17 2 0
BITMAP
1D00
3F00
0000
0000
C0D8
C0D8
C0F0
C0F0
C0C0
C0C0
C0C0
C0C0
C0C0
40C0
60C0
3F80
1F00
ENDCHAR
STARTCHAR E05D
ENCODING 57437
SWIDTH 500 0
DWIDTH 12 0
BBX 11 17 1 -4
BITMAP
C060
C0C0
60C0
6180
3300
3300
1E00
0E00
0C00
0C00
0C00
0C00
0C00
0000
0C00
0C00
0C00
ENDCHAR
STARTCHAR E05E
ENCODING 57438
SWIDTH 500 0
DWIDTH 12 0
BBX 11 19 1 0
BITMAP
0E00
1200
1300
0600
0400
0000
C060
C0C0
60C0
6180
3300
3300
1E00
0E00
0C00
0C00
0C00
0C00
0C00
ENDCHAR
STARTCHAR E05F
ENCODING 57439
SWIDTH 500 0
DWIDTH 12 0
BBX 11 17 1 0
BITMAP
3F00
3F00
0000
0000
C060
C0C0
60C0
6180
3300
3300
1E00
0E00
0C00
0C00
0C00
0C00
0C00
ENDCHAR
STARTCHAR E060
ENCODING 57440
SWIDTH 416 0
DWIDTH 10 0
BBX 9 17 0 0
BITMAP
6380
3E00
1C00
0000
7F80
7F80
0300
0300
0600
0C00
0C00
1800
3000
3000
6000
FF80
FF80
ENDCHAR
STARTCHAR E061
ENCODING 57441
SWIDTH 416 0
DWIDTH 10 0
BBX 9 17 0 -4
BITMAP
7F80
7F80
0300
0300
0600
0C00
0C00
1800
3000
3000
6000
FF80
FF80
0000
0C00
0C00
0C00
ENDCHAR
STARTCHAR E803
ENCODING 59395
SWIDTH 791 0
DWIDTH 19 0
BBX 18 18 0 0
BITMAP
06C000
1EC000
18C000
30C000
30C000
FEC0C0
FEC180
30C300
30C300
30C600
30CC00
30D800
30FC00
30F600
30E300
30C380
30C1C0
30C0C0
ENDCHAR
STARTCHAR EA00
ENCODING 59904
SWIDTH 375 0
DWIDTH 9 0
BBX 5 4 3 14
BITMAP
18
38
E0
80
ENDCHAR
STARTCHAR EA01
ENCODING 59905
SWIDTH 0 0
DWIDTH 0 0
BBX 5 4 -10 19
BITMAP
08
38
E0
C0
ENDCHAR
STARTCHAR EA02
ENCODING 59906
SWIDTH 458 0
DWIDTH 11 0
BBX 7 2 2 15
BITMAP
C6
7C
ENDCHAR
STARTCHAR EA03
ENCODING 59907
SWIDTH 458 0
DWIDTH 11 0
BBX 7 7 2 15
BITMAP
02
0E
3C
10
00
C6
7C
ENDCHAR
STARTCHAR EA04
ENCODING 59908
SWIDTH 458 0
DWIDTH 11 0
BBX 7 7 2 15
BITMAP
02
0E
3C
10
00
C6
7C
ENDCHAR
STARTCHAR EA05
ENCODING 59909
SWIDTH 458 0
DWIDTH 11 0
BBX 7 2 2 -4
BITMAP
C6
7C
ENDCHAR
STARTCHAR EA06
ENCODING 59910
SWIDTH 458 0
DWIDTH 11 0
BBX 7 2 2 -4
BITMAP
7C
C6
ENDCHAR
STARTCHAR EA07
ENCODING 59911
SWIDTH 0 0
DWIDTH 0 0
BBX 7 3 -12 19
BITMAP
C2
66
3C
ENDCHAR
STARTCHAR EA08
ENCODING 59912
SWIDTH 458 0
DWIDTH 11 0
BBX 7 7 2 15
BITMAP
80
E0
70
10
00
C6
7C
ENDCHAR
STARTCHAR EA09
ENCODING 59913
SWIDTH 458 0
DWIDTH 11 0
BBX 7 7 2 15
BITMAP
80
E0
70
10
00
C6
7C
ENDCHAR
STARTCHAR EA0A
ENCODING 59914
SWIDTH 458 0
DWIDTH 11 0
BBX 7 7 2 15
BITMAP
38
6C
4C
18
10
C6
7C
ENDCHAR
STARTCHAR EA0B
ENCODING 59915
SWIDTH 458 0
DWIDTH 11 0
BBX 7 7 2 15
BITMAP
38
6C
4C
18
10
C6
7C
ENDCHAR
STARTCHAR EA0C
ENCODING 59916
SWIDTH 458 0
DWIDTH 11 0
BBX 7 3 2 14
BITMAP
7C
C6
86
ENDCHAR
STARTCHAR EA0D
ENCODING 59917
SWIDTH 458 0
DWIDTH 11 0
BBX 7 2 2 15
BITMAP
7C
C6
ENDCHAR
STARTCHAR EA0E
ENCODING 59918
SWIDTH 0 0
DWIDTH 0 0
BBX 7 3 -12 19
BITMAP
3C
66
C2
ENDCHAR
STARTCHAR EA0F
ENCODING 59919
SWIDTH 458 0
DWIDTH 11 0
BBX 7 5 2 15
BITMAP
FE
9C
00
C6
7C
ENDCHAR
STARTCHAR EA10
ENCODING 59920
SWIDTH 458 0
DWIDTH 11 0
BBX 7 5 2 15
BITMAP
FE
9C
00
C6
7C
ENDCHAR
STARTCHAR EA11
ENCODING 59921
SWIDTH 500 0
DWIDTH 12 0
BBX 8 3 2 14
BITMAP
E7
7E
18
ENDCHAR
STARTCHAR EA14
ENCODING 59924
SWIDTH 0 0
DWIDTH 0 0
BBX 7 3 -12 19
BITMAP
C6
6C
38
ENDCHAR
STARTCHAR EA15
ENCODING 59925
SWIDTH 500 0
DWIDTH 12 0
BBX 8 3 2 14
BITMAP
18
7E
E3
ENDCHAR
STARTCHAR EA16
ENCODING 59926
SWIDTH 500 0
DWIDTH 12 0
BBX 8 8 2 14
BITMAP
02
0E
1C
10
00
18
7E
E3
ENDCHAR
STARTCHAR EA17
ENCODING 59927
SWIDTH 500 0
DWIDTH 12 0
BBX 8 8 2 14
BITMAP
02
0E
1C
10
00
18
7E
E3
ENDCHAR
STARTCHAR EA18
ENCODING 59928
SWIDTH 0 0
DWIDTH 0 0
BBX 8 3 -12 19
BITMAP
38
7C
C7
ENDCHAR
STARTCHAR EA19
ENCODING 59929
SWIDTH 500 0
DWIDTH 12 0
BBX 8 8 2 14
BITMAP
40
70
3C
08
00
18
7E
E3
ENDCHAR
STARTCHAR EA1A
ENCODING 59930
SWIDTH 500 0
DWIDTH 12 0
BBX 8 8 2 14
BITMAP
40
70
3C
08
00
18
7E
E3
ENDCHAR
STARTCHAR EA1B
ENCODING 59931
SWIDTH 500 0
DWIDTH 12 0
BBX 8 9 2 14
BITMAP
0E
09
19
02
06
00
18
7E
E3
ENDCHAR
STARTCHAR EA1C
ENCODING 59932
SWIDTH 500 0
DWIDTH 12 0
BBX 8 9 2 14
BITMAP
0E
09
19
02
06
00
18
7E
E3
ENDCHAR
STARTCHAR EA1D
ENCODING 59933
SWIDTH 500 0
DWIDTH 12 0
BBX 8 6 2 14
BITMAP
72
7E
00
18
7E
E3
ENDCHAR
STARTCHAR EA1E
ENCODING 59934
SWIDTH 500 0
DWIDTH 12 0
BBX 8 6 2 14
BITMAP
72
7E
00
18
7E
E3
ENDCHAR
STARTCHAR EA1F
ENCODING 59935
SWIDTH 333 0
DWIDTH 8 0
BBX 2 4 3 -5
BITMAP
C0
C0
C0
80
ENDCHAR
STARTCHAR EA21
ENCODING 59937
SWIDTH 458 0
DWIDTH 11 0
BBX 7 2 2 15
BITMAP
C6
7C
ENDCHAR
STARTCHAR EA22
ENCODING 59938
SWIDTH 458 0
DWIDTH 11 0
BBX 7 3 2 15
BITMAP
86
C6
7C
ENDCHAR
STARTCHAR EA23
ENCODING 59939
SWIDTH 458 0
DWIDTH 11 0
BBX 7 3 2 14
BITMAP
7C
C6
86
ENDCHAR
STARTCHAR EA24
ENCODING 59940
SWIDTH 458 0
DWIDTH 11 0
BBX 7 2 2 15
BITMAP
7C
C6
ENDCHAR
STARTCHAR EA25
ENCODING 59941
SWIDTH 541 0
DWIDTH 13 0
BBX 8 4 1 14
BITMAP
88
CE
73
31
ENDCHAR
STARTCHAR EA26
ENCODING 59942
SWIDTH 541 0
DWIDTH 13 0
BBX 8 4 1 14
BITMAP
88
CE
73
31
ENDCHAR
STARTCHAR EA27
ENCODING 59943
SWIDTH 0 0
DWIDTH 0 0
BBX 9 4 -14 19
BITMAP
8C00
CE00
7300
1180
ENDCHAR
STARTCHAR EA28
ENCODING 59944
SWIDTH 375 0
DWIDTH 9 0
BBX 5 3 2 14
BITMAP
D8
D8
D8
ENDCHAR
STARTCHAR EA29
ENCODING 59945
SWIDTH 375 0
DWIDTH 9 0
BBX 6 8 2 14
BITMAP
0C
1C
70
40
00
D8
D8
D8
ENDCHAR
STARTCHAR EA2A
ENCODING 59946
SWIDTH 375 0
DWIDTH 9 0
BBX 6 8 2 15
BITMAP
0C
1C
70
40
00
D8
D8
D8
ENDCHAR
STARTCHAR EA2B
ENCODING 59947
SWIDTH 375 0
DWIDTH 9 0
BBX 7 8 1 14
BITMAP
C6
6C
38
00
00
6C
6C
6C
ENDCHAR
STARTCHAR EA2C
ENCODING 59948
SWIDTH 375 0
DWIDTH 9 0
BBX 7 7 1 15
BITMAP
C6
6C
38
00
6C
6C
6C
ENDCHAR
STARTCHAR EA2D
ENCODING 59949
SWIDTH 0 0
DWIDTH 0 0
BBX 5 3 -11 19
BITMAP
C8
C8
C8
ENDCHAR
STARTCHAR EA2E
ENCODING 59950
SWIDTH 375 0
DWIDTH 9 0
BBX 6 8 1 14
BITMAP
80
E0
38
08
00
6C
6C
6C
ENDCHAR
STARTCHAR EA2F
ENCODING 59951
SWIDTH 375 0
DWIDTH 9 0
BBX 6 8 1 15
BITMAP
80
E0
38
08
00
6C
6C
6C
ENDCHAR
STARTCHAR EA30
ENCODING 59952
SWIDTH 208 0
DWIDTH 5 0
BBX 2 3 2 14
BITMAP
C0
C0
C0
ENDCHAR
STARTCHAR EA31
ENCODING 59953
SWIDTH 0 0
DWIDTH 0 0
BBX 2 3 -9 19
BITMAP
C0
C0
C0
ENDCHAR
STARTCHAR EA32
ENCODING 59954
SWIDTH 375 0
DWIDTH 9 0
BBX 5 4 1 14
BITMAP
C0
E0
38
08
ENDCHAR
STARTCHAR EA33
ENCODING 59955
SWIDTH 0 0
DWIDTH 0 0
BBX 5 4 -12 19
BITMAP
40
F0
38
08
ENDCHAR
STARTCHAR EA34
ENCODING 59956
SWIDTH 208 0
DWIDTH 5 0
BBX 5 5 0 14
BITMAP
70
D8
98
30
20
ENDCHAR
STARTCHAR EA35
ENCODING 59957
SWIDTH 208 0
DWIDTH 5 0
BBX 5 5 0 14
BITMAP
70
D8
98
30
20
ENDCHAR
STARTCHAR EA36
ENCODING 59958
SWIDTH 0 0
DWIDTH 0 0
BBX 5 4 -11 19
BITMAP
78
C8
18
30
ENDCHAR
STARTCHAR EA37
ENCODING 59959
SWIDTH 375 0
DWIDTH 9 0
BBX 3 4 6 9
BITMAP
60
60
C0
C0
ENDCHAR
STARTCHAR EA38
ENCODING 59960
SWIDTH 541 0
DWIDTH 13 0
BBX 9 4 4 14
BITMAP
1080
7380
E600
8400
ENDCHAR
STARTCHAR EA39
ENCODING 59961
SWIDTH 0 0
DWIDTH 0 0
BBX 9 4 -11 19
BITMAP
1080
3380
E600
8400
ENDCHAR
STARTCHAR EA3A
ENCODING 59962
SWIDTH 500 0
DWIDTH 12 0
BBX 8 2 2 -4
BITMAP
FF
FF
ENDCHAR
STARTCHAR EA3B
ENCODING 59963
SWIDTH 500 0
DWIDTH 12 0
BBX 8 2 2 15
BITMAP
FF
FF
ENDCHAR
STARTCHAR EA3C
ENCODING 59964
SWIDTH 500 0
DWIDTH 12 0
BBX 4 2 4 15
BITMAP
F0
F0
ENDCHAR
STARTCHAR EA3D
ENCODING 59965
SWIDTH 500 0
DWIDTH 12 0
BBX 4 2 4 15
BITMAP
F0
F0
ENDCHAR
STARTCHAR EA3E
ENCODING 59966
SWIDTH 500 0
DWIDTH 12 0
BBX 8 2 2 -4
BITMAP
FF
FF
ENDCHAR
STARTCHAR EA3F
ENCODING 59967
SWIDTH 0 0
DWIDTH 0 0
BBX 8 2 -12 19
BITMAP
FF
FF
ENDCHAR
STARTCHAR EA40
ENCODING 59968
SWIDTH 333 0
DWIDTH 8 0
BBX 4 5 2 14
BITMAP
60
F0
90
90
F0
ENDCHAR
STARTCHAR EA41
ENCODING 59969
SWIDTH 333 0
DWIDTH 8 0
BBX 5 9 2 14
BITMAP
08
38
F0
40
00
F0
90
90
F0
ENDCHAR
STARTCHAR EA42
ENCODING 59970
SWIDTH 333 0
DWIDTH 8 0
BBX 5 9 2 14
BITMAP
08
38
F0
40
00
F0
90
90
F0
ENDCHAR
STARTCHAR EA43
ENCODING 59971
SWIDTH 0 0
DWIDTH 0 0
BBX 5 5 -11 18
BITMAP
70
C8
88
58
30
ENDCHAR
STARTCHAR EA44
ENCODING 59972
SWIDTH 458 0
DWIDTH 11 0
BBX 7 3 2 14
BITMAP
E4
FE
08
ENDCHAR
STARTCHAR EA45
ENCODING 59973
SWIDTH 458 0
DWIDTH 11 0
BBX 6 2 2 -4
BITMAP
FC
FC
ENDCHAR
STARTCHAR EA46
ENCODING 59974
SWIDTH 0 0
DWIDTH 0 0
BBX 7 3 -12 19
BITMAP
02
FE
04
ENDCHAR
STARTCHAR EB02
ENCODING 60162
SWIDTH 375 0
DWIDTH 9 0
BBX 5 4 3 14
BITMAP
18
38
E0
80
ENDCHAR
STARTCHAR EB03
ENCODING 60163
SWIDTH 750 0
DWIDTH 18 0
BBX 18 29 0 -6
BITMAP
001000
007000
01E000
008000
000000
00C000
01E000
01E000
036000
033000
023000
061800
061800
0C1800
0C0C00
1FFC00
1FFE00
180600
300300
300300
600300
600180
C00180
000180
000300
000300
000300
0003C0
0001C0
ENDCHAR
STARTCHAR EB04
ENCODING 60164
SWIDTH 666 0
DWIDTH 16 0
BBX 14 24 1 -6
BITMAP
0040
01C0
0780
0200
0000
0F8C
3FEC
703C
601C
C00C
C00C
C00C
C00C
C00C
601C
703C
3CEC
0FCC
0018
0030
0030
0030
001C
000C
ENDCHAR
STARTCHAR EB05
ENCODING 60165
SWIDTH 875 0
DWIDTH 21 0
BBX 17 18 2 -4
BITMAP
07F800
1C0C00
300200
61ED00
433980
C61880
8C1880
8C1080
983080
983180
982100
986300
4CE600
47BC00
200200
180600
0E1C00
03F000
ENDCHAR
STARTCHAR EB08
ENCODING 60168
SWIDTH 750 0
DWIDTH 18 0
BBX 17 17 0 0
BITMAP
03F000
0C0C00
100200
200100
600100
400080
400080
800080
800080
800080
400080
400080
600100
200100
100200
0C0C00
03F000
ENDCHAR
STARTCHAR EB09
ENCODING 60169
SWIDTH 541 0
DWIDTH 13 0
BBX 12 12 1 1
BITMAP
0400
0400
0400
0400
C670
7FE0
1F00
0E00
1B00
1180
3080
2080
ENDCHAR
STARTCHAR EB0A
ENCODING 60170
SWIDTH 458 0
DWIDTH 11 0
BBX 7 3 2 15
BITMAP
86
C6
7C
ENDCHAR
STARTCHAR EB0D
ENCODING 60173
SWIDTH 500 0
DWIDTH 12 0
BBX 8 3 2 15
BITMAP
E7
7E
18
ENDCHAR
STARTCHAR EB0F
ENCODING 60175
SWIDTH 750 0
DWIDTH 18 0
BBX 17 17 0 0
BITMAP
03F000
0C0C00
100200
21C100
67F100
4C0880
400C80
800480
800480
800480
400C80
4C1880
67F100
21C100
100200
0C0C00
03F000
ENDCHAR
STARTCHAR EB10
ENCODING 60176
SWIDTH 0 0
DWIDTH 0 0
BBX 0 0 0 0
BITMAP
ENDCHAR
STARTCHAR EB11
ENCODING 60177
SWIDTH 0 0
DWIDTH 0 0
BBX 0 0 0 0
BITMAP
ENDCHAR
STARTCHAR EB12
ENCODING 60178
SWIDTH 0 0
DWIDTH 0 0
BBX 0 0 0 0
BITMAP
ENDCHAR
STARTCHAR EB15
ENCODING 60181
SWIDTH 541 0
DWIDTH 13 0
BBX 8 4 1 14
BITMAP
88
CE
73
31
ENDCHAR
STARTCHAR EB16
ENCODING 60182
SWIDTH 625 0
DWIDTH 15 0
BBX 13 18 1 0
BITMAP
0200
0200
0200
0200
FFF8
FFF8
0200
0200
0200
0200
0200
0200
0200
0200
0200
0200
0200
0200
ENDCHAR
STARTCHAR EB17
ENCODING 60183
SWIDTH 375 0
DWIDTH 9 0
BBX 5 3 2 15
BITMAP
D8
D8
D8
ENDCHAR
STARTCHAR EB19
ENCODING 60185
SWIDTH 208 0
DWIDTH 5 0
BBX 2 3 2 -4
BITMAP
C0
C0
C0
ENDCHAR
STARTCHAR EB1E
ENCODING 60190
SWIDTH 541 0
DWIDTH 13 0
BBX 10 29 2 -6
BITMAP
0100
0700
1C00
1800
0000
FFC0
FFC0
C000
C000
C000
C000
C000
C000
FF80
FF80
C000
C000
C000
C000
C000
C000
FFC0
FFC0
0180
0300
0300
0300
03C0
01C0
ENDCHAR
STARTCHAR EB1F
ENCODING 60191
SWIDTH 666 0
DWIDTH 16 0
BBX 14 24 1 -6
BITMAP
0040
01C0
0700
0600
0000
0FC0
3FE0
7030
6018
C008
FFFC
FFFC
C000
C000
6018
7030
1FE0
0FC0
0100
0300
0200
0300
03C0
01C0
ENDCHAR
STARTCHAR EB28
ENCODING 60200
SWIDTH 1125 0
DWIDTH 27 0
BBX 23 18 2 0
BITMAP
1E00F0
7F83FC
61830C
C0C606
C0C606
C00600
C00600
700380
3E01F0
07803C
01C006
00C006
004002
C04606
C0C606
E1C70E
7F83FC
3E00F0
ENDCHAR
STARTCHAR EB29
ENCODING 60201
SWIDTH 583 0
DWIDTH 14 0
BBX 11 20 2 -6
BITMAP
0C00
0C00
0C00
0000
0000
0C00
0C00
1C00
3C00
6C00
CC00
CC00
8C60
8C40
CCC0
EDC0
7F80
1E00
0C00
0C00
ENDCHAR
STARTCHAR EB2A
ENCODING 60202
SWIDTH 375 0
DWIDTH 9 0
BBX 5 4 1 14
BITMAP
C0
E0
38
18
ENDCHAR
STARTCHAR EB2B
ENCODING 60203
SWIDTH 875 0
DWIDTH 21 0
BBX 19 22 1 -2
BITMAP
004000
004000
03F800
0FFE00
1C0700
300180
6000C0
600000
C00000
C00000
C00000
C1FFE0
C1FFE0
C00060
6000C0
6000C0
300180
1C0700
0FFE00
01F800
004000
004000
ENDCHAR
STARTCHAR EB2E
ENCODING 60206
SWIDTH 541 0
DWIDTH 13 0
BBX 9 4 4 14
BITMAP
1080
7380
E600
8400
ENDCHAR
STARTCHAR EB2F
ENCODING 60207
SWIDTH 166 0
DWIDTH 4 0
BBX 6 2 1 5
BITMAP
FC
FC
ENDCHAR
STARTCHAR EB30
ENCODING 60208
SWIDTH 333 0
DWIDTH 8 0
BBX 6 2 1 9
BITMAP
FC
FC
ENDCHAR
STARTCHAR EB31
ENCODING 60209
SWIDTH 333 0
DWIDTH 8 0
BBX 6 7 1 3
BITMAP
FC
FC
00
00
00
FC
FC
ENDCHAR
STARTCHAR EB32
ENCODING 60210
SWIDTH 166 0
DWIDTH 4 0
BBX 6 7 1 3
BITMAP
FC
FC
00
00
00
FC
FC
ENDCHAR
STARTCHAR EB35
ENCODING 60213
SWIDTH 208 0
DWIDTH 5 0
BBX 6 29 0 -6
BITMAP
04
1C
70
60
00
30
30
30
30
30
30
30
30
30
30
30
30
30
30
30
30
30
30
60
C0
C0
C0
F0
70
ENDCHAR
STARTCHAR EB36
ENCODING 60214
SWIDTH 208 0
DWIDTH 5 0
BBX 6 24 0 -6
BITMAP
0C
1C
70
40
00
60
60
60
60
60
60
60
60
60
60
60
60
60
60
C0
80
80
F0
70
ENDCHAR
STARTCHAR EB3A
ENCODING 60218
SWIDTH 500 0
DWIDTH 12 0
BBX 12 23 0 0
BITMAP
0010
0070
01E0
0080
0000
00C0
00C0
00C0
00C0
00C0
00C0
00C0
00C0
00C0
00C0
00C0
00C0
00C0
C0C0
C080
6180
7F80
1E00
ENDCHAR
STARTCHAR EB3B
ENCODING 60219
SWIDTH 208 0
DWIDTH 5 0
BBX 7 23 -1 -5
BITMAP
02
0E
38
20
00
10
10
10
10
10
10
10
10
10
10
10
10
10
30
30
30
E0
C0
ENDCHAR
STARTCHAR EB40
ENCODING 60224
SWIDTH 1000 0
DWIDTH 24 0
BBX 22 20 1 -1
BITMAP
001FFC
00740C
01C41C
030434
0604E4
0E05CC
1E070C
160608
360FF8
261818
667010
46E030
478020
C7FFE0
C600C0
9C0180
B00300
E00E00
C03800
FFE000
ENDCHAR
STARTCHAR EB43
ENCODING 60227
SWIDTH 500 0
DWIDTH 12 0
BBX 8 2 2 15
BITMAP
FF
FF
ENDCHAR
STARTCHAR EB48
ENCODING 60232
SWIDTH 875 0
DWIDTH 21 0
BBX 19 29 1 -6
BITMAP
001800
003800
00E000
008000
000000
03F000
0FFE00
1C0700
300380
600180
6000C0
C00040
C00060
C00060
C00060
C00060
C00040
6000C0
6001C0
300380
1C0700
0FFE00
03F800
006000
00C000
00C000
00C000
007000
003000
ENDCHAR
STARTCHAR EB49
ENCODING 60233
SWIDTH 666 0
DWIDTH 16 0
BBX 14 24 1 -6
BITMAP
0040
01C0
0780
0200
0000
0FC0
3FE0
7030
6018
C018
C00C
C00C
C00C
C008
6018
7030
3FE0
0FC0
0180
0300
0300
0300
03C0
00C0
ENDCHAR
STARTCHAR EB4C
ENCODING 60236
SWIDTH 375 0
DWIDTH 9 0
BBX 6 21 1 -3
BITMAP
3C
7C
FC
FC
FC
FC
FC
7C
3C
0C
0C
0C
0C
0C
0C
0C
0C
0C
0C
0C
0C
ENDCHAR
STARTCHAR EB4D
ENCODING 60237
SWIDTH 416 0
DWIDTH 10 0
BBX 9 9 1 0
BITMAP
1800
7E00
6300
C100
C180
C100
C300
7F00
3C00
ENDCHAR
STARTCHAR EB52
ENCODING 60242
SWIDTH 291 0
DWIDTH 7 0
BBX 4 5 2 -2
BITMAP
B0
B0
B0
B0
B0
ENDCHAR
STARTCHAR EB56
ENCODING 60246
SWIDTH 208 0
DWIDTH 5 0
BBX 1 5 2 -2
BITMAP
80
80
80
80
80
ENDCHAR
STARTCHAR EB57
ENCODING 60247
SWIDTH 208 0
DWIDTH 5 0
BBX 1 6 2 12
BITMAP
80
80
80
80
80
80
ENDCHAR
STARTCHAR EB5A
ENCODING 60250
SWIDTH 500 0
DWIDTH 12 0
BBX 9 8 1 11
BITMAP
3F00
5C80
9280
9280
9C80
9480
4100
3E00
ENDCHAR
STARTCHAR EB61
ENCODING 60257
SWIDTH 208 0
DWIDTH 5 0
BBX 5 4 0 7
BITMAP
08
18
70
C0
ENDCHAR
STARTCHAR EB63
ENCODING 60259
SWIDTH 333 0
DWIDTH 8 0
BBX 11 3 3 15
BITMAP
3F80
7FC0
C060
ENDCHAR
STARTCHAR EB64
ENCODING 60260
SWIDTH 500 0
DWIDTH 12 0
BBX 10 3 1 15
BITMAP
3F80
FFC0
8040
ENDCHAR
STARTCHAR EB65
ENCODING 60261
SWIDTH 291 0
DWIDTH 7 0
BBX 7 3 3 15
BITMAP
7C
FE
86
ENDCHAR
STARTCHAR EB66
ENCODING 60262
SWIDTH 500 0
DWIDTH 12 0
BBX 8 3 2 15
BITMAP
7E
FE
C3
ENDCHAR
STARTCHAR EB67
ENCODING 60263
SWIDTH 625 0
DWIDTH 15 0
BBX 12 4 1 -2
BITMAP
3810
7E30
C7E0
40C0
ENDCHAR
STARTCHAR EB6B
ENCODING 60267
SWIDTH 666 0
DWIDTH 16 0
BBX 16 2 0 5
BITMAP
FFFF
FFFF
ENDCHAR
STARTCHAR EB6E
ENCODING 60270
SWIDTH 666 0
DWIDTH 16 0
BBX 12 22 2 -4
BITMAP
C030
C030
C030
C030
C030
C030
C030
C030
C030
C030
C030
C030
C030
C030
C060
6060
3FC0
1F80
0000
0F00
1980
3080
ENDCHAR
STARTCHAR EB6F
ENCODING 60271
SWIDTH 625 0
DWIDTH 15 0
BBX 12 17 1 -4
BITMAP
C030
C030
C030
C030
C030
C030
C030
4030
4030
6030
6070
39F0
1FB0
0000
0F00
1D80
10C0
ENDCHAR
STARTCHAR EB7E
ENCODING 60286
SWIDTH 500 0
DWIDTH 12 0
BBX 14 18 0 0
BITMAP
00CC
00CC
00C8
00D8
00C0
00C0
00C0
00C0
00C0
00C0
00C0
00C0
00C0
C0C0
C080
6180
7F80
1E00
ENDCHAR
STARTCHAR EC00
ENCODING 60416
SWIDTH 500 0
DWIDTH 12 0
BBX 9 8 1 11
BITMAP
3F00
4C80
9280
A080
A080
9280
4C80
3F00
ENDCHAR
STARTCHAR EC06
ENCODING 60422
SWIDTH 208 0
DWIDTH 5 0
BBX 5 17 0 0
BITMAP
F8
F8
00
00
60
60
60
60
60
60
60
60
60
60
60
60
60
ENDCHAR
STARTCHAR EC07
ENCODING 60423
SWIDTH 208 0
DWIDTH 5 0
BBX 4 22 1 0
BITMAP
F0
F0
00
00
60
60
60
60
60
60
60
60
60
60
60
60
60
60
60
60
60
60
ENDCHAR
STARTCHAR EC08
ENCODING 60424
SWIDTH 666 0
DWIDTH 16 0
BBX 13 22 2 0
BITMAP
1C80
1FC0
1100
0000
C018
C018
C018
C018
C018
C018
C018
C018
FFF8
FFF8
C018
C018
C018
C018
C018
C018
C018
C018
ENDCHAR
STARTCHAR EC09
ENCODING 60425
SWIDTH 625 0
DWIDTH 15 0
BBX 12 22 1 0
BITMAP
0C80
1FC0
0100
0000
C000
C000
C000
C000
C000
CF80
DFE0
F060
E030
C030
C030
C030
C030
C030
C030
C030
C030
C030
ENDCHAR
STARTCHAR EC0A
ENCODING 60426
SWIDTH 458 0
DWIDTH 11 0
BBX 12 22 -1 0
BITMAP
7200
FE00
0000
0000
1800
1800
1800
1800
1800
1800
1800
1800
1800
1800
1800
1800
1800
1800
1800
1800
1FF0
1FF0
ENDCHAR
STARTCHAR EC0B
ENCODING 60427
SWIDTH 208 0
DWIDTH 5 0
BBX 7 22 -1 0
BITMAP
74
FE
08
00
30
30
30
30
30
30
30
30
30
30
30
30
30
30
30
30
30
30
ENDCHAR
STARTCHAR EC0C
ENCODING 60428
SWIDTH 416 0
DWIDTH 10 0
BBX 10 22 0 0
BITMAP
3900
3F80
2200
0000
FFC0
FFC0
0C00
0C00
0C00
0C00
0C00
0C00
0C00
0C00
0C00
0C00
0C00
0C00
0C00
0C00
0C00
0C00
ENDCHAR
STARTCHAR EC0D
ENCODING 60429
SWIDTH 333 0
DWIDTH 8 0
BBX 8 22 0 0
BITMAP
72
7E
04
00
18
18
18
18
18
FF
FF
18
18
18
18
18
18
18
18
18
18
18
ENDCHAR
STARTCHAR EC0E
ENCODING 60430
SWIDTH 416 0
DWIDTH 10 0
BBX 10 22 0 0
BITMAP
3300
3300
3300
0000
FFC0
FFC0
0C00
0C00
0C00
0C00
0C00
0C00
0C00
0C00
0C00
0C00
0C00
0C00
0C00
0C00
0C00
0C00
ENDCHAR
STARTCHAR EC10
ENCODING 60432
SWIDTH 875 0
DWIDTH 21 0
BBX 19 26 1 -4
BITMAP
004000
004000
004000
004000
03F800
0FFE00
1C0700
300380
600180
6000C0
C000C0
C00060
C00060
C00060
C00060
C00040
6000C0
6000C0
300180
180700
0F1E00
03F800
004000
004000
004000
004000
ENDCHAR
STARTCHAR EC11
ENCODING 60433
SWIDTH 666 0
DWIDTH 16 0
BBX 14 21 1 -4
BITMAP
0300
0300
0300
0300
1FC0
3870
6038
6018
C008
C00C
C00C
C00C
C008
6018
7038
3CF0
1FC0
0300
0300
0300
0300
ENDCHAR
STARTCHAR EC12
ENCODING 60434
SWIDTH 750 0
DWIDTH 18 0
BBX 15 21 1 -4
BITMAP
0100
0100
0100
0100
0FE0
3C78
701C
600C
C006
C006
C006
C006
C006
600C
701C
3CF8
0FE0
0100
0100
0100
0100
ENDCHAR
STARTCHAR F638
ENCODING 63032
SWIDTH 541 0
DWIDTH 13 0
BBX 12 18 1 0
BITMAP
DF00
FFC0
60E0
E060
F020
D830
9830
8C30
8C30
8630
8230
8330
C1B0
C1A0
C0E0
60E0
7FE0
1FB0
ENDCHAR
STARTCHAR F639
ENCODING 63033
SWIDTH 625 0
DWIDTH 15 0
BBX 12 18 1 0
BITMAP
0F80
3FE0
7060
6030
6030
4010
C010
C010
C010
C010
C010
C010
4010
4030
6030
7070
3FE0
0F80
ENDCHAR
STARTCHAR F63A
ENCODING 63034
SWIDTH 583 0
DWIDTH 14 0
BBX 12 18 1 0
BITMAP
0F80
3FC0
7060
6030
6030
4030
0030
0060
0060
00C0
0180
0300
0600
0C00
3800
7000
FFF0
FFF0
ENDCHAR
STARTCHAR F63B
ENCODING 63035
SWIDTH 583 0
DWIDTH 14 0
BBX 11 18 2 0
BITMAP
1E00
3F80
6180
60C0
40C0
00C0
0180
0F00
0F80
00C0
0040
0060
8060
8060
C0C0
E0C0
7F80
1F00
ENDCHAR
STARTCHAR F63C
ENCODING 63036
SWIDTH 625 0
DWIDTH 15 0
BBX 13 18 1 0
BITMAP
0060
00E0
01E0
01E0
0360
0660
0660
0C60
1C60
1860
3060
7060
6060
FFF8
FFF8
0060
0060
0060
ENDCHAR
STARTCHAR F63D
ENCODING 63037
SWIDTH 625 0
DWIDTH 15 0
BBX 12 18 2 0
BITMAP
3FC0
3FC0
2000
6000
6000
6E00
7F80
71C0
C060
0060
0020
0030
8020
C060
C060
60C0
3FC0
1F00
ENDCHAR
STARTCHAR F63E
ENCODING 63038
SWIDTH 625 0
DWIDTH 15 0
BBX 13 18 1 0
BITMAP
0180
0300
0600
0600
0C00
1B00
3FC0
3860
6030
6030
4010
C018
4018
6010
6030
3060
1FE0
0F80
ENDCHAR
STARTCHAR F63F
ENCODING 63039
SWIDTH 541 0
DWIDTH 13 0
BBX 11 18 1 0
BITMAP
FFE0
FFE0
0040
00C0
0080
0180
0180
0300
0300
0600
0600
0C00
0C00
0800
1800
1800
3000
3000
ENDCHAR
STARTCHAR F640
ENCODING 63040
SWIDTH 583 0
DWIDTH 14 0
BBX 12 18 1 0
BITMAP
0F00
1FC0
30C0
2060
6060
2060
30C0
1FC0
1F80
30E0
6060
4030
C030
4030
6020
7060
3FC0
0F80
ENDCHAR
STARTCHAR F641
ENCODING 63041
SWIDTH 625 0
DWIDTH 15 0
BBX 13 18 1 0
BITMAP
0F80
3FE0
3060
6030
6030
4018
C018
4018
6030
6030
30E0
1FE0
06C0
0180
0180
0300
0600
0C00
ENDCHAR
STARTCHAR F643
ENCODING 63043
SWIDTH 541 0
DWIDTH 13 0
BBX 12 13 1 0
BITMAP
3F80
7FC0
C060
C060
C030
8030
8030
8030
C030
C060
C060
7FC0
3F80
ENDCHAR
STARTCHAR F644
ENCODING 63044
SWIDTH 541 0
DWIDTH 13 0
BBX 4 13 4 0
BITMAP
F0
10
10
10
10
10
10
10
10
10
10
10
10
ENDCHAR
STARTCHAR F645
ENCODING 63045
SWIDTH 541 0
DWIDTH 13 0
BBX 11 13 1 0
BITMAP
1F00
7FC0
E060
C060
C060
0060
00E0
01C0
0700
1C00
7000
FFE0
FFE0
ENDCHAR
STARTCHAR F646
ENCODING 63046
SWIDTH 541 0
DWIDTH 13 0
BBX 11 18 1 -5
BITMAP
1F00
3F80
6180
60C0
60C0
00C0
0180
0F80
0F80
00C0
0060
0060
C060
C060
C060
60C0
7F80
1F00
ENDCHAR
STARTCHAR F647
ENCODING 63047
SWIDTH 541 0
DWIDTH 13 0
BBX 13 16 0 -3
BITMAP
0060
00E0
01E0
0360
0360
0660
0C60
1860
3860
3060
6060
FFF8
FFF8
0060
0060
0060
ENDCHAR
STARTCHAR F648
ENCODING 63048
SWIDTH 541 0
DWIDTH 13 0
BBX 12 18 1 -5
BITMAP
3FC0
3FC0
2000
2000
6000
6600
7F80
70C0
4060
0060
0030
0030
8030
C020
C060
60E0
3FC0
1F00
ENDCHAR
STARTCHAR F649
ENCODING 63049
SWIDTH 541 0
DWIDTH 13 0
BBX 12 18 1 0
BITMAP
0300
0600
0C00
0C00
1800
3600
3F80
70C0
C060
C060
C030
8030
8030
C020
C060
60E0
3FC0
1F00
ENDCHAR
STARTCHAR F64A
ENCODING 63050
SWIDTH 541 0
DWIDTH 13 0
BBX 10 18 2 -5
BITMAP
FFC0
FFC0
0080
0180
0100
0300
0300
0600
0600
0C00
0C00
0800
1800
1000
3000
3000
6000
6000
ENDCHAR
STARTCHAR F64B
ENCODING 63051
SWIDTH 541 0
DWIDTH 13 0
BBX 11 18 1 0
BITMAP
1F00
3F80
60C0
60C0
6040
60C0
70C0
3F80
3F80
70C0
C060
C060
C060
C060
C060
60C0
3FC0
1F00
ENDCHAR
STARTCHAR F64C
ENCODING 63052
SWIDTH 541 0
DWIDTH 13 0
BBX 12 18 1 -5
BITMAP
1F00
3FC0
60E0
C060
C020
8030
8030
C030
C060
60E0
7FC0
1F80
0180
0300
0600
0600
0C00
1C00
ENDCHAR
STARTCHAR F66D
ENCODING 63085
SWIDTH 625 0
DWIDTH 15 0
BBX 13 17 1 0
BITMAP
18C0
0F80
0000
0000
0700
0700
0D80
0D80
08C0
18C0
1060
3FE0
3FF0
6030
6010
C018
C018
ENDCHAR
STARTCHAR F66E
ENCODING 63086
SWIDTH 625 0
DWIDTH 15 0
BBX 13 17 1 0
BITMAP
3FE0
3FE0
0000
0000
0700
0700
0D80
0D80
08C0
18C0
1060
3FE0
3FF0
6030
6010
C018
C018
ENDCHAR
STARTCHAR F66F
ENCODING 63087
SWIDTH 625 0
DWIDTH 15 0
BBX 14 19 1 -6
BITMAP
0700
0700
0D80
0D80
08C0
18C0
1060
3FE0
3FF0
6030
6010
C018
C018
0018
0030
0030
0030
003C
001C
ENDCHAR
STARTCHAR F670
ENCODING 63088
SWIDTH 833 0
DWIDTH 20 0
BBX 17 18 1 0
BITMAP
000C00
001C00
007000
004000
000000
007F80
00FF80
01E000
01A000
032000
063F80
0C3F80
0FE000
1FE000
302000
602000
E03F80
C03F80
ENDCHAR
STARTCHAR F671
ENCODING 63089
SWIDTH 666 0
DWIDTH 16 0
BBX 14 18 1 0
BITMAP
0040
00E0
0380
0200
0000
0FC0
3FF0
7018
600C
C000
C000
C000
C000
C000
600C
7018
3FF0
0FC0
ENDCHAR
STARTCHAR F672
ENCODING 63090
SWIDTH 666 0
DWIDTH 16 0
BBX 14 17 1 0
BITMAP
0C60
06C0
0380
0000
0FC0
3FF0
7018
600C
C000
C000
C000
C000
C000
600C
7018
3FF0
0FC0
ENDCHAR
STARTCHAR F673
ENCODING 63091
SWIDTH 666 0
DWIDTH 16 0
BBX 14 17 1 0
BITMAP
0380
06C0
0C60
0000
0FC0
3FF0
7018
600C
C000
C000
C000
C000
C000
600C
7018
3FF0
0FC0
ENDCHAR
STARTCHAR F674
ENCODING 63092
SWIDTH 666 0
DWIDTH 16 0
BBX 14 17 1 0
BITMAP
0300
0300
0300
0000
0FC0
3FF0
7018
600C
C000
C000
C000
C000
C000
600C
7018
3FF0
0FC0
ENDCHAR
STARTCHAR F675
ENCODING 63093
SWIDTH 625 0
DWIDTH 15 0
BBX 12 17 2 0
BITMAP
6300
3E00
1C00
0000
FF00
FF80
C0E0
C060
C030
C030
C030
C030
C030
C060
C0E0
FFC0
FF00
ENDCHAR
STARTCHAR F677
ENCODING 63095
SWIDTH 458 0
DWIDTH 11 0
BBX 8 17 2 0
BITMAP
C2
7E
00
00
FF
FF
C0
C0
C0
FF
FF
C0
C0
C0
C0
FF
FF
ENDCHAR
STARTCHAR F678
ENCODING 63096
SWIDTH 458 0
DWIDTH 11 0
BBX 8 17 2 0
BITMAP
C7
6C
38
00
FF
FF
C0
C0
C0
FF
FF
C0
C0
C0
C0
FF
FF
ENDCHAR
STARTCHAR F679
ENCODING 63097
SWIDTH 458 0
DWIDTH 11 0
BBX 8 17 2 0
BITMAP
18
18
18
00
FF
FF
C0
C0
C0
FF
FF
C0
C0
C0
C0
FF
FF
ENDCHAR
STARTCHAR F67A
ENCODING 63098
SWIDTH 458 0
DWIDTH 11 0
BBX 8 17 2 0
BITMAP
FF
FF
00
00
FF
FF
C0
C0
C0
FF
FF
C0
C0
C0
C0
FF
FF
ENDCHAR
STARTCHAR F67B
ENCODING 63099
SWIDTH 625 0
DWIDTH 15 0
BBX 11 19 2 -6
BITMAP
C020
E020
F020
F820
D820
CC20
C620
C720
C320
C1A0
C0E0
C0E0
C060
0020
0020
1860
0C60
0FE0
07C0
ENDCHAR
STARTCHAR F67C
ENCODING 63100
SWIDTH 458 0
DWIDTH 11 0
BBX 8 19 2 -6
BITMAP
FF
FF
C0
C0
C0
FF
FF
C0
C0
C0
C0
FF
FF
06
0C
0C
0C
0F
07
ENDCHAR
STARTCHAR F67D
ENCODING 63101
SWIDTH 708 0
DWIDTH 17 0
BBX 15 17 1 0
BITMAP
0860
0EE0
07C0
0000
07E0
1FF0
301C
600C
C000
C000
C000
C7FE
C7FE
600C
701C
1FF8
07E0
ENDCHAR
STARTCHAR F67E
ENCODING 63102
SWIDTH 708 0
DWIDTH 17 0
BBX 15 17 1 0
BITMAP
0380
06C0
0C60
0000
07E0
1FF0
301C
600C
C000
C000
C000
C7FE
C7FE
600C
701C
1FF8
07E0
ENDCHAR
STARTCHAR F67F
ENCODING 63103
SWIDTH 708 0
DWIDTH 17 0
BBX 15 18 1 -5
BITMAP
07E0
1FF0
301C
600C
C000
C000
C000
C7FE
C7FE
600C
701C
1FF8
07E0
0000
0180
0300
0300
0300
ENDCHAR
STARTCHAR F680
ENCODING 63104
SWIDTH 708 0
DWIDTH 17 0
BBX 15 17 1 0
BITMAP
0100
0100
0100
0000
07E0
1FF0
301C
600C
C000
C000
C000
C7FE
C7FE
600C
701C
1FF8
07E0
ENDCHAR
STARTCHAR F681
ENCODING 63105
SWIDTH 583 0
DWIDTH 14 0
BBX 12 13 1 0
BITMAP
6060
6060
FFF0
6060
6060
7FE0
7FE0
6060
6060
6060
6060
6060
6060
ENDCHAR
STARTCHAR F682
ENCODING 63106
SWIDTH 583 0
DWIDTH 14 0
BBX 10 17 2 0
BITMAP
0C00
3F00
7180
0000
C0C0
C0C0
C0C0
C0C0
C0C0
FFC0
FFC0
C0C0
C0C0
C0C0
C0C0
C0C0
C0C0
ENDCHAR
STARTCHAR F683
ENCODING 63107
SWIDTH 208 0
DWIDTH 5 0
BBX 7 17 -1 0
BITMAP
C6
7E
00
00
18
18
18
18
18
18
18
18
18
18
18
18
18
ENDCHAR
STARTCHAR F684
ENCODING 63108
SWIDTH 583 0
DWIDTH 14 0
BBX 12 13 1 0
BITMAP
C030
C030
C030
C030
C030
C030
C030
C030
C030
CC30
CC60
CFE0
C3C0
ENDCHAR
STARTCHAR F685
ENCODING 63109
SWIDTH 208 0
DWIDTH 5 0
BBX 8 17 -1 0
BITMAP
FF
FF
00
00
18
18
18
18
18
18
18
18
18
18
18
18
18
ENDCHAR
STARTCHAR F686
ENCODING 63110
SWIDTH 208 0
DWIDTH 5 0
BBX 4 19 0 -6
BITMAP
30
30
30
30
30
30
30
30
30
30
30
30
30
60
C0
C0
C0
F0
70
ENDCHAR
STARTCHAR F687
ENCODING 63111
SWIDTH 208 0
DWIDTH 5 0
BBX 6 17 0 0
BITMAP
EC
FC
00
00
30
30
30
30
30
30
30
30
30
30
30
30
30
ENDCHAR
STARTCHAR F688
ENCODING 63112
SWIDTH 416 0
DWIDTH 10 0
BBX 10 17 1 0
BITMAP
0700
0D80
18C0
0000
0200
0200
0200
0200
0200
0200
0200
0200
0200
8200
C600
FE00
7C00
ENDCHAR
STARTCHAR F689
ENCODING 63113
SWIDTH 500 0
DWIDTH 12 0
BBX 10 18 2 -5
BITMAP
C1C0
C380
C300
C600
CC00
D800
F800
F800
CC00
C600
C300
C380
C1C0
0000
0C00
0800
1800
1800
ENDCHAR
STARTCHAR F68A
ENCODING 63114
SWIDTH 416 0
DWIDTH 10 0
BBX 8 18 1 0
BITMAP
08
38
E0
40
00
60
60
60
60
60
60
60
60
60
60
60
7F
7F
ENDCHAR
STARTCHAR F68B
ENCODING 63115
SWIDTH 416 0
DWIDTH 10 0
BBX 8 13 1 0
BITMAP
C4
CC
CC
C8
C0
C0
C0
C0
C0
C0
C0
FF
FF
ENDCHAR
STARTCHAR F68C
ENCODING 63116
SWIDTH 416 0
DWIDTH 10 0
BBX 7 18 2 -5
BITMAP
C0
C0
C0
C0
C0
C0
C0
C0
C0
C0
C0
FE
FE
00
18
10
30
30
ENDCHAR
STARTCHAR F68D
ENCODING 63117
SWIDTH 416 0
DWIDTH 10 0
BBX 8 13 1 0
BITMAP
C0
C0
C0
C0
C0
C6
C6
C6
C0
C0
C0
FF
FF
ENDCHAR
STARTCHAR F68E
ENCODING 63118
SWIDTH 625 0
DWIDTH 15 0
BBX 11 18 2 0
BITMAP
0180
0380
0E00
0800
0000
C020
E020
F020
F820
D820
CC20
C620
C720
C320
C1A0
C0E0
C0E0
C060
ENDCHAR
STARTCHAR F68F
ENCODING 63119
SWIDTH 625 0
DWIDTH 15 0
BBX 11 17 2 0
BITMAP
3180
1B00
0E00
0000
C020
E020
F020
F820
D820
CC20
C620
C720
C320
C1A0
C0E0
C0E0
C060
ENDCHAR
STARTCHAR F690
ENCODING 63120
SWIDTH 625 0
DWIDTH 15 0
BBX 11 18 2 -5
BITMAP
C020
E020
F020
F820
D820
CC20
C620
C720
C320
C1A0
C0E0
C0E0
C060
0000
0600
0400
0C00
0C00
ENDCHAR
STARTCHAR F691
ENCODING 63121
SWIDTH 708 0
DWIDTH 17 0
BBX 15 17 1 0
BITMAP
0860
0EE0
07C0
0000
07C0
1FF0
3018
600C
C006
C006
C006
C006
C006
600C
3018
1FF0
07C0
ENDCHAR
STARTCHAR F692
ENCODING 63122
SWIDTH 708 0
DWIDTH 17 0
BBX 15 18 1 0
BITMAP
008C
039C
0630
0460
0000
07C0
1FF0
3018
600C
C006
C006
C006
C006
C006
600C
3018
1FF0
07C0
ENDCHAR
STARTCHAR F693
ENCODING 63123
SWIDTH 708 0
DWIDTH 17 0
BBX 15 17 1 0
BITMAP
1FF0
1FF0
0000
0000
07C0
1FF0
3018
600C
C006
C006
C006
C006
C006
600C
3018
1FF0
07C0
ENDCHAR
STARTCHAR F694
ENCODING 63124
SWIDTH 708 0
DWIDTH 17 0
BBX 15 20 1 -1
BITMAP
0020
00E0
0380
0300
0000
0004
07EC
1FF8
303C
607C
60E6
C0C6
C182
C306
6606
6C0C
381C
3FF8
77E0
6000
ENDCHAR
STARTCHAR F695
ENCODING 63125
SWIDTH 541 0
DWIDTH 13 0
BBX 10 18 2 0
BITMAP
0200
0700
1C00
1000
0000
FE00
FF80
C180
C0C0
C0C0
C0C0
C380
DF00
CC00
C600
C700
C300
C180
ENDCHAR
STARTCHAR F696
ENCODING 63126
SWIDTH 541 0
DWIDTH 13 0
BBX 10 17 2 0
BITMAP
6300
3600
1C00
0000
FE00
FF80
C180
C0C0
C0C0
C0C0
C380
DF00
CC00
C600
C700
C300
C180
ENDCHAR
STARTCHAR F697
ENCODING 63127
SWIDTH 541 0
DWIDTH 13 0
BBX 10 18 2 -5
BITMAP
FE00
FF80
C180
C0C0
C0C0
C0C0
C380
DF00
CC00
C600
C700
C300
C180
0000
0800
1800
1800
1000
ENDCHAR
STARTCHAR F698
ENCODING 63128
SWIDTH 416 0
DWIDTH 10 0
BBX 8 18 1 0
BITMAP
02
0E
1C
10
00
3C
7E
C3
C3
C0
78
3E
07
01
81
C3
FF
3C
ENDCHAR
STARTCHAR F699
ENCODING 63129
SWIDTH 416 0
DWIDTH 10 0
BBX 8 19 1 -6
BITMAP
3C
7E
C3
C3
C0
78
3E
07
01
81
C3
FF
3E
10
1E
02
02
16
1C
ENDCHAR
STARTCHAR F69A
ENCODING 63130
SWIDTH 416 0
DWIDTH 10 0
BBX 8 17 1 0
BITMAP
18
3E
E3
00
3C
7E
C3
C3
C0
78
3E
07
01
81
C3
FF
3C
ENDCHAR
STARTCHAR F69B
ENCODING 63131
SWIDTH 416 0
DWIDTH 10 0
BBX 8 18 1 -5
BITMAP
3C
7E
C3
C3
C0
78
3E
07
01
81
C3
FF
3C
00
18
18
10
30
ENDCHAR
STARTCHAR F69D
ENCODING 63133
SWIDTH 375 0
DWIDTH 9 0
BBX 8 17 0 0
BITMAP
63
3E
1C
00
FF
FF
18
18
18
18
18
18
18
18
18
18
18
ENDCHAR
STARTCHAR F69E
ENCODING 63134
SWIDTH 375 0
DWIDTH 9 0
BBX 8 18 0 -5
BITMAP
FF
FF
18
18
18
18
18
18
18
18
18
18
18
00
18
18
18
10
ENDCHAR
STARTCHAR F69F
ENCODING 63135
SWIDTH 583 0
DWIDTH 14 0
BBX 10 17 2 0
BITMAP
6100
3F00
0000
0000
C0C0
C0C0
C0C0
C0C0
C0C0
C0C0
C0C0
C0C0
C0C0
C0C0
C180
7F80
3E00
ENDCHAR
STARTCHAR F6A0
ENCODING 63136
SWIDTH 583 0
DWIDTH 14 0
BBX 11 18 2 0
BITMAP
0420
0CE0
3980
2100
0000
C0C0
C0C0
C0C0
C0C0
C0C0
C0C0
C0C0
C0C0
C0C0
C0C0
C180
7F80
3E00
ENDCHAR
STARTCHAR F6A1
ENCODING 63137
SWIDTH 583 0
DWIDTH 14 0
BBX 10 17 2 0
BITMAP
7F80
7F80
0000
0000
C0C0
C0C0
C0C0
C0C0
C0C0
C0C0
C0C0
C0C0
C0C0
C0C0
C180
7F80
3E00
ENDCHAR
STARTCHAR F6A2
ENCODING 63138
SWIDTH 583 0
DWIDTH 14 0
BBX 10 19 2 -6
BITMAP
C0C0
C0C0
C0C0
C0C0
C0C0
C0C0
C0C0
C0C0
C0C0
C0C0
C180
7F80
3E00
0C00
0800
1800
1800
0E00
0600
ENDCHAR
STARTCHAR F6A3
ENCODING 63139
SWIDTH 583 0
DWIDTH 14 0
BBX 10 19 2 0
BITMAP
1C00
1200
2200
1200
1C00
0000
C0C0
C0C0
C0C0
C0C0
C0C0
C0C0
C0C0
C0C0
C0C0
C0C0
C180
7F80
3E00
ENDCHAR
STARTCHAR F6A4
ENCODING 63140
SWIDTH 583 0
DWIDTH 14 0
BBX 10 17 2 0
BITMAP
3B00
3F00
0000
0000
C0C0
C0C0
C0C0
C0C0
C0C0
C0C0
C0C0
C0C0
C0C0
C0C0
C180
7F80
3E00
ENDCHAR
STARTCHAR F6A5
ENCODING 63141
SWIDTH 791 0
DWIDTH 19 0
BBX 18 18 1 0
BITMAP
001000
007000
01C000
018000
000000
C0C0C0
C1C180
C1C180
41E180
636100
636300
232300
323200
363600
363600
1C1C00
1C1C00
1C1C00
ENDCHAR
STARTCHAR F6A6
ENCODING 63142
SWIDTH 791 0
DWIDTH 19 0
BBX 18 17 1 0
BITMAP
01C000
036000
063000
000000
C0C0C0
C1C180
C1C180
41E180
636100
636300
232300
323200
363600
363600
1C1C00
1C1C00
1C1C00
ENDCHAR
STARTCHAR F6A7
ENCODING 63143
SWIDTH 791 0
DWIDTH 19 0
BBX 18 17 1 0
BITMAP
036000
036000
036000
000000
C0C0C0
C1C180
C1C180
41E180
636100
636300
232300
323200
363600
363600
1C1C00
1C1C00
1C1C00
ENDCHAR
STARTCHAR F6A8
ENCODING 63144
SWIDTH 791 0
DWIDTH 19 0
BBX 18 18 1 0
BITMAP
020000
070000
01C000
004000
000000
C0C0C0
C1C180
C1C180
41E180
636100
636300
232300
323200
363600
363600
1C1C00
1C1C00
1C1C00
ENDCHAR
STARTCHAR F6A9
ENCODING 63145
SWIDTH 500 0
DWIDTH 12 0
BBX 11 17 1 0
BITMAP
0E00
1F00
7180
0000
C060
C0C0
60C0
6180
3300
3300
1E00
0E00
0C00
0C00
0C00
0C00
0C00
ENDCHAR
STARTCHAR F6AA
ENCODING 63146
SWIDTH 500 0
DWIDTH 12 0
BBX 11 18 1 0
BITMAP
2000
3800
1E00
0600
0000
C060
C0C0
60C0
6180
3300
3300
1E00
0E00
0C00
0C00
0C00
0C00
0C00
ENDCHAR
STARTCHAR F6AB
ENCODING 63147
SWIDTH 416 0
DWIDTH 10 0
BBX 9 18 0 0
BITMAP
0100
0700
1E00
0800
0000
7F80
7F80
0300
0300
0600
0C00
0C00
1800
3000
3000
6000
FF80
FF80
ENDCHAR
STARTCHAR F6AC
ENCODING 63148
SWIDTH 416 0
DWIDTH 10 0
BBX 9 17 0 0
BITMAP
0C00
0C00
0C00
0000
7F80
7F80
0300
0300
0600
0C00
0C00
1800
3000
3000
6000
FF80
FF80
ENDCHAR
STARTCHAR F6AD
ENCODING 63149
SWIDTH 208 0
DWIDTH 5 0
BBX 2 17 2 0
BITMAP
C0
C0
C0
00
C0
C0
C0
C0
C0
C0
C0
C0
C0
C0
C0
C0
C0
ENDCHAR
STARTCHAR F6BE
ENCODING 63166
SWIDTH 208 0
DWIDTH 5 0
BBX 4 18 -1 -5
BITMAP
10
10
10
10
10
10
10
10
10
10
10
10
10
30
30
30
E0
C0
ENDCHAR
STARTCHAR F6DC
ENCODING 63196
SWIDTH 333 0
DWIDTH 8 0
BBX 5 18 1 0
BITMAP
F8
F8
08
08
08
08
08
08
08
08
08
08
08
08
08
08
08
08
ENDCHAR
STARTCHAR F6DE
ENCODING 63198
SWIDTH 750 0
DWIDTH 18 0
BBX 18 2 0 5
BITMAP
FFFFC0
FFFFC0
ENDCHAR
STARTCHAR F724
ENCODING 63268
SWIDTH 500 0
DWIDTH 12 0
BBX 10 22 1 -2
BITMAP
1E00
1E00
1E00
7F80
6180
C0C0
C0C0
C000
C000
7000
3E00
0780
00C0
00C0
0040
C040
C0C0
E1C0
7F80
3E00
1E00
1E00
ENDCHAR
STARTCHAR F730
ENCODING 63280
SWIDTH 625 0
DWIDTH 15 0
BBX 12 13 1 0
BITMAP
1FC0
3FE0
6030
6030
4010
C010
C010
C010
4030
6030
6030
3FE0
1FC0
ENDCHAR
STARTCHAR F731
ENCODING 63281
SWIDTH 333 0
DWIDTH 8 0
BBX 5 13 1 0
BITMAP
F8
08
08
08
08
08
08
08
08
08
08
08
08
ENDCHAR
STARTCHAR F732
ENCODING 63282
SWIDTH 583 0
DWIDTH 14 0
BBX 12 13 1 0
BITMAP
1F80
3FE0
6060
6030
4030
0030
0060
01C0
0380
0E00
3800
FFF0
FFF0
ENDCHAR
STARTCHAR F733
ENCODING 63283
SWIDTH 583 0
DWIDTH 14 0
BBX 11 18 2 -5
BITMAP
1E00
3F80
6180
60C0
40C0
00C0
0180
0F00
0F80
00C0
0040
0060
8060
8060
C0C0
E0C0
7F80
1F00
ENDCHAR
STARTCHAR F734
ENCODING 63284
SWIDTH 625 0
DWIDTH 15 0
BBX 13 16 1 -3
BITMAP
0060
00E0
01E0
03E0
0360
0660
0C60
1C60
1860
3060
6060
FFF8
FFF8
0060
0060
0060
ENDCHAR
STARTCHAR F735
ENCODING 63285
SWIDTH 625 0
DWIDTH 15 0
BBX 12 18 2 -5
BITMAP
3FC0
3FC0
2000
6000
6000
6E00
7F80
71C0
C060
0060
0020
0030
8020
C060
C060
60C0
3FC0
1F00
ENDCHAR
STARTCHAR F736
ENCODING 63286
SWIDTH 625 0
DWIDTH 15 0
BBX 13 18 1 0
BITMAP
0180
0300
0600
0600
0C00
1B00
3FC0
3860
6030
6030
4010
C018
4018
6010
6030
3060
1FE0
0F80
ENDCHAR
STARTCHAR F737
ENCODING 63287
SWIDTH 541 0
DWIDTH 13 0
BBX 11 18 1 -5
BITMAP
FFE0
FFE0
0040
00C0
0080
0180
0180
0300
0300
0600
0600
0C00
0C00
0800
1800
1800
3000
3000
ENDCHAR
STARTCHAR F738
ENCODING 63288
SWIDTH 583 0
DWIDTH 14 0
BBX 12 18 1 0
BITMAP
0F00
1FC0
30C0
2060
6060
2060
30C0
1FC0
1F80
30E0
6060
4030
C030
4030
6020
7060
3FC0
0F80
ENDCHAR
STARTCHAR F739
ENCODING 63289
SWIDTH 625 0
DWIDTH 15 0
BBX 13 18 1 -5
BITMAP
0F80
3FE0
3060
6030
6010
C018
4018
4010
6030
3070
3FE0
0FC0
00C0
0180
0300
0300
0600
0C00
ENDCHAR
STARTCHAR F761
ENCODING 63329
SWIDTH 625 0
DWIDTH 15 0
BBX 13 13 1 0
BITMAP
0700
0700
0D80
0D80
08C0
18C0
1060
3FE0
3FF0
6030
6010
C018
C018
ENDCHAR
STARTCHAR F762
ENCODING 63330
SWIDTH 500 0
DWIDTH 12 0
BBX 9 13 2 0
BITMAP
FC00
FF00
C300
C300
C300
FF00
FF00
C380
C180
C180
C180
FF00
FE00
ENDCHAR
STARTCHAR F763
ENCODING 63331
SWIDTH 666 0
DWIDTH 16 0
BBX 14 13 1 0
BITMAP
0FC0
3FF0
7018
600C
C000
C000
C000
C000
C000
600C
7018
3FF0
0FC0
ENDCHAR
STARTCHAR F764
ENCODING 63332
SWIDTH 625 0
DWIDTH 15 0
BBX 12 13 2 0
BITMAP
FF00
FF80
C0E0
C060
C030
C030
C030
C030
C030
C060
C0E0
FFC0
FF00
ENDCHAR
STARTCHAR F765
ENCODING 63333
SWIDTH 458 0
DWIDTH 11 0
BBX 8 13 2 0
BITMAP
FF
FF
C0
C0
C0
FF
FF
C0
C0
C0
C0
FF
FF
ENDCHAR
STARTCHAR F766
ENCODING 63334
SWIDTH 416 0
DWIDTH 10 0
BBX 7 13 2 0
BITMAP
FE
FE
C0
C0
C0
FE
FE
C0
C0
C0
C0
C0
C0
ENDCHAR
STARTCHAR F767
ENCODING 63335
SWIDTH 708 0
DWIDTH 17 0
BBX 15 13 1 0
BITMAP
07E0
1FF0
301C
600C
C000
C000
C000
C7FE
C7FE
600C
701C
1FF8
07E0
ENDCHAR
STARTCHAR F768
ENCODING 63336
SWIDTH 583 0
DWIDTH 14 0
BBX 10 13 2 0
BITMAP
C0C0
C0C0
C0C0
C0C0
C0C0
FFC0
FFC0
C0C0
C0C0
C0C0
C0C0
C0C0
C0C0
ENDCHAR
STARTCHAR F769
ENCODING 63337
SWIDTH 208 0
DWIDTH 5 0
BBX 2 13 2 0
BITMAP
C0
C0
C0
C0
C0
C0
C0
C0
C0
C0
C0
C0
C0
ENDCHAR
STARTCHAR F76A
ENCODING 63338
SWIDTH 416 0
DWIDTH 10 0
BBX 7 13 1 0
BITMAP
02
02
02
02
02
02
02
02
02
82
C6
FE
7C
ENDCHAR
STARTCHAR F76B
ENCODING 63339
SWIDTH 500 0
DWIDTH 12 0
BBX 10 13 2 0
BITMAP
C1C0
C380
C300
C600
CC00
D800
F800
F800
CC00
C600
C300
C380
C1C0
ENDCHAR
STARTCHAR F76C
ENCODING 63340
SWIDTH 416 0
DWIDTH 10 0
BBX 7 13 2 0
BITMAP
C0
C0
C0
C0
C0
C0
C0
C0
C0
C0
C0
FE
FE
ENDCHAR
STARTCHAR F76D
ENCODING 63341
SWIDTH 791 0
DWIDTH 19 0
BBX 15 13 2 0
BITMAP
E00E
E01E
E01E
F016
D036
D826
D866
CC66
CCC6
C6C6
C786
C386
C306
ENDCHAR
STARTCHAR F76E
ENCODING 63342
SWIDTH 625 0
DWIDTH 15 0
BBX 11 13 2 0
BITMAP
C020
E020
F020
F820
D820
CC20
C620
C720
C320
C1A0
C0E0
C0E0
C060
ENDCHAR
STARTCHAR F76F
ENCODING 63343
SWIDTH 708 0
DWIDTH 17 0
BBX 15 13 1 0
BITMAP
07C0
1FF0
3018
600C
C006
C006
C006
C006
C006
600C
3018
1FF0
07C0
ENDCHAR
STARTCHAR F770
ENCODING 63344
SWIDTH 500 0
DWIDTH 12 0
BBX 9 13 2 0
BITMAP
FE00
FF80
C180
C080
C080
C180
FF80
FE00
C000
C000
C000
C000
C000
ENDCHAR
STARTCHAR F771
ENCODING 63345
SWIDTH 708 0
DWIDTH 17 0
BBX 15 13 1 0
BITMAP
07E0
1FF8
701C
600C
C006
C006
C002
DE06
FF86
60EE
303C
1FFE
07E6
ENDCHAR
STARTCHAR F772
ENCODING 63346
SWIDTH 541 0
DWIDTH 13 0
BBX 10 13 2 0
BITMAP
FE00
FF80
C180
C0C0
C0C0
C0C0
C380
DF00
CC00
C600
C700
C300
C180
ENDCHAR
STARTCHAR F773
ENCODING 63347
SWIDTH 416 0
DWIDTH 10 0
BBX 8 13 1 0
BITMAP
3C
7E
C3
C3
C0
78
3E
07
01
81
C3
FF
3C
ENDCHAR
STARTCHAR F774
ENCODING 63348
SWIDTH 375 0
DWIDTH 9 0
BBX 8 13 0 0
BITMAP
FF
FF
18
18
18
18
18
18
18
18
18
18
18
ENDCHAR
STARTCHAR F775
ENCODING 63349
SWIDTH 583 0
DWIDTH 14 0
BBX 10 13 2 0
BITMAP
C0C0
C0C0
C0C0
C0C0
C0C0
C0C0
C0C0
C0C0
C0C0
C0C0
C180
7F80
3E00
ENDCHAR
STARTCHAR F776
ENCODING 63350
SWIDTH 583 0
DWIDTH 14 0
BBX 13 13 1 0
BITMAP
C018
C030
6030
6060
6060
3040
30C0
18C0
1980
0D80
0F00
0700
0600
ENDCHAR
STARTCHAR F777
ENCODING 63351
SWIDTH 791 0
DWIDTH 19 0
BBX 18 13 1 0
BITMAP
C0C0C0
C1C180
C1C180
41E180
636100
636300
232300
323200
363600
363600
1C1C00
1C1C00
1C1C00
ENDCHAR
STARTCHAR F778
ENCODING 63352
SWIDTH 541 0
DWIDTH 13 0
BBX 11 13 1 0
BITMAP
C060
60C0
7180
3380
1B00
0E00
0E00
1E00
1B00
3180
61C0
E0C0
C060
ENDCHAR
STARTCHAR F779
ENCODING 63353
SWIDTH 500 0
DWIDTH 12 0
BBX 11 13 1 0
BITMAP
C060
C0C0
60C0
6180
3300
3300
1E00
0E00
0C00
0C00
0C00
0C00
0C00
ENDCHAR
STARTCHAR F77A
ENCODING 63354
SWIDTH 416 0
DWIDTH 10 0
BBX 9 13 0 0
BITMAP
7F80
7F80
0300
0300
0600
0C00
0C00
1800
3000
3000
6000
FF80
FF80
ENDCHAR
STARTCHAR F7A2
ENCODING 63394
SWIDTH 666 0
DWIDTH 16 0
BBX 13 17 1 -2
BITMAP
0200
0200
0FC0
3FE0
7038
6018
C000
C000
C000
C000
C000
6018
7038
1FF0
0FC0
0200
0200
ENDCHAR
STARTCHAR F7E0
ENCODING 63456
SWIDTH 625 0
DWIDTH 15 0
BBX 13 18 1 0
BITMAP
1800
1C00
0700
0300
0000
0700
0700
0D80
0D80
08C0
18C0
1060
3FE0
3FF0
6030
6010
C018
C018
ENDCHAR
STARTCHAR F7E1
ENCODING 63457
SWIDTH 625 0
DWIDTH 15 0
BBX 13 18 1 0
BITMAP
00C0
01C0
0700
0400
0000
0700
0700
0D80
0D80
08C0
18C0
1060
3FE0
3FF0
6030
6010
C018
C018
ENDCHAR
STARTCHAR F7E2
ENCODING 63458
SWIDTH 625 0
DWIDTH 15 0
BBX 13 17 1 0
BITMAP
0700
0D80
18C0
0000
0700
0700
0D80
0D80
08C0
18C0
1060
3FE0
3FF0
6030
6010
C018
C018
ENDCHAR
STARTCHAR F7E3
ENCODING 63459
SWIDTH 625 0
DWIDTH 15 0
BBX 13 17 1 0
BITMAP
0EC0
1F80
0000
0000
0700
0700
0D80
0D80
08C0
18C0
1060
3FE0
3FF0
6030
6010
C018
C018
ENDCHAR
STARTCHAR F7E4
ENCODING 63460
SWIDTH 625 0
DWIDTH 15 0
BBX 13 17 1 0
BITMAP
0D80
0D80
0D80
0000
0700
0700
0D80
0D80
08C0
18C0
1060
3FE0
3FF0
6030
6010
C018
C018
ENDCHAR
STARTCHAR F7E5
ENCODING 63461
SWIDTH 625 0
DWIDTH 15 0
BBX 13 19 1 0
BITMAP
0700
0D80
0880
0C80
0700
0000
0700
0700
0D80
0D80
08C0
18C0
1060
3FE0
3FF0
6030
6010
C018
C018
ENDCHAR
STARTCHAR F7E6
ENCODING 63462
SWIDTH 833 0
DWIDTH 20 0
BBX 17 13 1 0
BITMAP
007F80
00FF80
01E000
01A000
032000
063F80
0C3F80
0FE000
1FE000
302000
602000
E03F80
C03F80
ENDCHAR
STARTCHAR F7E7
ENCODING 63463
SWIDTH 666 0
DWIDTH 16 0
BBX 14 19 1 -6
BITMAP
0FC0
3FF0
7018
600C
C000
C000
C000
C000
C000
600C
7018
1FF0
07C0
0100
03C0
0060
0060
0340
01C0
ENDCHAR
STARTCHAR F7E8
ENCODING 63464
SWIDTH 458 0
DWIDTH 11 0
BBX 8 18 2 0
BITMAP
40
F0
38
08
00
FF
FF
C0
C0
C0
FF
FF
C0
C0
C0
C0
FF
FF
ENDCHAR
STARTCHAR F7E9
ENCODING 63465
SWIDTH 458 0
DWIDTH 11 0
BBX 8 18 2 0
BITMAP
02
0E
38
30
00
FF
FF
C0
C0
C0
FF
FF
C0
C0
C0
C0
FF
FF
ENDCHAR
STARTCHAR F7EA
ENCODING 63466
SWIDTH 458 0
DWIDTH 11 0
BBX 8 17 2 0
BITMAP
38
7C
C7
00
FF
FF
C0
C0
C0
FF
FF
C0
C0
C0
C0
FF
FF
ENDCHAR
STARTCHAR F7EB
ENCODING 63467
SWIDTH 458 0
DWIDTH 11 0
BBX 8 17 2 0
BITMAP
64
64
64
00
FF
FF
C0
C0
C0
FF
FF
C0
C0
C0
C0
FF
FF
ENDCHAR
STARTCHAR F7EC
ENCODING 63468
SWIDTH 208 0
DWIDTH 5 0
BBX 5 18 -1 0
BITMAP
C0
E0
38
08
00
18
18
18
18
18
18
18
18
18
18
18
18
18
ENDCHAR
STARTCHAR F7ED
ENCODING 63469
SWIDTH 208 0
DWIDTH 5 0
BBX 5 18 1 0
BITMAP
08
38
E0
40
00
60
60
60
60
60
60
60
60
60
60
60
60
60
ENDCHAR
STARTCHAR F7EE
ENCODING 63470
SWIDTH 208 0
DWIDTH 5 0
BBX 7 17 -1 0
BITMAP
38
6C
C6
00
18
18
18
18
18
18
18
18
18
18
18
18
18
ENDCHAR
STARTCHAR F7EF
ENCODING 63471
SWIDTH 208 0
DWIDTH 5 0
BBX 5 17 0 0
BITMAP
C8
C8
C8
00
30
30
30
30
30
30
30
30
30
30
30
30
30
ENDCHAR
STARTCHAR F7F0
ENCODING 63472
SWIDTH 666 0
DWIDTH 16 0
BBX 14 13 1 0
BITMAP
3F80
3FE0
2030
2018
200C
FE0C
FE0C
200C
200C
2018
2030
3FE0
3F80
ENDCHAR
STARTCHAR F7F1
ENCODING 63473
SWIDTH 625 0
DWIDTH 15 0
BBX 11 17 2 0
BITMAP
1D80
3F00
0000
0000
C020
E020
F020
F820
D820
CC20
C620
C720
C320
C1A0
C0E0
C0E0
C060
ENDCHAR
STARTCHAR F7F2
ENCODING 63474
SWIDTH 708 0
DWIDTH 17 0
BBX 15 18 1 0
BITMAP
0C00
0E00
0380
0180
0000
07C0
1FF0
3018
600C
C006
C006
C006
C006
C006
600C
3018
1FF0
07C0
ENDCHAR
STARTCHAR F7F3
ENCODING 63475
SWIDTH 708 0
DWIDTH 17 0
BBX 15 18 1 0
BITMAP
0060
00E0
0380
0200
0000
07C0
1FF0
3018
600C
C006
C006
C006
C006
C006
600C
3018
1FF0
07C0
ENDCHAR
STARTCHAR F7F4
ENCODING 63476
SWIDTH 708 0
DWIDTH 17 0
BBX 15 17 1 0
BITMAP
0380
06C0
0C60
0000
07C0
1FF0
3018
600C
C006
C006
C006
C006
C006
600C
3018
1FF0
07C0
ENDCHAR
STARTCHAR F7F5
ENCODING 63477
SWIDTH 708 0
DWIDTH 17 0
BBX 15 17 1 0
BITMAP
0720
0FE0
0080
0000
07C0
1FF0
3018
600C
C006
C006
C006
C006
C006
600C
3018
1FF0
07C0
ENDCHAR
STARTCHAR F7F6
ENCODING 63478
SWIDTH 708 0
DWIDTH 17 0
BBX 15 17 1 0
BITMAP
06C0
06C0
06C0
0000
07C0
1FF0
3018
600C
C006
C006
C006
C006
C006
600C
3018
1FF0
07C0
ENDCHAR
STARTCHAR F7F8
ENCODING 63480
SWIDTH 708 0
DWIDTH 17 0
BBX 15 15 1 -1
BITMAP
0004
07EC
1FF8
303C
607C
60E6
C0C6
C182
C306
6606
6C0C
381C
3FF8
77E0
6000
ENDCHAR
STARTCHAR F7F9
ENCODING 63481
SWIDTH 583 0
DWIDTH 14 0
BBX 10 18 2 0
BITMAP
2000
7000
1C00
0400
0000
C0C0
C0C0
C0C0
C0C0
C0C0
C0C0
C0C0
C0C0
C0C0
C0C0
C180
7F80
3E00
ENDCHAR
STARTCHAR F7FA
ENCODING 63482
SWIDTH 583 0
DWIDTH 14 0
BBX 10 18 2 0
BITMAP
0100
0700
1C00
1800
0000
C0C0
C0C0
C0C0
C0C0
C0C0
C0C0
C0C0
C0C0
C0C0
C0C0
C180
7F80
3E00
ENDCHAR
STARTCHAR F7FB
ENCODING 63483
SWIDTH 583 0
DWIDTH 14 0
BBX 10 17 2 0
BITMAP
1C00
3E00
6300
0000
C0C0
C0C0
C0C0
C0C0
C0C0
C0C0
C0C0
C0C0
C0C0
C0C0
C180
7F80
3E00
ENDCHAR
STARTCHAR F7FC
ENCODING 63484
SWIDTH 583 0
DWIDTH 14 0
BBX 10 17 2 0
BITMAP
3200
3200
3200
0000
C0C0
C0C0
C0C0
C0C0
C0C0
C0C0
C0C0
C0C0
C0C0
C0C0
C180
7F80
3E00
ENDCHAR
STARTCHAR F7FD
ENCODING 63485
SWIDTH 500 0
DWIDTH 12 0
BBX 11 18 1 0
BITMAP
0100
0780
0E00
0800
0000
C060
C0C0
60C0
6180
3300
3300
1E00
0E00
0C00
0C00
0C00
0C00
0C00
ENDCHAR
STARTCHAR F7FE
ENCODING 63486
SWIDTH 500 0
DWIDTH 12 0
BBX 9 13 2 0
BITMAP
8000
8000
F800
FF00
C180
C080
C080
C180
FF80
FE00
C000
C000
C000
ENDCHAR
STARTCHAR F7FF
ENCODING 63487
SWIDTH 500 0
DWIDTH 12 0
BBX 11 17 1 0
BITMAP
3300
3300
3300
0000
C060
C0C0
60C0
6180
3300
3300
1E00
0E00
0C00
0C00
0C00
0C00
0C00
ENDCHAR
STARTCHAR FB00
ENCODING 64256
SWIDTH 583 0
DWIDTH 14 0
BBX 13 18 0 0
BITMAP
0618
1E78
1860
30C0
30C0
FFF8
FFF8
30C0
30C0
30C0
30C0
30C0
30C0
30C0
30C0
30C0
30C0
30C0
ENDCHAR
STARTCHAR FB01
ENCODING 64257
SWIDTH 500 0
DWIDTH 12 0
BBX 10 18 0 0
BITMAP
06C0
1EC0
18C0
3000
3000
FEC0
FEC0
30C0
30C0
30C0
30C0
30C0
30C0
30C0
30C0
30C0
30C0
30C0
ENDCHAR
STARTCHAR FB02
ENCODING 64258
SWIDTH 500 0
DWIDTH 12 0
BBX 10 18 0 0
BITMAP
06C0
1EC0
18C0
30C0
30C0
FEC0
FEC0
30C0
30C0
30C0
30C0
30C0
30C0
30C0
30C0
30C0
30C0
30C0
ENDCHAR
STARTCHAR FB03
ENCODING 64259
SWIDTH 750 0
DWIDTH 18 0
BBX 16 18 0 0
BITMAP
061B
1E7B
1863
30C0
30C0
FFFB
FFFB
30C3
30C3
30C3
30C3
30C3
30C3
30C3
30C3
30C3
30C3
30C3
ENDCHAR
STARTCHAR FB04
ENCODING 64260
SWIDTH 750 0
DWIDTH 18 0
BBX 16 18 0 0
BITMAP
061B
1E7B
1863
30C3
30C3
FFFB
FFFB
30C3
30C3
30C3
30C3
30C3
30C3
30C3
30C3
30C3
30C3
30C3
ENDCHAR
ENDFONT
